<?xml version="1.0" encoding="UTF-8" standalone="no"?>
<!DOCTYPE svg PUBLIC "-//W3C//DTD SVG 1.1//EN"
 "http://www.w3.org/Graphics/SVG/1.1/DTD/svg11.dtd">
<!-- Generated by graphviz version 2.40.1 (20161225.0304)
 -->
<!-- Title: dependencies Pages: 1 -->
<svg width="915pt" height="284pt"
 viewBox="0.00 0.00 915.00 284.00" xmlns="http://www.w3.org/2000/svg" xmlns:xlink="http://www.w3.org/1999/xlink">
<g id="graph0" class="graph" transform="scale(1 1) rotate(0) translate(4 280)">
<title>dependencies</title>
<polygon fill="#ffffff" stroke="transparent" points="-4,4 -4,-280 911,-280 911,4 -4,4"/>
<text text-anchor="start" x="432.5091" y="-42.4" font-family="sans-serif" font-weight="bold" font-size="14.00" fill="#000000">Legend</text>
<polygon fill="#ffffb3" stroke="transparent" points="219.5,-10 219.5,-30 239.5,-30 239.5,-10 219.5,-10"/>
<text text-anchor="start" x="243.129" y="-15.4" font-family="sans-serif" font-size="14.00" fill="#000000"> &#160;Declarations</text>
<polygon fill="#8dd3c7" stroke="transparent" points="332.5,-10 332.5,-30 352.5,-30 352.5,-10 332.5,-10"/>
<text text-anchor="start" x="356.2251" y="-15.4" font-family="sans-serif" font-size="14.00" fill="#000000"> &#160;Module</text>
<polygon fill="#80b1d3" stroke="transparent" points="418.5,-10 418.5,-30 438.5,-30 438.5,-10 418.5,-10"/>
<text text-anchor="start" x="442.2812" y="-15.4" font-family="sans-serif" font-size="14.00" fill="#000000"> &#160;Bootstrap</text>
<polygon fill="#fdb462" stroke="transparent" points="515.5,-10 515.5,-30 535.5,-30 535.5,-10 515.5,-10"/>
<text text-anchor="start" x="539.1732" y="-15.4" font-family="sans-serif" font-size="14.00" fill="#000000"> &#160;Providers</text>
<polygon fill="#fb8072" stroke="transparent" points="611.5,-10 611.5,-30 631.5,-30 631.5,-10 611.5,-10"/>
<text text-anchor="start" x="635.2258" y="-15.4" font-family="sans-serif" font-size="14.00" fill="#000000"> &#160;Exports</text>
<g id="clust1" class="cluster">
<title>cluster_DataFilterModule</title>
<polygon fill="none" stroke="#000000" stroke-dasharray="1,5" points="8,-70 8,-268 899,-268 899,-70 8,-70"/>
</g>
<g id="clust2" class="cluster">
<title>cluster_DataFilterModule_declarations</title>
<polygon fill="none" stroke="#000000" points="198,-78 198,-130 891,-130 891,-78 198,-78"/>
</g>
<g id="clust9" class="cluster">
<title>cluster_DataFilterModule_exports</title>
<polygon fill="none" stroke="#000000" points="353,-208 353,-260 511,-260 511,-208 353,-208"/>
</g>
<g id="clust11" class="cluster">
<title>cluster_DataFilterModule_providers</title>
<polygon fill="none" stroke="#000000" points="16,-78 16,-130 190,-130 190,-78 16,-78"/>
</g>
<!-- AddUnderscorePipe -->
<g id="node1" class="node">
<title>AddUnderscorePipe</title>
<polygon fill="#ffffb3" stroke="#000000" points="882.5115,-122 753.4885,-122 753.4885,-86 882.5115,-86 882.5115,-122"/>
<text text-anchor="middle" x="818" y="-99.8" font-family="Times,serif" font-size="14.00" fill="#000000">AddUnderscorePipe</text>
</g>
<!-- DataFilterModule -->
<g id="node6" class="node">
<title>DataFilterModule</title>
<polygon fill="#8dd3c7" stroke="#000000" points="490.3062,-187 487.3062,-191 466.3062,-191 463.3062,-187 373.6938,-187 373.6938,-151 490.3062,-151 490.3062,-187"/>
<text text-anchor="middle" x="432" y="-164.8" font-family="Times,serif" font-size="14.00" fill="#000000">DataFilterModule</text>
</g>
<!-- AddUnderscorePipe&#45;&gt;DataFilterModule -->
<g id="edge1" class="edge">
<title>AddUnderscorePipe&#45;&gt;DataFilterModule</title>
<path fill="none" stroke="#000000" d="M818,-122.2843C818,-143.3211 818,-175 818,-175 818,-175 500.206,-175 500.206,-175"/>
<polygon fill="#000000" stroke="#000000" points="500.2061,-171.5001 490.206,-175 500.206,-178.5001 500.2061,-171.5001"/>
</g>
<!-- ClickOutsideDirective -->
<g id="node2" class="node">
<title>ClickOutsideDirective</title>
<polygon fill="#ffffb3" stroke="#000000" points="734.9622,-122 593.0378,-122 593.0378,-86 734.9622,-86 734.9622,-122"/>
<text text-anchor="middle" x="664" y="-99.8" font-family="Times,serif" font-size="14.00" fill="#000000">ClickOutsideDirective</text>
</g>
<!-- ClickOutsideDirective&#45;&gt;DataFilterModule -->
<g id="edge2" class="edge">
<title>ClickOutsideDirective&#45;&gt;DataFilterModule</title>
<path fill="none" stroke="#000000" d="M664,-122.0225C664,-139.3734 664,-163 664,-163 664,-163 500.2439,-163 500.2439,-163"/>
<polygon fill="#000000" stroke="#000000" points="500.244,-159.5001 490.2439,-163 500.2439,-166.5001 500.244,-159.5001"/>
</g>
<!-- DataFilterComponent -->
<g id="node3" class="node">
<title>DataFilterComponent</title>
<polygon fill="#ffffb3" stroke="#000000" points="575.0884,-122 436.9116,-122 436.9116,-86 575.0884,-86 575.0884,-122"/>
<text text-anchor="middle" x="506" y="-99.8" font-family="Times,serif" font-size="14.00" fill="#000000">DataFilterComponent</text>
</g>
<!-- DataFilterComponent&#45;&gt;DataFilterModule -->
<g id="edge3" class="edge">
<title>DataFilterComponent&#45;&gt;DataFilterModule</title>
<path fill="none" stroke="#000000" d="M463.5544,-122.1061C463.5544,-122.1061 463.5544,-140.991 463.5544,-140.991"/>
<polygon fill="#000000" stroke="#000000" points="460.0544,-140.9909 463.5544,-150.991 467.0544,-140.991 460.0544,-140.9909"/>
</g>
<!-- FilterByNamePipe -->
<g id="node4" class="node">
<title>FilterByNamePipe</title>
<polygon fill="#ffffb3" stroke="#000000" points="418.4804,-122 297.5196,-122 297.5196,-86 418.4804,-86 418.4804,-122"/>
<text text-anchor="middle" x="358" y="-99.8" font-family="Times,serif" font-size="14.00" fill="#000000">FilterByNamePipe</text>
</g>
<!-- FilterByNamePipe&#45;&gt;DataFilterModule -->
<g id="edge4" class="edge">
<title>FilterByNamePipe&#45;&gt;DataFilterModule</title>
<path fill="none" stroke="#000000" d="M396.1687,-122.1061C396.1687,-122.1061 396.1687,-140.991 396.1687,-140.991"/>
<polygon fill="#000000" stroke="#000000" points="392.6687,-140.9909 396.1687,-150.991 399.6687,-140.991 392.6687,-140.9909"/>
</g>
<!-- OrderPipe -->
<g id="node5" class="node">
<title>OrderPipe</title>
<polygon fill="#ffffb3" stroke="#000000" points="279.5317,-122 206.4683,-122 206.4683,-86 279.5317,-86 279.5317,-122"/>
<text text-anchor="middle" x="243" y="-99.8" font-family="Times,serif" font-size="14.00" fill="#000000">OrderPipe</text>
</g>
<!-- OrderPipe&#45;&gt;DataFilterModule -->
<g id="edge5" class="edge">
<title>OrderPipe&#45;&gt;DataFilterModule</title>
<path fill="none" stroke="#000000" d="M243,-122.0225C243,-139.3734 243,-163 243,-163 243,-163 363.7516,-163 363.7516,-163"/>
<polygon fill="#000000" stroke="#000000" points="363.7516,-166.5001 373.7516,-163 363.7516,-159.5001 363.7516,-166.5001"/>
</g>
<!-- DataFilterComponent  -->
<g id="node7" class="node">
<title>DataFilterComponent </title>
<polygon fill="#fb8072" stroke="#000000" points="502.589,-252 361.411,-252 361.411,-216 502.589,-216 502.589,-252"/>
<text text-anchor="middle" x="432" y="-229.8" font-family="Times,serif" font-size="14.00" fill="#000000">DataFilterComponent </text>
</g>
<!-- DataFilterModule&#45;&gt;DataFilterComponent  -->
<g id="edge6" class="edge">
<title>DataFilterModule&#45;&gt;DataFilterComponent </title>
<path fill="none" stroke="#000000" stroke-dasharray="5,2" d="M432,-187.1061C432,-187.1061 432,-205.991 432,-205.991"/>
<polygon fill="#000000" stroke="#000000" points="428.5001,-205.9909 432,-215.991 435.5001,-205.991 428.5001,-205.9909"/>
</g>
<!-- DataFilterService -->
<g id="node8" class="node">
<title>DataFilterService</title>
<ellipse fill="#fdb462" stroke="#000000" cx="103" cy="-104" rx="79.2825" ry="18"/>
<text text-anchor="middle" x="103" y="-99.8" font-family="Times,serif" font-size="14.00" fill="#000000">DataFilterService</text>
</g>
<!-- DataFilterService&#45;&gt;DataFilterModule -->
<g id="edge7" class="edge">
<title>DataFilterService&#45;&gt;DataFilterModule</title>
<path fill="none" stroke="#000000" d="M103,-122.2843C103,-143.3211 103,-175 103,-175 103,-175 363.5605,-175 363.5605,-175"/>
<polygon fill="#000000" stroke="#000000" points="363.5605,-178.5001 373.5605,-175 363.5605,-171.5001 363.5605,-178.5001"/>
</g>
</g>
</svg>
