<?xml version="1.0" encoding="UTF-8" standalone="no"?>
<!DOCTYPE svg PUBLIC "-//W3C//DTD SVG 1.1//EN"
 "http://www.w3.org/Graphics/SVG/1.1/DTD/svg11.dtd">
<!-- Generated by graphviz version 2.40.1 (20161225.0304)
 -->
<!-- Title: dependencies Pages: 1 -->
<svg width="4339pt" height="284pt"
 viewBox="0.00 0.00 4339.00 284.00" xmlns="http://www.w3.org/2000/svg" xmlns:xlink="http://www.w3.org/1999/xlink">
<g id="graph0" class="graph" transform="scale(1 1) rotate(0) translate(4 280)">
<title>dependencies</title>
<polygon fill="#ffffff" stroke="transparent" points="-4,4 -4,-280 4335,-280 4335,4 -4,4"/>
<text text-anchor="start" x="2144.5091" y="-42.4" font-family="sans-serif" font-weight="bold" font-size="14.00" fill="#000000">Legend</text>
<polygon fill="#ffffb3" stroke="transparent" points="1931.5,-10 1931.5,-30 1951.5,-30 1951.5,-10 1931.5,-10"/>
<text text-anchor="start" x="1955.129" y="-15.4" font-family="sans-serif" font-size="14.00" fill="#000000"> &#160;Declarations</text>
<polygon fill="#8dd3c7" stroke="transparent" points="2044.5,-10 2044.5,-30 2064.5,-30 2064.5,-10 2044.5,-10"/>
<text text-anchor="start" x="2068.2251" y="-15.4" font-family="sans-serif" font-size="14.00" fill="#000000"> &#160;Module</text>
<polygon fill="#80b1d3" stroke="transparent" points="2130.5,-10 2130.5,-30 2150.5,-30 2150.5,-10 2130.5,-10"/>
<text text-anchor="start" x="2154.2812" y="-15.4" font-family="sans-serif" font-size="14.00" fill="#000000"> &#160;Bootstrap</text>
<polygon fill="#fdb462" stroke="transparent" points="2227.5,-10 2227.5,-30 2247.5,-30 2247.5,-10 2227.5,-10"/>
<text text-anchor="start" x="2251.1732" y="-15.4" font-family="sans-serif" font-size="14.00" fill="#000000"> &#160;Providers</text>
<polygon fill="#fb8072" stroke="transparent" points="2323.5,-10 2323.5,-30 2343.5,-30 2343.5,-10 2323.5,-10"/>
<text text-anchor="start" x="2347.2258" y="-15.4" font-family="sans-serif" font-size="14.00" fill="#000000"> &#160;Exports</text>
<g id="clust1" class="cluster">
<title>cluster_DataFilterModule</title>
<polygon fill="none" stroke="#000000" stroke-dasharray="1,5" points="8,-70 8,-268 4323,-268 4323,-70 8,-70"/>
</g>
<g id="clust2" class="cluster">
<title>cluster_DataFilterModule_declarations</title>
<polygon fill="none" stroke="#000000" points="16,-78 16,-130 4315,-130 4315,-78 16,-78"/>
</g>
<g id="clust24" class="cluster">
<title>cluster_DataFilterModule_exports</title>
<polygon fill="none" stroke="#000000" points="1581,-208 1581,-260 2428,-260 2428,-208 1581,-208"/>
</g>
<!-- AddDashboardComponent -->
<g id="node1" class="node">
<title>AddDashboardComponent</title>
<polygon fill="#ffffb3" stroke="#000000" points="4307.08,-122 4140.92,-122 4140.92,-86 4307.08,-86 4307.08,-122"/>
<text text-anchor="middle" x="4224" y="-99.8" font-family="Times,serif" font-size="14.00" fill="#000000">AddDashboardComponent</text>
</g>
<!-- DataFilterModule -->
<g id="node21" class="node">
<title>DataFilterModule</title>
<polygon fill="#8dd3c7" stroke="#000000" points="2029.3062,-187 2026.3062,-191 2005.3062,-191 2002.3062,-187 1912.6938,-187 1912.6938,-151 2029.3062,-151 2029.3062,-187"/>
<text text-anchor="middle" x="1971" y="-164.8" font-family="Times,serif" font-size="14.00" fill="#000000">DataFilterModule</text>
</g>
<!-- AddDashboardComponent&#45;&gt;DataFilterModule -->
<g id="edge1" class="edge">
<title>AddDashboardComponent&#45;&gt;DataFilterModule</title>
<path fill="none" stroke="#000000" d="M4224,-122.2479C4224,-145.0179 4224,-181 4224,-181 4224,-181 2039.2425,-181 2039.2425,-181"/>
<polygon fill="#000000" stroke="#000000" points="2039.2425,-177.5001 2029.2425,-181 2039.2424,-184.5001 2039.2425,-177.5001"/>
</g>
<!-- ClickOutsideDirective -->
<g id="node2" class="node">
<title>ClickOutsideDirective</title>
<polygon fill="#ffffb3" stroke="#000000" points="4122.9622,-122 3981.0378,-122 3981.0378,-86 4122.9622,-86 4122.9622,-122"/>
<text text-anchor="middle" x="4052" y="-99.8" font-family="Times,serif" font-size="14.00" fill="#000000">ClickOutsideDirective</text>
</g>
<!-- ClickOutsideDirective&#45;&gt;DataFilterModule -->
<g id="edge2" class="edge">
<title>ClickOutsideDirective&#45;&gt;DataFilterModule</title>
<path fill="none" stroke="#000000" d="M4052,-122.2921C4052,-144.2057 4052,-178 4052,-178 4052,-178 2039.3778,-178 2039.3778,-178"/>
<polygon fill="#000000" stroke="#000000" points="2039.3778,-174.5001 2029.3778,-178 2039.3778,-181.5001 2039.3778,-174.5001"/>
</g>
<!-- CurrentDashboardBookmarkComponent -->
<g id="node3" class="node">
<title>CurrentDashboardBookmarkComponent</title>
<polygon fill="#ffffb3" stroke="#000000" points="3962.8389,-122 3719.1611,-122 3719.1611,-86 3962.8389,-86 3962.8389,-122"/>
<text text-anchor="middle" x="3841" y="-99.8" font-family="Times,serif" font-size="14.00" fill="#000000">CurrentDashboardBookmarkComponent</text>
</g>
<!-- CurrentDashboardBookmarkComponent&#45;&gt;DataFilterModule -->
<g id="edge3" class="edge">
<title>CurrentDashboardBookmarkComponent&#45;&gt;DataFilterModule</title>
<path fill="none" stroke="#000000" d="M3841,-122.0267C3841,-142.7672 3841,-174 3841,-174 3841,-174 2039.2747,-174 2039.2747,-174"/>
<polygon fill="#000000" stroke="#000000" points="2039.2747,-170.5001 2029.2747,-174 2039.2746,-177.5001 2039.2747,-170.5001"/>
</g>
<!-- CurrentDashboardComponent -->
<g id="node4" class="node">
<title>CurrentDashboardComponent</title>
<polygon fill="#ffffb3" stroke="#000000" points="3701.2366,-122 3516.7634,-122 3516.7634,-86 3701.2366,-86 3701.2366,-122"/>
<text text-anchor="middle" x="3609" y="-99.8" font-family="Times,serif" font-size="14.00" fill="#000000">CurrentDashboardComponent</text>
</g>
<!-- CurrentDashboardComponent&#45;&gt;DataFilterModule -->
<g id="edge4" class="edge">
<title>CurrentDashboardComponent&#45;&gt;DataFilterModule</title>
<path fill="none" stroke="#000000" d="M3609,-122.308C3609,-142.1455 3609,-171 3609,-171 3609,-171 2039.2973,-171 2039.2973,-171"/>
<polygon fill="#000000" stroke="#000000" points="2039.2973,-167.5001 2029.2973,-171 2039.2973,-174.5001 2039.2973,-167.5001"/>
</g>
<!-- CurrentDashboardDescriptionComponent -->
<g id="node5" class="node">
<title>CurrentDashboardDescriptionComponent</title>
<polygon fill="#ffffb3" stroke="#000000" points="3499.0492,-122 3248.9508,-122 3248.9508,-86 3499.0492,-86 3499.0492,-122"/>
<text text-anchor="middle" x="3374" y="-99.8" font-family="Times,serif" font-size="14.00" fill="#000000">CurrentDashboardDescriptionComponent</text>
</g>
<!-- CurrentDashboardDescriptionComponent&#45;&gt;DataFilterModule -->
<g id="edge5" class="edge">
<title>CurrentDashboardDescriptionComponent&#45;&gt;DataFilterModule</title>
<path fill="none" stroke="#000000" d="M3374,-122.1686C3374,-141.0898 3374,-168 3374,-168 3374,-168 2039.4989,-168 2039.4989,-168"/>
<polygon fill="#000000" stroke="#000000" points="2039.499,-164.5001 2029.4989,-168 2039.4989,-171.5001 2039.499,-164.5001"/>
</g>
<!-- CurrentDashboardGlobalFilterComponent -->
<g id="node6" class="node">
<title>CurrentDashboardGlobalFilterComponent</title>
<polygon fill="#ffffb3" stroke="#000000" points="3230.6685,-122 2977.3315,-122 2977.3315,-86 3230.6685,-86 3230.6685,-122"/>
<text text-anchor="middle" x="3104" y="-99.8" font-family="Times,serif" font-size="14.00" fill="#000000">CurrentDashboardGlobalFilterComponent</text>
</g>
<!-- CurrentDashboardGlobalFilterComponent&#45;&gt;DataFilterModule -->
<g id="edge6" class="edge">
<title>CurrentDashboardGlobalFilterComponent&#45;&gt;DataFilterModule</title>
<path fill="none" stroke="#000000" d="M3104,-122.302C3104,-140.2699 3104,-165 3104,-165 3104,-165 2039.5292,-165 2039.5292,-165"/>
<polygon fill="#000000" stroke="#000000" points="2039.5292,-161.5001 2029.5292,-165 2039.5291,-168.5001 2039.5292,-161.5001"/>
</g>
<!-- CurrentDashboardHeaderComponent -->
<g id="node7" class="node">
<title>CurrentDashboardHeaderComponent</title>
<polygon fill="#ffffb3" stroke="#000000" points="2959.6474,-122 2734.3526,-122 2734.3526,-86 2959.6474,-86 2959.6474,-122"/>
<text text-anchor="middle" x="2847" y="-99.8" font-family="Times,serif" font-size="14.00" fill="#000000">CurrentDashboardHeaderComponent</text>
</g>
<!-- CurrentDashboardHeaderComponent&#45;&gt;DataFilterModule -->
<g id="edge7" class="edge">
<title>CurrentDashboardHeaderComponent&#45;&gt;DataFilterModule</title>
<path fill="none" stroke="#000000" d="M2847,-122.0352C2847,-138.7344 2847,-161 2847,-161 2847,-161 2039.1552,-161 2039.1552,-161"/>
<polygon fill="#000000" stroke="#000000" points="2039.1553,-157.5001 2029.1552,-161 2039.1552,-164.5001 2039.1553,-157.5001"/>
</g>
<!-- CurrentDashboardItemSearchComponent -->
<g id="node8" class="node">
<title>CurrentDashboardItemSearchComponent</title>
<polygon fill="#ffffb3" stroke="#000000" points="2716.4803,-122 2467.5197,-122 2467.5197,-86 2716.4803,-86 2716.4803,-122"/>
<text text-anchor="middle" x="2592" y="-99.8" font-family="Times,serif" font-size="14.00" fill="#000000">CurrentDashboardItemSearchComponent</text>
</g>
<!-- CurrentDashboardItemSearchComponent&#45;&gt;DataFilterModule -->
<g id="edge8" class="edge">
<title>CurrentDashboardItemSearchComponent&#45;&gt;DataFilterModule</title>
<path fill="none" stroke="#000000" d="M2592,-122.2819C2592,-137.9478 2592,-158 2592,-158 2592,-158 2039.4222,-158 2039.4222,-158"/>
<polygon fill="#000000" stroke="#000000" points="2039.4222,-154.5001 2029.4222,-158 2039.4221,-161.5001 2039.4222,-154.5001"/>
</g>
<!-- CurrentDashboardSharingComponent -->
<g id="node9" class="node">
<title>CurrentDashboardSharingComponent</title>
<polygon fill="#ffffb3" stroke="#000000" points="2450.285,-122 2221.715,-122 2221.715,-86 2450.285,-86 2450.285,-122"/>
<text text-anchor="middle" x="2336" y="-99.8" font-family="Times,serif" font-size="14.00" fill="#000000">CurrentDashboardSharingComponent</text>
</g>
<!-- CurrentDashboardSharingComponent&#45;&gt;DataFilterModule -->
<g id="edge9" class="edge">
<title>CurrentDashboardSharingComponent&#45;&gt;DataFilterModule</title>
<path fill="none" stroke="#000000" d="M2226.8697,-122.1243C2226.8697,-136.7832 2226.8697,-155 2226.8697,-155 2226.8697,-155 2039.381,-155 2039.381,-155"/>
<polygon fill="#000000" stroke="#000000" points="2039.381,-151.5001 2029.381,-155 2039.3809,-158.5001 2039.381,-151.5001"/>
</g>
<!-- CurrentDashboardTitleComponent -->
<g id="node10" class="node">
<title>CurrentDashboardTitleComponent</title>
<polygon fill="#ffffb3" stroke="#000000" points="2203.6755,-122 1992.3245,-122 1992.3245,-86 2203.6755,-86 2203.6755,-122"/>
<text text-anchor="middle" x="2098" y="-99.8" font-family="Times,serif" font-size="14.00" fill="#000000">CurrentDashboardTitleComponent</text>
</g>
<!-- CurrentDashboardTitleComponent&#45;&gt;DataFilterModule -->
<g id="edge10" class="edge">
<title>CurrentDashboardTitleComponent&#45;&gt;DataFilterModule</title>
<path fill="none" stroke="#000000" d="M2010.7826,-122.1061C2010.7826,-122.1061 2010.7826,-140.991 2010.7826,-140.991"/>
<polygon fill="#000000" stroke="#000000" points="2007.2827,-140.9909 2010.7826,-150.991 2014.2827,-140.991 2007.2827,-140.9909"/>
</g>
<!-- CurrentDashboardVisualizationComponent -->
<g id="node11" class="node">
<title>CurrentDashboardVisualizationComponent</title>
<polygon fill="#ffffb3" stroke="#000000" points="1974.8847,-122 1715.1153,-122 1715.1153,-86 1974.8847,-86 1974.8847,-122"/>
<text text-anchor="middle" x="1845" y="-99.8" font-family="Times,serif" font-size="14.00" fill="#000000">CurrentDashboardVisualizationComponent</text>
</g>
<!-- CurrentDashboardVisualizationComponent&#45;&gt;DataFilterModule -->
<g id="edge11" class="edge">
<title>CurrentDashboardVisualizationComponent&#45;&gt;DataFilterModule</title>
<path fill="none" stroke="#000000" d="M1943.7697,-122.1061C1943.7697,-122.1061 1943.7697,-140.991 1943.7697,-140.991"/>
<polygon fill="#000000" stroke="#000000" points="1940.2697,-140.9909 1943.7697,-150.991 1947.2697,-140.991 1940.2697,-140.9909"/>
</g>
<!-- DashboardComponent -->
<g id="node12" class="node">
<title>DashboardComponent</title>
<polygon fill="#ffffb3" stroke="#000000" points="1696.9734,-122 1555.0266,-122 1555.0266,-86 1696.9734,-86 1696.9734,-122"/>
<text text-anchor="middle" x="1626" y="-99.8" font-family="Times,serif" font-size="14.00" fill="#000000">DashboardComponent</text>
</g>
<!-- DashboardComponent&#45;&gt;DataFilterModule -->
<g id="edge12" class="edge">
<title>DashboardComponent&#45;&gt;DataFilterModule</title>
<path fill="none" stroke="#000000" d="M1643.0721,-122.1243C1643.0721,-136.7832 1643.0721,-155 1643.0721,-155 1643.0721,-155 1902.7509,-155 1902.7509,-155"/>
<polygon fill="#000000" stroke="#000000" points="1902.751,-158.5001 1912.7509,-155 1902.7509,-151.5001 1902.751,-158.5001"/>
</g>
<!-- DashboardHomeComponent -->
<g id="node13" class="node">
<title>DashboardHomeComponent</title>
<polygon fill="#ffffb3" stroke="#000000" points="1537.1853,-122 1360.8147,-122 1360.8147,-86 1537.1853,-86 1537.1853,-122"/>
<text text-anchor="middle" x="1449" y="-99.8" font-family="Times,serif" font-size="14.00" fill="#000000">DashboardHomeComponent</text>
</g>
<!-- DashboardHomeComponent&#45;&gt;DataFilterModule -->
<g id="edge13" class="edge">
<title>DashboardHomeComponent&#45;&gt;DataFilterModule</title>
<path fill="none" stroke="#000000" d="M1449,-122.2819C1449,-137.9478 1449,-158 1449,-158 1449,-158 1902.6394,-158 1902.6394,-158"/>
<polygon fill="#000000" stroke="#000000" points="1902.6394,-161.5001 1912.6394,-158 1902.6394,-154.5001 1902.6394,-161.5001"/>
</g>
<!-- DashboardMenuComponent -->
<g id="node14" class="node">
<title>DashboardMenuComponent</title>
<polygon fill="#ffffb3" stroke="#000000" points="1343.133,-122 1168.867,-122 1168.867,-86 1343.133,-86 1343.133,-122"/>
<text text-anchor="middle" x="1256" y="-99.8" font-family="Times,serif" font-size="14.00" fill="#000000">DashboardMenuComponent</text>
</g>
<!-- DashboardMenuComponent&#45;&gt;DataFilterModule -->
<g id="edge14" class="edge">
<title>DashboardMenuComponent&#45;&gt;DataFilterModule</title>
<path fill="none" stroke="#000000" d="M1256,-122.0352C1256,-138.7344 1256,-161 1256,-161 1256,-161 1902.7917,-161 1902.7917,-161"/>
<polygon fill="#000000" stroke="#000000" points="1902.7917,-164.5001 1912.7917,-161 1902.7917,-157.5001 1902.7917,-164.5001"/>
</g>
<!-- DashboardMenuItemComponent -->
<g id="node15" class="node">
<title>DashboardMenuItemComponent</title>
<polygon fill="#ffffb3" stroke="#000000" points="1151.2892,-122 950.7108,-122 950.7108,-86 1151.2892,-86 1151.2892,-122"/>
<text text-anchor="middle" x="1051" y="-99.8" font-family="Times,serif" font-size="14.00" fill="#000000">DashboardMenuItemComponent</text>
</g>
<!-- DashboardMenuItemComponent&#45;&gt;DataFilterModule -->
<g id="edge15" class="edge">
<title>DashboardMenuItemComponent&#45;&gt;DataFilterModule</title>
<path fill="none" stroke="#000000" d="M1051,-122.302C1051,-140.2699 1051,-165 1051,-165 1051,-165 1902.7519,-165 1902.7519,-165"/>
<polygon fill="#000000" stroke="#000000" points="1902.752,-168.5001 1912.7519,-165 1902.7519,-161.5001 1902.752,-168.5001"/>
</g>
<!-- DashboardProgressComponent -->
<g id="node16" class="node">
<title>DashboardProgressComponent</title>
<polygon fill="#ffffb3" stroke="#000000" points="933.1811,-122 742.8189,-122 742.8189,-86 933.1811,-86 933.1811,-122"/>
<text text-anchor="middle" x="838" y="-99.8" font-family="Times,serif" font-size="14.00" fill="#000000">DashboardProgressComponent</text>
</g>
<!-- DashboardProgressComponent&#45;&gt;DataFilterModule -->
<g id="edge16" class="edge">
<title>DashboardProgressComponent&#45;&gt;DataFilterModule</title>
<path fill="none" stroke="#000000" d="M838,-122.1686C838,-141.0898 838,-168 838,-168 838,-168 1902.4708,-168 1902.4708,-168"/>
<polygon fill="#000000" stroke="#000000" points="1902.4709,-171.5001 1912.4708,-168 1902.4708,-164.5001 1902.4709,-171.5001"/>
</g>
<!-- DefaultDashboardListComponent -->
<g id="node17" class="node">
<title>DefaultDashboardListComponent</title>
<polygon fill="#ffffb3" stroke="#000000" points="724.7296,-122 519.2704,-122 519.2704,-86 724.7296,-86 724.7296,-122"/>
<text text-anchor="middle" x="622" y="-99.8" font-family="Times,serif" font-size="14.00" fill="#000000">DefaultDashboardListComponent</text>
</g>
<!-- DefaultDashboardListComponent&#45;&gt;DataFilterModule -->
<g id="edge17" class="edge">
<title>DefaultDashboardListComponent&#45;&gt;DataFilterModule</title>
<path fill="none" stroke="#000000" d="M622,-122.308C622,-142.1455 622,-171 622,-171 622,-171 1902.6022,-171 1902.6022,-171"/>
<polygon fill="#000000" stroke="#000000" points="1902.6022,-174.5001 1912.6022,-171 1902.6021,-167.5001 1902.6022,-174.5001"/>
</g>
<!-- FilterByNamePipe -->
<g id="node18" class="node">
<title>FilterByNamePipe</title>
<polygon fill="#ffffb3" stroke="#000000" points="501.4804,-122 380.5196,-122 380.5196,-86 501.4804,-86 501.4804,-122"/>
<text text-anchor="middle" x="441" y="-99.8" font-family="Times,serif" font-size="14.00" fill="#000000">FilterByNamePipe</text>
</g>
<!-- FilterByNamePipe&#45;&gt;DataFilterModule -->
<g id="edge18" class="edge">
<title>FilterByNamePipe&#45;&gt;DataFilterModule</title>
<path fill="none" stroke="#000000" d="M441,-122.0267C441,-142.7672 441,-174 441,-174 441,-174 1902.4259,-174 1902.4259,-174"/>
<polygon fill="#000000" stroke="#000000" points="1902.4259,-177.5001 1912.4259,-174 1902.4259,-170.5001 1902.4259,-177.5001"/>
</g>
<!-- InterventionFormComponent -->
<g id="node19" class="node">
<title>InterventionFormComponent</title>
<polygon fill="#ffffb3" stroke="#000000" points="362.0884,-122 181.9116,-122 181.9116,-86 362.0884,-86 362.0884,-122"/>
<text text-anchor="middle" x="272" y="-99.8" font-family="Times,serif" font-size="14.00" fill="#000000">InterventionFormComponent</text>
</g>
<!-- InterventionFormComponent&#45;&gt;DataFilterModule -->
<g id="edge19" class="edge">
<title>InterventionFormComponent&#45;&gt;DataFilterModule</title>
<path fill="none" stroke="#000000" d="M272,-122.2921C272,-144.2057 272,-178 272,-178 272,-178 1902.5166,-178 1902.5166,-178"/>
<polygon fill="#000000" stroke="#000000" points="1902.5166,-181.5001 1912.5166,-178 1902.5165,-174.5001 1902.5166,-181.5001"/>
</g>
<!-- SortByBookmarkPipe -->
<g id="node20" class="node">
<title>SortByBookmarkPipe</title>
<polygon fill="#ffffb3" stroke="#000000" points="163.661,-122 24.339,-122 24.339,-86 163.661,-86 163.661,-122"/>
<text text-anchor="middle" x="94" y="-99.8" font-family="Times,serif" font-size="14.00" fill="#000000">SortByBookmarkPipe</text>
</g>
<!-- SortByBookmarkPipe&#45;&gt;DataFilterModule -->
<g id="edge20" class="edge">
<title>SortByBookmarkPipe&#45;&gt;DataFilterModule</title>
<path fill="none" stroke="#000000" d="M94,-122.2479C94,-145.0179 94,-181 94,-181 94,-181 1902.7669,-181 1902.7669,-181"/>
<polygon fill="#000000" stroke="#000000" points="1902.7669,-184.5001 1912.7669,-181 1902.7668,-177.5001 1902.7669,-184.5001"/>
</g>
<!-- CurrentDashboardComponent  -->
<g id="node22" class="node">
<title>CurrentDashboardComponent </title>
<polygon fill="#fb8072" stroke="#000000" points="2420.2365,-252 2231.7635,-252 2231.7635,-216 2420.2365,-216 2420.2365,-252"/>
<text text-anchor="middle" x="2326" y="-229.8" font-family="Times,serif" font-size="14.00" fill="#000000">CurrentDashboardComponent </text>
</g>
<!-- DataFilterModule&#45;&gt;CurrentDashboardComponent  -->
<g id="edge21" class="edge">
<title>DataFilterModule&#45;&gt;CurrentDashboardComponent </title>
<path fill="none" stroke="#000000" stroke-dasharray="5,2" d="M2029.2235,-184C2129.936,-184 2326,-184 2326,-184 2326,-184 2326,-205.9489 2326,-205.9489"/>
<polygon fill="#000000" stroke="#000000" points="2322.5001,-205.9488 2326,-215.9489 2329.5001,-205.9489 2322.5001,-205.9488"/>
</g>
<!-- CurrentDashboardVisualizationComponent  -->
<g id="node23" class="node">
<title>CurrentDashboardVisualizationComponent </title>
<polygon fill="#fb8072" stroke="#000000" points="2213.3844,-252 1950.6156,-252 1950.6156,-216 2213.3844,-216 2213.3844,-252"/>
<text text-anchor="middle" x="2082" y="-229.8" font-family="Times,serif" font-size="14.00" fill="#000000">CurrentDashboardVisualizationComponent </text>
</g>
<!-- DataFilterModule&#45;&gt;CurrentDashboardVisualizationComponent  -->
<g id="edge22" class="edge">
<title>DataFilterModule&#45;&gt;CurrentDashboardVisualizationComponent </title>
<path fill="none" stroke="#000000" stroke-dasharray="5,2" d="M1989.8554,-187.1061C1989.8554,-187.1061 1989.8554,-205.991 1989.8554,-205.991"/>
<polygon fill="#000000" stroke="#000000" points="1986.3554,-205.9909 1989.8554,-215.991 1993.3554,-205.991 1986.3554,-205.9909"/>
</g>
<!-- DashboardComponent  -->
<g id="node24" class="node">
<title>DashboardComponent </title>
<polygon fill="#fb8072" stroke="#000000" points="1932.9742,-252 1787.0258,-252 1787.0258,-216 1932.9742,-216 1932.9742,-252"/>
<text text-anchor="middle" x="1860" y="-229.8" font-family="Times,serif" font-size="14.00" fill="#000000">DashboardComponent </text>
</g>
<!-- DataFilterModule&#45;&gt;DashboardComponent  -->
<g id="edge23" class="edge">
<title>DataFilterModule&#45;&gt;DashboardComponent </title>
<path fill="none" stroke="#000000" stroke-dasharray="5,2" d="M1922.7919,-187.1061C1922.7919,-187.1061 1922.7919,-205.991 1922.7919,-205.991"/>
<polygon fill="#000000" stroke="#000000" points="1919.292,-205.9909 1922.7919,-215.991 1926.292,-205.991 1919.292,-205.9909"/>
</g>
<!-- DashboardHomeComponent  -->
<g id="node25" class="node">
<title>DashboardHomeComponent </title>
<polygon fill="#fb8072" stroke="#000000" points="1768.6855,-252 1589.3145,-252 1589.3145,-216 1768.6855,-216 1768.6855,-252"/>
<text text-anchor="middle" x="1679" y="-229.8" font-family="Times,serif" font-size="14.00" fill="#000000">DashboardHomeComponent </text>
</g>
<!-- DataFilterModule&#45;&gt;DashboardHomeComponent  -->
<g id="edge24" class="edge">
<title>DataFilterModule&#45;&gt;DashboardHomeComponent </title>
<path fill="none" stroke="#000000" stroke-dasharray="5,2" d="M1912.6403,-184C1844.8156,-184 1742.0752,-184 1742.0752,-184 1742.0752,-184 1742.0752,-205.9489 1742.0752,-205.9489"/>
<polygon fill="#000000" stroke="#000000" points="1738.5753,-205.9488 1742.0752,-215.9489 1745.5753,-205.9489 1738.5753,-205.9488"/>
</g>
</g>
</svg>
