<?xml version="1.0" encoding="UTF-8" standalone="no"?>
<!DOCTYPE svg PUBLIC "-//W3C//DTD SVG 1.1//EN"
 "http://www.w3.org/Graphics/SVG/1.1/DTD/svg11.dtd">
<!-- Generated by graphviz version 2.40.1 (20161225.0304)
 -->
<!-- Title: dependencies Pages: 1 -->
<svg width="504pt" height="284pt"
 viewBox="0.00 0.00 504.00 284.00" xmlns="http://www.w3.org/2000/svg" xmlns:xlink="http://www.w3.org/1999/xlink">
<g id="graph0" class="graph" transform="scale(1 1) rotate(0) translate(4 280)">
<title>dependencies</title>
<polygon fill="#ffffff" stroke="transparent" points="-4,4 -4,-280 500,-280 500,4 -4,4"/>
<text text-anchor="start" x="227.0091" y="-42.4" font-family="sans-serif" font-weight="bold" font-size="14.00" fill="#000000">Legend</text>
<polygon fill="#ffffb3" stroke="transparent" points="14,-10 14,-30 34,-30 34,-10 14,-10"/>
<text text-anchor="start" x="37.629" y="-15.4" font-family="sans-serif" font-size="14.00" fill="#000000"> &#160;Declarations</text>
<polygon fill="#8dd3c7" stroke="transparent" points="127,-10 127,-30 147,-30 147,-10 127,-10"/>
<text text-anchor="start" x="150.7251" y="-15.4" font-family="sans-serif" font-size="14.00" fill="#000000"> &#160;Module</text>
<polygon fill="#80b1d3" stroke="transparent" points="213,-10 213,-30 233,-30 233,-10 213,-10"/>
<text text-anchor="start" x="236.7812" y="-15.4" font-family="sans-serif" font-size="14.00" fill="#000000"> &#160;Bootstrap</text>
<polygon fill="#fdb462" stroke="transparent" points="310,-10 310,-30 330,-30 330,-10 310,-10"/>
<text text-anchor="start" x="333.6732" y="-15.4" font-family="sans-serif" font-size="14.00" fill="#000000"> &#160;Providers</text>
<polygon fill="#fb8072" stroke="transparent" points="406,-10 406,-30 426,-30 426,-10 406,-10"/>
<text text-anchor="start" x="429.7258" y="-15.4" font-family="sans-serif" font-size="14.00" fill="#000000"> &#160;Exports</text>
<g id="clust1" class="cluster">
<title>cluster_UsersModule</title>
<polygon fill="none" stroke="#000000" stroke-dasharray="1,5" points="136,-70 136,-268 360,-268 360,-70 136,-70"/>
</g>
<g id="clust2" class="cluster">
<title>cluster_UsersModule_declarations</title>
<polygon fill="none" stroke="#000000" points="282,-78 282,-130 352,-130 352,-78 282,-78"/>
</g>
<g id="clust4" class="cluster">
<title>cluster_UsersModule_imports</title>
<polygon fill="none" stroke="#000000" points="144,-78 144,-130 274,-130 274,-78 144,-78"/>
</g>
<g id="clust5" class="cluster">
<title>cluster_UsersModule_exports</title>
<polygon fill="none" stroke="#000000" points="222,-208 222,-260 292,-260 292,-208 222,-208"/>
</g>
<!-- .... -->
<g id="node1" class="node">
<title>....</title>
<polygon fill="#ffffb3" stroke="#000000" points="344,-122 290,-122 290,-86 344,-86 344,-122"/>
<text text-anchor="middle" x="317" y="-99.8" font-family="Times,serif" font-size="14.00" fill="#000000">....</text>
</g>
<!-- UsersModule -->
<g id="node2" class="node">
<title>UsersModule</title>
<polygon fill="#8dd3c7" stroke="#000000" points="302.9218,-187 299.9218,-191 278.9218,-191 275.9218,-187 211.0782,-187 211.0782,-151 302.9218,-151 302.9218,-187"/>
<text text-anchor="middle" x="257" y="-164.8" font-family="Times,serif" font-size="14.00" fill="#000000">UsersModule</text>
</g>
<!-- ....&#45;&gt;UsersModule -->
<g id="edge1" class="edge">
<title>....&#45;&gt;UsersModule</title>
<path fill="none" stroke="#000000" d="M296.3552,-122.1061C296.3552,-122.1061 296.3552,-140.991 296.3552,-140.991"/>
<polygon fill="#000000" stroke="#000000" points="292.8553,-140.9909 296.3552,-150.991 299.8553,-140.991 292.8553,-140.9909"/>
</g>
<!-- ....  -->
<g id="node4" class="node">
<title>.... </title>
<polygon fill="#fb8072" stroke="#000000" points="284,-252 230,-252 230,-216 284,-216 284,-252"/>
<text text-anchor="middle" x="257" y="-229.8" font-family="Times,serif" font-size="14.00" fill="#000000">.... </text>
</g>
<!-- UsersModule&#45;&gt;....  -->
<g id="edge3" class="edge">
<title>UsersModule&#45;&gt;.... </title>
<path fill="none" stroke="#000000" stroke-dasharray="5,2" d="M257,-187.1061C257,-187.1061 257,-205.991 257,-205.991"/>
<polygon fill="#000000" stroke="#000000" points="253.5001,-205.9909 257,-215.991 260.5001,-205.991 253.5001,-205.9909"/>
</g>
<!-- ListTableModule -->
<g id="node3" class="node">
<title>ListTableModule</title>
<polygon fill="#8dd3c7" stroke="#000000" points="265.7008,-122 262.7008,-126 241.7008,-126 238.7008,-122 152.2992,-122 152.2992,-86 265.7008,-86 265.7008,-122"/>
<text text-anchor="middle" x="209" y="-99.8" font-family="Times,serif" font-size="14.00" fill="#000000">ListTableModule</text>
</g>
<!-- ListTableModule&#45;&gt;UsersModule -->
<g id="edge2" class="edge">
<title>ListTableModule&#45;&gt;UsersModule</title>
<path fill="none" stroke="#000000" d="M238.445,-122.1061C238.445,-122.1061 238.445,-140.991 238.445,-140.991"/>
<polygon fill="#000000" stroke="#000000" points="234.945,-140.9909 238.445,-150.991 241.945,-140.991 234.945,-140.9909"/>
</g>
</g>
</svg>
