<?xml version="1.0" encoding="UTF-8" standalone="no"?>
<!DOCTYPE svg PUBLIC "-//W3C//DTD SVG 1.1//EN"
 "http://www.w3.org/Graphics/SVG/1.1/DTD/svg11.dtd">
<!-- Generated by graphviz version 2.40.1 (20161225.0304)
 -->
<!-- Title: dependencies Pages: 1 -->
<svg width="504pt" height="284pt"
 viewBox="0.00 0.00 504.00 284.00" xmlns="http://www.w3.org/2000/svg" xmlns:xlink="http://www.w3.org/1999/xlink">
<g id="graph0" class="graph" transform="scale(1 1) rotate(0) translate(4 280)">
<title>dependencies</title>
<polygon fill="#ffffff" stroke="transparent" points="-4,4 -4,-280 500,-280 500,4 -4,4"/>
<text text-anchor="start" x="227.0091" y="-42.4" font-family="sans-serif" font-weight="bold" font-size="14.00" fill="#000000">Legend</text>
<polygon fill="#ffffb3" stroke="transparent" points="14,-10 14,-30 34,-30 34,-10 14,-10"/>
<text text-anchor="start" x="37.629" y="-15.4" font-family="sans-serif" font-size="14.00" fill="#000000"> &#160;Declarations</text>
<polygon fill="#8dd3c7" stroke="transparent" points="127,-10 127,-30 147,-30 147,-10 127,-10"/>
<text text-anchor="start" x="150.7251" y="-15.4" font-family="sans-serif" font-size="14.00" fill="#000000"> &#160;Module</text>
<polygon fill="#80b1d3" stroke="transparent" points="213,-10 213,-30 233,-30 233,-10 213,-10"/>
<text text-anchor="start" x="236.7812" y="-15.4" font-family="sans-serif" font-size="14.00" fill="#000000"> &#160;Bootstrap</text>
<polygon fill="#fdb462" stroke="transparent" points="310,-10 310,-30 330,-30 330,-10 310,-10"/>
<text text-anchor="start" x="333.6732" y="-15.4" font-family="sans-serif" font-size="14.00" fill="#000000"> &#160;Providers</text>
<polygon fill="#fb8072" stroke="transparent" points="406,-10 406,-30 426,-30 426,-10 406,-10"/>
<text text-anchor="start" x="429.7258" y="-15.4" font-family="sans-serif" font-size="14.00" fill="#000000"> &#160;Exports</text>
<g id="clust1" class="cluster">
<title>cluster_FeedbackMessageModule</title>
<polygon fill="none" stroke="#000000" stroke-dasharray="1,5" points="159,-70 159,-268 337,-268 337,-70 159,-70"/>
</g>
<g id="clust2" class="cluster">
<title>cluster_FeedbackMessageModule_declarations</title>
<polygon fill="none" stroke="#000000" points="213,-78 213,-130 283,-130 283,-78 213,-78"/>
</g>
<g id="clust5" class="cluster">
<title>cluster_FeedbackMessageModule_exports</title>
<polygon fill="none" stroke="#000000" points="213,-208 213,-260 283,-260 283,-208 213,-208"/>
</g>
<!-- .... -->
<g id="node1" class="node">
<title>....</title>
<polygon fill="#ffffb3" stroke="#000000" points="275,-122 221,-122 221,-86 275,-86 275,-122"/>
<text text-anchor="middle" x="248" y="-99.8" font-family="Times,serif" font-size="14.00" fill="#000000">....</text>
</g>
<!-- FeedbackMessageModule -->
<g id="node2" class="node">
<title>FeedbackMessageModule</title>
<polygon fill="#8dd3c7" stroke="#000000" points="329.1685,-187 326.1685,-191 305.1685,-191 302.1685,-187 166.8315,-187 166.8315,-151 329.1685,-151 329.1685,-187"/>
<text text-anchor="middle" x="248" y="-164.8" font-family="Times,serif" font-size="14.00" fill="#000000">FeedbackMessageModule</text>
</g>
<!-- ....&#45;&gt;FeedbackMessageModule -->
<g id="edge1" class="edge">
<title>....&#45;&gt;FeedbackMessageModule</title>
<path fill="none" stroke="#000000" d="M234.5,-122.1061C234.5,-122.1061 234.5,-140.991 234.5,-140.991"/>
<polygon fill="#000000" stroke="#000000" points="231.0001,-140.9909 234.5,-150.991 238.0001,-140.991 231.0001,-140.9909"/>
</g>
<!-- ....&#45;&gt;FeedbackMessageModule -->
<g id="edge2" class="edge">
<title>....&#45;&gt;FeedbackMessageModule</title>
<path fill="none" stroke="#000000" d="M248,-122.1061C248,-122.1061 248,-140.991 248,-140.991"/>
<polygon fill="#000000" stroke="#000000" points="244.5001,-140.9909 248,-150.991 251.5001,-140.991 244.5001,-140.9909"/>
</g>
<!-- ....&#45;&gt;FeedbackMessageModule -->
<g id="edge3" class="edge">
<title>....&#45;&gt;FeedbackMessageModule</title>
<path fill="none" stroke="#000000" d="M261.5,-122.1061C261.5,-122.1061 261.5,-140.991 261.5,-140.991"/>
<polygon fill="#000000" stroke="#000000" points="258.0001,-140.9909 261.5,-150.991 265.0001,-140.991 258.0001,-140.9909"/>
</g>
<!-- ....  -->
<g id="node3" class="node">
<title>.... </title>
<polygon fill="#fb8072" stroke="#000000" points="275,-252 221,-252 221,-216 275,-216 275,-252"/>
<text text-anchor="middle" x="248" y="-229.8" font-family="Times,serif" font-size="14.00" fill="#000000">.... </text>
</g>
<!-- FeedbackMessageModule&#45;&gt;....  -->
<g id="edge4" class="edge">
<title>FeedbackMessageModule&#45;&gt;.... </title>
<path fill="none" stroke="#000000" stroke-dasharray="5,2" d="M248,-187.1061C248,-187.1061 248,-205.991 248,-205.991"/>
<polygon fill="#000000" stroke="#000000" points="244.5001,-205.9909 248,-215.991 251.5001,-205.991 244.5001,-205.9909"/>
</g>
</g>
</svg>
