<?xml version="1.0" encoding="UTF-8" standalone="no"?>
<!DOCTYPE svg PUBLIC "-//W3C//DTD SVG 1.1//EN"
 "http://www.w3.org/Graphics/SVG/1.1/DTD/svg11.dtd">
<!-- Generated by graphviz version 2.40.1 (20161225.0304)
 -->
<!-- Title: dependencies Pages: 1 -->
<svg width="504pt" height="284pt"
 viewBox="0.00 0.00 504.00 284.00" xmlns="http://www.w3.org/2000/svg" xmlns:xlink="http://www.w3.org/1999/xlink">
<g id="graph0" class="graph" transform="scale(1 1) rotate(0) translate(4 280)">
<title>dependencies</title>
<polygon fill="#ffffff" stroke="transparent" points="-4,4 -4,-280 500,-280 500,4 -4,4"/>
<text text-anchor="start" x="227.0091" y="-42.4" font-family="sans-serif" font-weight="bold" font-size="14.00" fill="#000000">Legend</text>
<polygon fill="#ffffb3" stroke="transparent" points="14,-10 14,-30 34,-30 34,-10 14,-10"/>
<text text-anchor="start" x="37.629" y="-15.4" font-family="sans-serif" font-size="14.00" fill="#000000"> &#160;Declarations</text>
<polygon fill="#8dd3c7" stroke="transparent" points="127,-10 127,-30 147,-30 147,-10 127,-10"/>
<text text-anchor="start" x="150.7251" y="-15.4" font-family="sans-serif" font-size="14.00" fill="#000000"> &#160;Module</text>
<polygon fill="#80b1d3" stroke="transparent" points="213,-10 213,-30 233,-30 233,-10 213,-10"/>
<text text-anchor="start" x="236.7812" y="-15.4" font-family="sans-serif" font-size="14.00" fill="#000000"> &#160;Bootstrap</text>
<polygon fill="#fdb462" stroke="transparent" points="310,-10 310,-30 330,-30 330,-10 310,-10"/>
<text text-anchor="start" x="333.6732" y="-15.4" font-family="sans-serif" font-size="14.00" fill="#000000"> &#160;Providers</text>
<polygon fill="#fb8072" stroke="transparent" points="406,-10 406,-30 426,-30 426,-10 406,-10"/>
<text text-anchor="start" x="429.7258" y="-15.4" font-family="sans-serif" font-size="14.00" fill="#000000"> &#160;Exports</text>
<g id="clust1" class="cluster">
<title>cluster_ReportsModule</title>
<polygon fill="none" stroke="#000000" stroke-dasharray="1,5" points="136,-70 136,-268 360,-268 360,-70 136,-70"/>
</g>
<g id="clust2" class="cluster">
<title>cluster_ReportsModule_declarations</title>
<polygon fill="none" stroke="#000000" points="282,-78 282,-130 352,-130 352,-78 282,-78"/>
</g>
<g id="clust4" class="cluster">
<title>cluster_ReportsModule_imports</title>
<polygon fill="none" stroke="#000000" points="144,-78 144,-130 274,-130 274,-78 144,-78"/>
</g>
<g id="clust5" class="cluster">
<title>cluster_ReportsModule_exports</title>
<polygon fill="none" stroke="#000000" points="219,-208 219,-260 289,-260 289,-208 219,-208"/>
</g>
<!-- .... -->
<g id="node1" class="node">
<title>....</title>
<polygon fill="#ffffb3" stroke="#000000" points="344,-122 290,-122 290,-86 344,-86 344,-122"/>
<text text-anchor="middle" x="317" y="-99.8" font-family="Times,serif" font-size="14.00" fill="#000000">....</text>
</g>
<!-- ReportsModule -->
<g id="node2" class="node">
<title>ReportsModule</title>
<polygon fill="#8dd3c7" stroke="#000000" points="305.5968,-187 302.5968,-191 281.5968,-191 278.5968,-187 202.4032,-187 202.4032,-151 305.5968,-151 305.5968,-187"/>
<text text-anchor="middle" x="254" y="-164.8" font-family="Times,serif" font-size="14.00" fill="#000000">ReportsModule</text>
</g>
<!-- ....&#45;&gt;ReportsModule -->
<g id="edge1" class="edge">
<title>....&#45;&gt;ReportsModule</title>
<path fill="none" stroke="#000000" d="M297.7742,-122.1061C297.7742,-122.1061 297.7742,-140.991 297.7742,-140.991"/>
<polygon fill="#000000" stroke="#000000" points="294.2743,-140.9909 297.7742,-150.991 301.2743,-140.991 294.2743,-140.9909"/>
</g>
<!-- ....  -->
<g id="node4" class="node">
<title>.... </title>
<polygon fill="#fb8072" stroke="#000000" points="281,-252 227,-252 227,-216 281,-216 281,-252"/>
<text text-anchor="middle" x="254" y="-229.8" font-family="Times,serif" font-size="14.00" fill="#000000">.... </text>
</g>
<!-- ReportsModule&#45;&gt;....  -->
<g id="edge3" class="edge">
<title>ReportsModule&#45;&gt;.... </title>
<path fill="none" stroke="#000000" stroke-dasharray="5,2" d="M254,-187.1061C254,-187.1061 254,-205.991 254,-205.991"/>
<polygon fill="#000000" stroke="#000000" points="250.5001,-205.9909 254,-215.991 257.5001,-205.991 250.5001,-205.9909"/>
</g>
<!-- ListTableModule -->
<g id="node3" class="node">
<title>ListTableModule</title>
<polygon fill="#8dd3c7" stroke="#000000" points="265.7008,-122 262.7008,-126 241.7008,-126 238.7008,-122 152.2992,-122 152.2992,-86 265.7008,-86 265.7008,-122"/>
<text text-anchor="middle" x="209" y="-99.8" font-family="Times,serif" font-size="14.00" fill="#000000">ListTableModule</text>
</g>
<!-- ListTableModule&#45;&gt;ReportsModule -->
<g id="edge2" class="edge">
<title>ListTableModule&#45;&gt;ReportsModule</title>
<path fill="none" stroke="#000000" d="M234.026,-122.1061C234.026,-122.1061 234.026,-140.991 234.026,-140.991"/>
<polygon fill="#000000" stroke="#000000" points="230.526,-140.9909 234.026,-150.991 237.526,-140.991 230.526,-140.9909"/>
</g>
</g>
</svg>
