<?xml version="1.0" encoding="UTF-8" standalone="no"?>
<!DOCTYPE svg PUBLIC "-//W3C//DTD SVG 1.1//EN"
 "http://www.w3.org/Graphics/SVG/1.1/DTD/svg11.dtd">
<!-- Generated by graphviz version 2.40.1 (20161225.0304)
 -->
<!-- Title: dependencies Pages: 1 -->
<svg width="528pt" height="284pt"
 viewBox="0.00 0.00 528.00 284.00" xmlns="http://www.w3.org/2000/svg" xmlns:xlink="http://www.w3.org/1999/xlink">
<g id="graph0" class="graph" transform="scale(1 1) rotate(0) translate(4 280)">
<title>dependencies</title>
<polygon fill="#ffffff" stroke="transparent" points="-4,4 -4,-280 524,-280 524,4 -4,4"/>
<text text-anchor="start" x="239.0091" y="-42.4" font-family="sans-serif" font-weight="bold" font-size="14.00" fill="#000000">Legend</text>
<polygon fill="#ffffb3" stroke="transparent" points="26,-10 26,-30 46,-30 46,-10 26,-10"/>
<text text-anchor="start" x="49.629" y="-15.4" font-family="sans-serif" font-size="14.00" fill="#000000"> &#160;Declarations</text>
<polygon fill="#8dd3c7" stroke="transparent" points="139,-10 139,-30 159,-30 159,-10 139,-10"/>
<text text-anchor="start" x="162.7251" y="-15.4" font-family="sans-serif" font-size="14.00" fill="#000000"> &#160;Module</text>
<polygon fill="#80b1d3" stroke="transparent" points="225,-10 225,-30 245,-30 245,-10 225,-10"/>
<text text-anchor="start" x="248.7812" y="-15.4" font-family="sans-serif" font-size="14.00" fill="#000000"> &#160;Bootstrap</text>
<polygon fill="#fdb462" stroke="transparent" points="322,-10 322,-30 342,-30 342,-10 322,-10"/>
<text text-anchor="start" x="345.6732" y="-15.4" font-family="sans-serif" font-size="14.00" fill="#000000"> &#160;Providers</text>
<polygon fill="#fb8072" stroke="transparent" points="418,-10 418,-30 438,-30 438,-10 418,-10"/>
<text text-anchor="start" x="441.7258" y="-15.4" font-family="sans-serif" font-size="14.00" fill="#000000"> &#160;Exports</text>
<g id="clust1" class="cluster">
<title>cluster_NgxDhis2TableModule</title>
<polygon fill="none" stroke="#000000" stroke-dasharray="1,5" points="8,-70 8,-268 512,-268 512,-70 8,-70"/>
</g>
<g id="clust2" class="cluster">
<title>cluster_NgxDhis2TableModule_declarations</title>
<polygon fill="none" stroke="#000000" points="16,-78 16,-130 504,-130 504,-78 16,-78"/>
</g>
<g id="clust7" class="cluster">
<title>cluster_NgxDhis2TableModule_exports</title>
<polygon fill="none" stroke="#000000" points="93,-208 93,-260 407,-260 407,-208 93,-208"/>
</g>
<!-- TableItemCellComponent -->
<g id="node1" class="node">
<title>TableItemCellComponent</title>
<polygon fill="#ffffb3" stroke="#000000" points="496.1937,-122 333.8063,-122 333.8063,-86 496.1937,-86 496.1937,-122"/>
<text text-anchor="middle" x="415" y="-99.8" font-family="Times,serif" font-size="14.00" fill="#000000">TableItemCellComponent</text>
</g>
<!-- NgxDhis2TableModule -->
<g id="node4" class="node">
<title>NgxDhis2TableModule</title>
<polygon fill="#8dd3c7" stroke="#000000" points="320.4706,-187 317.4706,-191 296.4706,-191 293.4706,-187 171.5294,-187 171.5294,-151 320.4706,-151 320.4706,-187"/>
<text text-anchor="middle" x="246" y="-164.8" font-family="Times,serif" font-size="14.00" fill="#000000">NgxDhis2TableModule</text>
</g>
<!-- TableItemCellComponent&#45;&gt;NgxDhis2TableModule -->
<g id="edge1" class="edge">
<title>TableItemCellComponent&#45;&gt;NgxDhis2TableModule</title>
<path fill="none" stroke="#000000" d="M366.5419,-122.1061C366.5419,-141.3391 366.5419,-169 366.5419,-169 366.5419,-169 330.6263,-169 330.6263,-169"/>
<polygon fill="#000000" stroke="#000000" points="330.6263,-165.5001 320.6263,-169 330.6263,-172.5001 330.6263,-165.5001"/>
</g>
<!-- TableItemComponent -->
<g id="node2" class="node">
<title>TableItemComponent</title>
<polygon fill="#ffffb3" stroke="#000000" points="315.3613,-122 176.6387,-122 176.6387,-86 315.3613,-86 315.3613,-122"/>
<text text-anchor="middle" x="246" y="-99.8" font-family="Times,serif" font-size="14.00" fill="#000000">TableItemComponent</text>
</g>
<!-- TableItemComponent&#45;&gt;NgxDhis2TableModule -->
<g id="edge2" class="edge">
<title>TableItemComponent&#45;&gt;NgxDhis2TableModule</title>
<path fill="none" stroke="#000000" d="M246,-122.1061C246,-122.1061 246,-140.991 246,-140.991"/>
<polygon fill="#000000" stroke="#000000" points="242.5001,-140.9909 246,-150.991 249.5001,-140.991 242.5001,-140.9909"/>
</g>
<!-- TableListComponent -->
<g id="node3" class="node">
<title>TableListComponent</title>
<polygon fill="#ffffb3" stroke="#000000" points="158.4832,-122 23.5168,-122 23.5168,-86 158.4832,-86 158.4832,-122"/>
<text text-anchor="middle" x="91" y="-99.8" font-family="Times,serif" font-size="14.00" fill="#000000">TableListComponent</text>
</g>
<!-- TableListComponent&#45;&gt;NgxDhis2TableModule -->
<g id="edge3" class="edge">
<title>TableListComponent&#45;&gt;NgxDhis2TableModule</title>
<path fill="none" stroke="#000000" d="M129.625,-122.1061C129.625,-141.3391 129.625,-169 129.625,-169 129.625,-169 161.3103,-169 161.3103,-169"/>
<polygon fill="#000000" stroke="#000000" points="161.3104,-172.5001 171.3103,-169 161.3103,-165.5001 161.3104,-172.5001"/>
</g>
<!-- TableItemComponent  -->
<g id="node5" class="node">
<title>TableItemComponent </title>
<polygon fill="#fb8072" stroke="#000000" points="399.3617,-252 256.6383,-252 256.6383,-216 399.3617,-216 399.3617,-252"/>
<text text-anchor="middle" x="328" y="-229.8" font-family="Times,serif" font-size="14.00" fill="#000000">TableItemComponent </text>
</g>
<!-- NgxDhis2TableModule&#45;&gt;TableItemComponent  -->
<g id="edge4" class="edge">
<title>NgxDhis2TableModule&#45;&gt;TableItemComponent </title>
<path fill="none" stroke="#000000" stroke-dasharray="5,2" d="M288.6523,-187.1061C288.6523,-187.1061 288.6523,-205.991 288.6523,-205.991"/>
<polygon fill="#000000" stroke="#000000" points="285.1524,-205.9909 288.6523,-215.991 292.1524,-205.991 285.1524,-205.9909"/>
</g>
<!-- TableListComponent  -->
<g id="node6" class="node">
<title>TableListComponent </title>
<polygon fill="#fb8072" stroke="#000000" points="239.484,-252 100.516,-252 100.516,-216 239.484,-216 239.484,-252"/>
<text text-anchor="middle" x="170" y="-229.8" font-family="Times,serif" font-size="14.00" fill="#000000">TableListComponent </text>
</g>
<!-- NgxDhis2TableModule&#45;&gt;TableListComponent  -->
<g id="edge5" class="edge">
<title>NgxDhis2TableModule&#45;&gt;TableListComponent </title>
<path fill="none" stroke="#000000" stroke-dasharray="5,2" d="M205.3782,-187.1061C205.3782,-187.1061 205.3782,-205.991 205.3782,-205.991"/>
<polygon fill="#000000" stroke="#000000" points="201.8782,-205.9909 205.3782,-215.991 208.8782,-205.991 201.8782,-205.9909"/>
</g>
</g>
</svg>
