<?xml version="1.0" encoding="UTF-8" standalone="no"?>
<!DOCTYPE svg PUBLIC "-//W3C//DTD SVG 1.1//EN"
 "http://www.w3.org/Graphics/SVG/1.1/DTD/svg11.dtd">
<!-- Generated by graphviz version 2.40.1 (20161225.0304)
 -->
<!-- Title: dependencies Pages: 1 -->
<svg width="504pt" height="284pt"
 viewBox="0.00 0.00 504.00 284.00" xmlns="http://www.w3.org/2000/svg" xmlns:xlink="http://www.w3.org/1999/xlink">
<g id="graph0" class="graph" transform="scale(1 1) rotate(0) translate(4 280)">
<title>dependencies</title>
<polygon fill="#ffffff" stroke="transparent" points="-4,4 -4,-280 500,-280 500,4 -4,4"/>
<text text-anchor="start" x="227.0091" y="-42.4" font-family="sans-serif" font-weight="bold" font-size="14.00" fill="#000000">Legend</text>
<polygon fill="#ffffb3" stroke="transparent" points="14,-10 14,-30 34,-30 34,-10 14,-10"/>
<text text-anchor="start" x="37.629" y="-15.4" font-family="sans-serif" font-size="14.00" fill="#000000"> &#160;Declarations</text>
<polygon fill="#8dd3c7" stroke="transparent" points="127,-10 127,-30 147,-30 147,-10 127,-10"/>
<text text-anchor="start" x="150.7251" y="-15.4" font-family="sans-serif" font-size="14.00" fill="#000000"> &#160;Module</text>
<polygon fill="#80b1d3" stroke="transparent" points="213,-10 213,-30 233,-30 233,-10 213,-10"/>
<text text-anchor="start" x="236.7812" y="-15.4" font-family="sans-serif" font-size="14.00" fill="#000000"> &#160;Bootstrap</text>
<polygon fill="#fdb462" stroke="transparent" points="310,-10 310,-30 330,-30 330,-10 310,-10"/>
<text text-anchor="start" x="333.6732" y="-15.4" font-family="sans-serif" font-size="14.00" fill="#000000"> &#160;Providers</text>
<polygon fill="#fb8072" stroke="transparent" points="406,-10 406,-30 426,-30 426,-10 406,-10"/>
<text text-anchor="start" x="429.7258" y="-15.4" font-family="sans-serif" font-size="14.00" fill="#000000"> &#160;Exports</text>
<g id="clust1" class="cluster">
<title>cluster_PeriodFilterModule</title>
<polygon fill="none" stroke="#000000" stroke-dasharray="1,5" points="81,-70 81,-268 415,-268 415,-70 81,-70"/>
</g>
<g id="clust2" class="cluster">
<title>cluster_PeriodFilterModule_declarations</title>
<polygon fill="none" stroke="#000000" points="243,-78 243,-130 407,-130 407,-78 243,-78"/>
</g>
<g id="clust5" class="cluster">
<title>cluster_PeriodFilterModule_exports</title>
<polygon fill="none" stroke="#000000" points="164,-208 164,-260 332,-260 332,-208 164,-208"/>
</g>
<g id="clust7" class="cluster">
<title>cluster_PeriodFilterModule_providers</title>
<polygon fill="none" stroke="#000000" points="89,-78 89,-130 235,-130 235,-78 89,-78"/>
</g>
<!-- PeriodFilterComponent -->
<g id="node1" class="node">
<title>PeriodFilterComponent</title>
<polygon fill="#ffffb3" stroke="#000000" points="399.2105,-122 250.7895,-122 250.7895,-86 399.2105,-86 399.2105,-122"/>
<text text-anchor="middle" x="325" y="-99.8" font-family="Times,serif" font-size="14.00" fill="#000000">PeriodFilterComponent</text>
</g>
<!-- PeriodFilterModule -->
<g id="node2" class="node">
<title>PeriodFilterModule</title>
<polygon fill="#8dd3c7" stroke="#000000" points="311.4285,-187 308.4285,-191 287.4285,-191 284.4285,-187 184.5715,-187 184.5715,-151 311.4285,-151 311.4285,-187"/>
<text text-anchor="middle" x="248" y="-164.8" font-family="Times,serif" font-size="14.00" fill="#000000">PeriodFilterModule</text>
</g>
<!-- PeriodFilterComponent&#45;&gt;PeriodFilterModule -->
<g id="edge1" class="edge">
<title>PeriodFilterComponent&#45;&gt;PeriodFilterModule</title>
<path fill="none" stroke="#000000" d="M281.0544,-122.1061C281.0544,-122.1061 281.0544,-140.991 281.0544,-140.991"/>
<polygon fill="#000000" stroke="#000000" points="277.5544,-140.9909 281.0544,-150.991 284.5544,-140.991 277.5544,-140.9909"/>
</g>
<!-- PeriodFilterComponent  -->
<g id="node3" class="node">
<title>PeriodFilterComponent </title>
<polygon fill="#fb8072" stroke="#000000" points="323.7107,-252 172.2893,-252 172.2893,-216 323.7107,-216 323.7107,-252"/>
<text text-anchor="middle" x="248" y="-229.8" font-family="Times,serif" font-size="14.00" fill="#000000">PeriodFilterComponent </text>
</g>
<!-- PeriodFilterModule&#45;&gt;PeriodFilterComponent  -->
<g id="edge2" class="edge">
<title>PeriodFilterModule&#45;&gt;PeriodFilterComponent </title>
<path fill="none" stroke="#000000" stroke-dasharray="5,2" d="M248,-187.1061C248,-187.1061 248,-205.991 248,-205.991"/>
<polygon fill="#000000" stroke="#000000" points="244.5001,-205.9909 248,-215.991 251.5001,-205.991 244.5001,-205.9909"/>
</g>
<!-- PeriodService -->
<g id="node4" class="node">
<title>PeriodService</title>
<ellipse fill="#fdb462" stroke="#000000" cx="162" cy="-104" rx="65.4053" ry="18"/>
<text text-anchor="middle" x="162" y="-99.8" font-family="Times,serif" font-size="14.00" fill="#000000">PeriodService</text>
</g>
<!-- PeriodService&#45;&gt;PeriodFilterModule -->
<g id="edge3" class="edge">
<title>PeriodService&#45;&gt;PeriodFilterModule</title>
<path fill="none" stroke="#000000" d="M205.9942,-117.468C205.9942,-117.468 205.9942,-140.8642 205.9942,-140.8642"/>
<polygon fill="#000000" stroke="#000000" points="202.4943,-140.8641 205.9942,-150.8642 209.4943,-140.8642 202.4943,-140.8641"/>
</g>
</g>
</svg>
