<?xml version="1.0" encoding="UTF-8" standalone="no"?>
<!DOCTYPE svg PUBLIC "-//W3C//DTD SVG 1.1//EN"
 "http://www.w3.org/Graphics/SVG/1.1/DTD/svg11.dtd">
<!-- Generated by graphviz version 2.40.1 (20161225.0304)
 -->
<!-- Title: dependencies Pages: 1 -->
<svg width="2169pt" height="284pt"
 viewBox="0.00 0.00 2169.00 284.00" xmlns="http://www.w3.org/2000/svg" xmlns:xlink="http://www.w3.org/1999/xlink">
<g id="graph0" class="graph" transform="scale(1 1) rotate(0) translate(4 280)">
<title>dependencies</title>
<polygon fill="#ffffff" stroke="transparent" points="-4,4 -4,-280 2165,-280 2165,4 -4,4"/>
<text text-anchor="start" x="1059.5091" y="-42.4" font-family="sans-serif" font-weight="bold" font-size="14.00" fill="#000000">Legend</text>
<polygon fill="#ffffb3" stroke="transparent" points="846.5,-10 846.5,-30 866.5,-30 866.5,-10 846.5,-10"/>
<text text-anchor="start" x="870.129" y="-15.4" font-family="sans-serif" font-size="14.00" fill="#000000"> &#160;Declarations</text>
<polygon fill="#8dd3c7" stroke="transparent" points="959.5,-10 959.5,-30 979.5,-30 979.5,-10 959.5,-10"/>
<text text-anchor="start" x="983.2251" y="-15.4" font-family="sans-serif" font-size="14.00" fill="#000000"> &#160;Module</text>
<polygon fill="#80b1d3" stroke="transparent" points="1045.5,-10 1045.5,-30 1065.5,-30 1065.5,-10 1045.5,-10"/>
<text text-anchor="start" x="1069.2812" y="-15.4" font-family="sans-serif" font-size="14.00" fill="#000000"> &#160;Bootstrap</text>
<polygon fill="#fdb462" stroke="transparent" points="1142.5,-10 1142.5,-30 1162.5,-30 1162.5,-10 1142.5,-10"/>
<text text-anchor="start" x="1166.1732" y="-15.4" font-family="sans-serif" font-size="14.00" fill="#000000"> &#160;Providers</text>
<polygon fill="#fb8072" stroke="transparent" points="1238.5,-10 1238.5,-30 1258.5,-30 1258.5,-10 1238.5,-10"/>
<text text-anchor="start" x="1262.2258" y="-15.4" font-family="sans-serif" font-size="14.00" fill="#000000"> &#160;Exports</text>
<g id="clust1" class="cluster">
<title>cluster_InterpretationModule</title>
<polygon fill="none" stroke="#000000" stroke-dasharray="1,5" points="8,-70 8,-268 2153,-268 2153,-70 8,-70"/>
</g>
<g id="clust2" class="cluster">
<title>cluster_InterpretationModule_declarations</title>
<polygon fill="none" stroke="#000000" points="226,-78 226,-130 2145,-130 2145,-78 226,-78"/>
</g>
<g id="clust15" class="cluster">
<title>cluster_InterpretationModule_exports</title>
<polygon fill="none" stroke="#000000" points="1038,-208 1038,-260 1236,-260 1236,-208 1038,-208"/>
</g>
<g id="clust17" class="cluster">
<title>cluster_InterpretationModule_providers</title>
<polygon fill="none" stroke="#000000" points="16,-78 16,-130 218,-130 218,-78 16,-78"/>
</g>
<!-- AbbreviatePipe -->
<g id="node1" class="node">
<title>AbbreviatePipe</title>
<polygon fill="#ffffb3" stroke="#000000" points="2136.58,-122 2033.42,-122 2033.42,-86 2136.58,-86 2136.58,-122"/>
<text text-anchor="middle" x="2085" y="-99.8" font-family="Times,serif" font-size="14.00" fill="#000000">AbbreviatePipe</text>
</g>
<!-- InterpretationModule -->
<g id="node12" class="node">
<title>InterpretationModule</title>
<polygon fill="#8dd3c7" stroke="#000000" points="1204.7381,-187 1201.7381,-191 1180.7381,-191 1177.7381,-187 1069.2619,-187 1069.2619,-151 1204.7381,-151 1204.7381,-187"/>
<text text-anchor="middle" x="1137" y="-164.8" font-family="Times,serif" font-size="14.00" fill="#000000">InterpretationModule</text>
</g>
<!-- AbbreviatePipe&#45;&gt;InterpretationModule -->
<g id="edge1" class="edge">
<title>AbbreviatePipe&#45;&gt;InterpretationModule</title>
<path fill="none" stroke="#000000" d="M2085,-122.2479C2085,-145.0179 2085,-181 2085,-181 2085,-181 1214.7974,-181 1214.7974,-181"/>
<polygon fill="#000000" stroke="#000000" points="1214.7974,-177.5001 1204.7974,-181 1214.7973,-184.5001 1214.7974,-177.5001"/>
</g>
<!-- AddCommentComponent -->
<g id="node2" class="node">
<title>AddCommentComponent</title>
<polygon fill="#ffffb3" stroke="#000000" points="2015.1624,-122 1854.8376,-122 1854.8376,-86 2015.1624,-86 2015.1624,-122"/>
<text text-anchor="middle" x="1935" y="-99.8" font-family="Times,serif" font-size="14.00" fill="#000000">AddCommentComponent</text>
</g>
<!-- AddCommentComponent&#45;&gt;InterpretationModule -->
<g id="edge2" class="edge">
<title>AddCommentComponent&#45;&gt;InterpretationModule</title>
<path fill="none" stroke="#000000" d="M1935,-122.2843C1935,-143.3211 1935,-175 1935,-175 1935,-175 1215.037,-175 1215.037,-175"/>
<polygon fill="#000000" stroke="#000000" points="1215.0371,-171.5001 1205.037,-175 1215.037,-178.5001 1215.0371,-171.5001"/>
</g>
<!-- AddInterpretationComponent -->
<g id="node3" class="node">
<title>AddInterpretationComponent</title>
<polygon fill="#ffffb3" stroke="#000000" points="1836.6274,-122 1655.3726,-122 1655.3726,-86 1836.6274,-86 1836.6274,-122"/>
<text text-anchor="middle" x="1746" y="-99.8" font-family="Times,serif" font-size="14.00" fill="#000000">AddInterpretationComponent</text>
</g>
<!-- AddInterpretationComponent&#45;&gt;InterpretationModule -->
<g id="edge3" class="edge">
<title>AddInterpretationComponent&#45;&gt;InterpretationModule</title>
<path fill="none" stroke="#000000" d="M1746,-122.1061C1746,-141.3391 1746,-169 1746,-169 1746,-169 1214.7937,-169 1214.7937,-169"/>
<polygon fill="#000000" stroke="#000000" points="1214.7937,-165.5001 1204.7937,-169 1214.7936,-172.5001 1214.7937,-165.5001"/>
</g>
<!-- AutosizeDirective -->
<g id="node4" class="node">
<title>AutosizeDirective</title>
<polygon fill="#ffffb3" stroke="#000000" points="1636.8445,-122 1519.1555,-122 1519.1555,-86 1636.8445,-86 1636.8445,-122"/>
<text text-anchor="middle" x="1578" y="-99.8" font-family="Times,serif" font-size="14.00" fill="#000000">AutosizeDirective</text>
</g>
<!-- AutosizeDirective&#45;&gt;InterpretationModule -->
<g id="edge4" class="edge">
<title>AutosizeDirective&#45;&gt;InterpretationModule</title>
<path fill="none" stroke="#000000" d="M1578,-122.0225C1578,-139.3734 1578,-163 1578,-163 1578,-163 1214.9398,-163 1214.9398,-163"/>
<polygon fill="#000000" stroke="#000000" points="1214.9398,-159.5001 1204.9398,-163 1214.9398,-166.5001 1214.9398,-159.5001"/>
</g>
<!-- DeleteCommentComponent -->
<g id="node5" class="node">
<title>DeleteCommentComponent</title>
<polygon fill="#ffffb3" stroke="#000000" points="1501.587,-122 1328.413,-122 1328.413,-86 1501.587,-86 1501.587,-122"/>
<text text-anchor="middle" x="1415" y="-99.8" font-family="Times,serif" font-size="14.00" fill="#000000">DeleteCommentComponent</text>
</g>
<!-- DeleteCommentComponent&#45;&gt;InterpretationModule -->
<g id="edge5" class="edge">
<title>DeleteCommentComponent&#45;&gt;InterpretationModule</title>
<path fill="none" stroke="#000000" d="M1415,-122.2396C1415,-137.5706 1415,-157 1415,-157 1415,-157 1215.0065,-157 1215.0065,-157"/>
<polygon fill="#000000" stroke="#000000" points="1215.0065,-153.5001 1205.0065,-157 1215.0064,-160.5001 1215.0065,-153.5001"/>
</g>
<!-- EditCommentComponent -->
<g id="node6" class="node">
<title>EditCommentComponent</title>
<polygon fill="#ffffb3" stroke="#000000" points="1310.8892,-122 1151.1108,-122 1151.1108,-86 1310.8892,-86 1310.8892,-122"/>
<text text-anchor="middle" x="1231" y="-99.8" font-family="Times,serif" font-size="14.00" fill="#000000">EditCommentComponent</text>
</g>
<!-- EditCommentComponent&#45;&gt;InterpretationModule -->
<g id="edge6" class="edge">
<title>EditCommentComponent&#45;&gt;InterpretationModule</title>
<path fill="none" stroke="#000000" d="M1177.9621,-122.1061C1177.9621,-122.1061 1177.9621,-140.991 1177.9621,-140.991"/>
<polygon fill="#000000" stroke="#000000" points="1174.4622,-140.9909 1177.9621,-150.991 1181.4622,-140.991 1174.4622,-140.9909"/>
</g>
<!-- EditInterpretationComponent -->
<g id="node7" class="node">
<title>EditInterpretationComponent</title>
<polygon fill="#ffffb3" stroke="#000000" points="1133.3543,-122 952.6457,-122 952.6457,-86 1133.3543,-86 1133.3543,-122"/>
<text text-anchor="middle" x="1043" y="-99.8" font-family="Times,serif" font-size="14.00" fill="#000000">EditInterpretationComponent</text>
</g>
<!-- EditInterpretationComponent&#45;&gt;InterpretationModule -->
<g id="edge7" class="edge">
<title>EditInterpretationComponent&#45;&gt;InterpretationModule</title>
<path fill="none" stroke="#000000" d="M1101.2791,-122.1061C1101.2791,-122.1061 1101.2791,-140.991 1101.2791,-140.991"/>
<polygon fill="#000000" stroke="#000000" points="1097.7792,-140.9909 1101.2791,-150.991 1104.7792,-140.991 1097.7792,-140.9909"/>
</g>
<!-- FilterPipe -->
<g id="node8" class="node">
<title>FilterPipe</title>
<polygon fill="#ffffb3" stroke="#000000" points="934.7177,-122 863.2823,-122 863.2823,-86 934.7177,-86 934.7177,-122"/>
<text text-anchor="middle" x="899" y="-99.8" font-family="Times,serif" font-size="14.00" fill="#000000">FilterPipe</text>
</g>
<!-- FilterPipe&#45;&gt;InterpretationModule -->
<g id="edge8" class="edge">
<title>FilterPipe&#45;&gt;InterpretationModule</title>
<path fill="none" stroke="#000000" d="M899,-122.2396C899,-137.5706 899,-157 899,-157 899,-157 1059.1173,-157 1059.1173,-157"/>
<polygon fill="#000000" stroke="#000000" points="1059.1173,-160.5001 1069.1173,-157 1059.1172,-153.5001 1059.1173,-160.5001"/>
</g>
<!-- InterpretationCommentComponent -->
<g id="node9" class="node">
<title>InterpretationCommentComponent</title>
<polygon fill="#ffffb3" stroke="#000000" points="845.2436,-122 632.7564,-122 632.7564,-86 845.2436,-86 845.2436,-122"/>
<text text-anchor="middle" x="739" y="-99.8" font-family="Times,serif" font-size="14.00" fill="#000000">InterpretationCommentComponent</text>
</g>
<!-- InterpretationCommentComponent&#45;&gt;InterpretationModule -->
<g id="edge9" class="edge">
<title>InterpretationCommentComponent&#45;&gt;InterpretationModule</title>
<path fill="none" stroke="#000000" d="M739,-122.0225C739,-139.3734 739,-163 739,-163 739,-163 1059.0336,-163 1059.0336,-163"/>
<polygon fill="#000000" stroke="#000000" points="1059.0336,-166.5001 1069.0336,-163 1059.0335,-159.5001 1059.0336,-166.5001"/>
</g>
<!-- InterpretationLikeComponent -->
<g id="node10" class="node">
<title>InterpretationLikeComponent</title>
<polygon fill="#ffffb3" stroke="#000000" points="614.6783,-122 431.3217,-122 431.3217,-86 614.6783,-86 614.6783,-122"/>
<text text-anchor="middle" x="523" y="-99.8" font-family="Times,serif" font-size="14.00" fill="#000000">InterpretationLikeComponent</text>
</g>
<!-- InterpretationLikeComponent&#45;&gt;InterpretationModule -->
<g id="edge10" class="edge">
<title>InterpretationLikeComponent&#45;&gt;InterpretationModule</title>
<path fill="none" stroke="#000000" d="M523,-122.1061C523,-141.3391 523,-169 523,-169 523,-169 1059.2403,-169 1059.2403,-169"/>
<polygon fill="#000000" stroke="#000000" points="1059.2404,-172.5001 1069.2403,-169 1059.2403,-165.5001 1059.2404,-172.5001"/>
</g>
<!-- InterpretationListComponent -->
<g id="node11" class="node">
<title>InterpretationListComponent</title>
<polygon fill="#ffffb3" stroke="#000000" points="413.799,-122 234.201,-122 234.201,-86 413.799,-86 413.799,-122"/>
<text text-anchor="middle" x="324" y="-99.8" font-family="Times,serif" font-size="14.00" fill="#000000">InterpretationListComponent</text>
</g>
<!-- InterpretationListComponent&#45;&gt;InterpretationModule -->
<g id="edge11" class="edge">
<title>InterpretationListComponent&#45;&gt;InterpretationModule</title>
<path fill="none" stroke="#000000" d="M324,-122.2843C324,-143.3211 324,-175 324,-175 324,-175 1059.0824,-175 1059.0824,-175"/>
<polygon fill="#000000" stroke="#000000" points="1059.0825,-178.5001 1069.0824,-175 1059.0824,-171.5001 1059.0825,-178.5001"/>
</g>
<!-- InterpretationListComponent  -->
<g id="node13" class="node">
<title>InterpretationListComponent </title>
<polygon fill="#fb8072" stroke="#000000" points="1228.2989,-252 1045.7011,-252 1045.7011,-216 1228.2989,-216 1228.2989,-252"/>
<text text-anchor="middle" x="1137" y="-229.8" font-family="Times,serif" font-size="14.00" fill="#000000">InterpretationListComponent </text>
</g>
<!-- InterpretationModule&#45;&gt;InterpretationListComponent  -->
<g id="edge12" class="edge">
<title>InterpretationModule&#45;&gt;InterpretationListComponent </title>
<path fill="none" stroke="#000000" stroke-dasharray="5,2" d="M1137,-187.1061C1137,-187.1061 1137,-205.991 1137,-205.991"/>
<polygon fill="#000000" stroke="#000000" points="1133.5001,-205.9909 1137,-215.991 1140.5001,-205.991 1133.5001,-205.9909"/>
</g>
<!-- InterpretationService -->
<g id="node14" class="node">
<title>InterpretationService</title>
<ellipse fill="#fdb462" stroke="#000000" cx="117" cy="-104" rx="92.59" ry="18"/>
<text text-anchor="middle" x="117" y="-99.8" font-family="Times,serif" font-size="14.00" fill="#000000">InterpretationService</text>
</g>
<!-- InterpretationService&#45;&gt;InterpretationModule -->
<g id="edge13" class="edge">
<title>InterpretationService&#45;&gt;InterpretationModule</title>
<path fill="none" stroke="#000000" d="M117,-122.2479C117,-145.0179 117,-181 117,-181 117,-181 1058.8886,-181 1058.8886,-181"/>
<polygon fill="#000000" stroke="#000000" points="1058.8886,-184.5001 1068.8886,-181 1058.8885,-177.5001 1058.8886,-184.5001"/>
</g>
</g>
</svg>
