<?xml version="1.0" encoding="UTF-8" standalone="no"?>
<!DOCTYPE svg PUBLIC "-//W3C//DTD SVG 1.1//EN"
 "http://www.w3.org/Graphics/SVG/1.1/DTD/svg11.dtd">
<!-- Generated by graphviz version 2.40.1 (20161225.0304)
 -->
<!-- Title: dependencies Pages: 1 -->
<svg width="504pt" height="284pt"
 viewBox="0.00 0.00 504.00 284.00" xmlns="http://www.w3.org/2000/svg" xmlns:xlink="http://www.w3.org/1999/xlink">
<g id="graph0" class="graph" transform="scale(1 1) rotate(0) translate(4 280)">
<title>dependencies</title>
<polygon fill="#ffffff" stroke="transparent" points="-4,4 -4,-280 500,-280 500,4 -4,4"/>
<text text-anchor="start" x="227.0091" y="-42.4" font-family="sans-serif" font-weight="bold" font-size="14.00" fill="#000000">Legend</text>
<polygon fill="#ffffb3" stroke="transparent" points="14,-10 14,-30 34,-30 34,-10 14,-10"/>
<text text-anchor="start" x="37.629" y="-15.4" font-family="sans-serif" font-size="14.00" fill="#000000"> &#160;Declarations</text>
<polygon fill="#8dd3c7" stroke="transparent" points="127,-10 127,-30 147,-30 147,-10 127,-10"/>
<text text-anchor="start" x="150.7251" y="-15.4" font-family="sans-serif" font-size="14.00" fill="#000000"> &#160;Module</text>
<polygon fill="#80b1d3" stroke="transparent" points="213,-10 213,-30 233,-30 233,-10 213,-10"/>
<text text-anchor="start" x="236.7812" y="-15.4" font-family="sans-serif" font-size="14.00" fill="#000000"> &#160;Bootstrap</text>
<polygon fill="#fdb462" stroke="transparent" points="310,-10 310,-30 330,-30 330,-10 310,-10"/>
<text text-anchor="start" x="333.6732" y="-15.4" font-family="sans-serif" font-size="14.00" fill="#000000"> &#160;Providers</text>
<polygon fill="#fb8072" stroke="transparent" points="406,-10 406,-30 426,-30 426,-10 406,-10"/>
<text text-anchor="start" x="429.7258" y="-15.4" font-family="sans-serif" font-size="14.00" fill="#000000"> &#160;Exports</text>
<g id="clust1" class="cluster">
<title>cluster_ResourcesModule</title>
<polygon fill="none" stroke="#000000" stroke-dasharray="1,5" points="136,-70 136,-268 360,-268 360,-70 136,-70"/>
</g>
<g id="clust2" class="cluster">
<title>cluster_ResourcesModule_declarations</title>
<polygon fill="none" stroke="#000000" points="282,-78 282,-130 352,-130 352,-78 282,-78"/>
</g>
<g id="clust4" class="cluster">
<title>cluster_ResourcesModule_imports</title>
<polygon fill="none" stroke="#000000" points="144,-78 144,-130 274,-130 274,-78 144,-78"/>
</g>
<g id="clust5" class="cluster">
<title>cluster_ResourcesModule_exports</title>
<polygon fill="none" stroke="#000000" points="216,-208 216,-260 286,-260 286,-208 216,-208"/>
</g>
<!-- .... -->
<g id="node1" class="node">
<title>....</title>
<polygon fill="#ffffb3" stroke="#000000" points="344,-122 290,-122 290,-86 344,-86 344,-122"/>
<text text-anchor="middle" x="317" y="-99.8" font-family="Times,serif" font-size="14.00" fill="#000000">....</text>
</g>
<!-- ResourcesModule -->
<g id="node2" class="node">
<title>ResourcesModule</title>
<polygon fill="#8dd3c7" stroke="#000000" points="309.58,-187 306.58,-191 285.58,-191 282.58,-187 192.42,-187 192.42,-151 309.58,-151 309.58,-187"/>
<text text-anchor="middle" x="251" y="-164.8" font-family="Times,serif" font-size="14.00" fill="#000000">ResourcesModule</text>
</g>
<!-- ....&#45;&gt;ResourcesModule -->
<g id="edge1" class="edge">
<title>....&#45;&gt;ResourcesModule</title>
<path fill="none" stroke="#000000" d="M299.77,-122.1061C299.77,-122.1061 299.77,-140.991 299.77,-140.991"/>
<polygon fill="#000000" stroke="#000000" points="296.2701,-140.9909 299.77,-150.991 303.2701,-140.991 296.2701,-140.9909"/>
</g>
<!-- ....  -->
<g id="node4" class="node">
<title>.... </title>
<polygon fill="#fb8072" stroke="#000000" points="278,-252 224,-252 224,-216 278,-216 278,-252"/>
<text text-anchor="middle" x="251" y="-229.8" font-family="Times,serif" font-size="14.00" fill="#000000">.... </text>
</g>
<!-- ResourcesModule&#45;&gt;....  -->
<g id="edge3" class="edge">
<title>ResourcesModule&#45;&gt;.... </title>
<path fill="none" stroke="#000000" stroke-dasharray="5,2" d="M251,-187.1061C251,-187.1061 251,-205.991 251,-205.991"/>
<polygon fill="#000000" stroke="#000000" points="247.5001,-205.9909 251,-215.991 254.5001,-205.991 247.5001,-205.9909"/>
</g>
<!-- ListTableModule -->
<g id="node3" class="node">
<title>ListTableModule</title>
<polygon fill="#8dd3c7" stroke="#000000" points="265.7008,-122 262.7008,-126 241.7008,-126 238.7008,-122 152.2992,-122 152.2992,-86 265.7008,-86 265.7008,-122"/>
<text text-anchor="middle" x="209" y="-99.8" font-family="Times,serif" font-size="14.00" fill="#000000">ListTableModule</text>
</g>
<!-- ListTableModule&#45;&gt;ResourcesModule -->
<g id="edge2" class="edge">
<title>ListTableModule&#45;&gt;ResourcesModule</title>
<path fill="none" stroke="#000000" d="M229.0302,-122.1061C229.0302,-122.1061 229.0302,-140.991 229.0302,-140.991"/>
<polygon fill="#000000" stroke="#000000" points="225.5302,-140.9909 229.0302,-150.991 232.5302,-140.991 225.5302,-140.9909"/>
</g>
</g>
</svg>
