<?xml version="1.0" encoding="UTF-8" standalone="no"?>
<!DOCTYPE svg PUBLIC "-//W3C//DTD SVG 1.1//EN"
 "http://www.w3.org/Graphics/SVG/1.1/DTD/svg11.dtd">
<!-- Generated by graphviz version 2.40.1 (20161225.0304)
 -->
<!-- Title: dependencies Pages: 1 -->
<svg width="826pt" height="284pt"
 viewBox="0.00 0.00 826.00 284.00" xmlns="http://www.w3.org/2000/svg" xmlns:xlink="http://www.w3.org/1999/xlink">
<g id="graph0" class="graph" transform="scale(1 1) rotate(0) translate(4 280)">
<title>dependencies</title>
<polygon fill="#ffffff" stroke="transparent" points="-4,4 -4,-280 822,-280 822,4 -4,4"/>
<text text-anchor="start" x="388.0091" y="-42.4" font-family="sans-serif" font-weight="bold" font-size="14.00" fill="#000000">Legend</text>
<polygon fill="#ffffb3" stroke="transparent" points="175,-10 175,-30 195,-30 195,-10 175,-10"/>
<text text-anchor="start" x="198.629" y="-15.4" font-family="sans-serif" font-size="14.00" fill="#000000"> &#160;Declarations</text>
<polygon fill="#8dd3c7" stroke="transparent" points="288,-10 288,-30 308,-30 308,-10 288,-10"/>
<text text-anchor="start" x="311.7251" y="-15.4" font-family="sans-serif" font-size="14.00" fill="#000000"> &#160;Module</text>
<polygon fill="#80b1d3" stroke="transparent" points="374,-10 374,-30 394,-30 394,-10 374,-10"/>
<text text-anchor="start" x="397.7812" y="-15.4" font-family="sans-serif" font-size="14.00" fill="#000000"> &#160;Bootstrap</text>
<polygon fill="#fdb462" stroke="transparent" points="471,-10 471,-30 491,-30 491,-10 471,-10"/>
<text text-anchor="start" x="494.6732" y="-15.4" font-family="sans-serif" font-size="14.00" fill="#000000"> &#160;Providers</text>
<polygon fill="#fb8072" stroke="transparent" points="567,-10 567,-30 587,-30 587,-10 567,-10"/>
<text text-anchor="start" x="590.7258" y="-15.4" font-family="sans-serif" font-size="14.00" fill="#000000"> &#160;Exports</text>
<g id="clust1" class="cluster">
<title>cluster_OrgUnitFilterModule</title>
<polygon fill="none" stroke="#000000" stroke-dasharray="1,5" points="8,-70 8,-268 810,-268 810,-70 8,-70"/>
</g>
<g id="clust2" class="cluster">
<title>cluster_OrgUnitFilterModule_declarations</title>
<polygon fill="none" stroke="#000000" points="184,-78 184,-130 802,-130 802,-78 184,-78"/>
</g>
<g id="clust8" class="cluster">
<title>cluster_OrgUnitFilterModule_exports</title>
<polygon fill="none" stroke="#000000" points="351,-208 351,-260 529,-260 529,-208 351,-208"/>
</g>
<g id="clust10" class="cluster">
<title>cluster_OrgUnitFilterModule_providers</title>
<polygon fill="none" stroke="#000000" points="16,-78 16,-130 176,-130 176,-78 16,-78"/>
</g>
<!-- ClickOutsideDirective -->
<g id="node1" class="node">
<title>ClickOutsideDirective</title>
<polygon fill="#ffffb3" stroke="#000000" points="793.9622,-122 652.0378,-122 652.0378,-86 793.9622,-86 793.9622,-122"/>
<text text-anchor="middle" x="723" y="-99.8" font-family="Times,serif" font-size="14.00" fill="#000000">ClickOutsideDirective</text>
</g>
<!-- OrgUnitFilterModule -->
<g id="node5" class="node">
<title>OrgUnitFilterModule</title>
<polygon fill="#8dd3c7" stroke="#000000" points="508.0352,-187 505.0352,-191 484.0352,-191 481.0352,-187 371.9648,-187 371.9648,-151 508.0352,-151 508.0352,-187"/>
<text text-anchor="middle" x="440" y="-164.8" font-family="Times,serif" font-size="14.00" fill="#000000">OrgUnitFilterModule</text>
</g>
<!-- ClickOutsideDirective&#45;&gt;OrgUnitFilterModule -->
<g id="edge1" class="edge">
<title>ClickOutsideDirective&#45;&gt;OrgUnitFilterModule</title>
<path fill="none" stroke="#000000" d="M723,-122.2843C723,-143.3211 723,-175 723,-175 723,-175 518.1457,-175 518.1457,-175"/>
<polygon fill="#000000" stroke="#000000" points="518.1457,-171.5001 508.1457,-175 518.1457,-178.5001 518.1457,-171.5001"/>
</g>
<!-- FilterLevelPipe -->
<g id="node2" class="node">
<title>FilterLevelPipe</title>
<polygon fill="#ffffb3" stroke="#000000" points="633.5898,-122 530.4102,-122 530.4102,-86 633.5898,-86 633.5898,-122"/>
<text text-anchor="middle" x="582" y="-99.8" font-family="Times,serif" font-size="14.00" fill="#000000">FilterLevelPipe</text>
</g>
<!-- FilterLevelPipe&#45;&gt;OrgUnitFilterModule -->
<g id="edge2" class="edge">
<title>FilterLevelPipe&#45;&gt;OrgUnitFilterModule</title>
<path fill="none" stroke="#000000" d="M582,-122.0225C582,-139.3734 582,-163 582,-163 582,-163 518.0886,-163 518.0886,-163"/>
<polygon fill="#000000" stroke="#000000" points="518.0887,-159.5001 508.0886,-163 518.0886,-166.5001 518.0887,-159.5001"/>
</g>
<!-- MultiselectComponent -->
<g id="node3" class="node">
<title>MultiselectComponent</title>
<polygon fill="#ffffb3" stroke="#000000" points="512.3188,-122 367.6812,-122 367.6812,-86 512.3188,-86 512.3188,-122"/>
<text text-anchor="middle" x="440" y="-99.8" font-family="Times,serif" font-size="14.00" fill="#000000">MultiselectComponent</text>
</g>
<!-- MultiselectComponent&#45;&gt;OrgUnitFilterModule -->
<g id="edge3" class="edge">
<title>MultiselectComponent&#45;&gt;OrgUnitFilterModule</title>
<path fill="none" stroke="#000000" d="M440,-122.1061C440,-122.1061 440,-140.991 440,-140.991"/>
<polygon fill="#000000" stroke="#000000" points="436.5001,-140.9909 440,-150.991 443.5001,-140.991 436.5001,-140.9909"/>
</g>
<!-- OrgUnitFilterComponent -->
<g id="node4" class="node">
<title>OrgUnitFilterComponent</title>
<polygon fill="#ffffb3" stroke="#000000" points="350.3173,-122 191.6827,-122 191.6827,-86 350.3173,-86 350.3173,-122"/>
<text text-anchor="middle" x="271" y="-99.8" font-family="Times,serif" font-size="14.00" fill="#000000">OrgUnitFilterComponent</text>
</g>
<!-- OrgUnitFilterComponent&#45;&gt;OrgUnitFilterModule -->
<g id="edge4" class="edge">
<title>OrgUnitFilterComponent&#45;&gt;OrgUnitFilterModule</title>
<path fill="none" stroke="#000000" d="M271,-122.0225C271,-139.3734 271,-163 271,-163 271,-163 361.7484,-163 361.7484,-163"/>
<polygon fill="#000000" stroke="#000000" points="361.7484,-166.5001 371.7484,-163 361.7483,-159.5001 361.7484,-166.5001"/>
</g>
<!-- OrgUnitFilterComponent  -->
<g id="node6" class="node">
<title>OrgUnitFilterComponent </title>
<polygon fill="#fb8072" stroke="#000000" points="520.8171,-252 359.1829,-252 359.1829,-216 520.8171,-216 520.8171,-252"/>
<text text-anchor="middle" x="440" y="-229.8" font-family="Times,serif" font-size="14.00" fill="#000000">OrgUnitFilterComponent </text>
</g>
<!-- OrgUnitFilterModule&#45;&gt;OrgUnitFilterComponent  -->
<g id="edge5" class="edge">
<title>OrgUnitFilterModule&#45;&gt;OrgUnitFilterComponent </title>
<path fill="none" stroke="#000000" stroke-dasharray="5,2" d="M440,-187.1061C440,-187.1061 440,-205.991 440,-205.991"/>
<polygon fill="#000000" stroke="#000000" points="436.5001,-205.9909 440,-215.991 443.5001,-205.991 436.5001,-205.9909"/>
</g>
<!-- OrgUnitService -->
<g id="node7" class="node">
<title>OrgUnitService</title>
<ellipse fill="#fdb462" stroke="#000000" cx="96" cy="-104" rx="72.3477" ry="18"/>
<text text-anchor="middle" x="96" y="-99.8" font-family="Times,serif" font-size="14.00" fill="#000000">OrgUnitService</text>
</g>
<!-- OrgUnitService&#45;&gt;OrgUnitFilterModule -->
<g id="edge6" class="edge">
<title>OrgUnitService&#45;&gt;OrgUnitFilterModule</title>
<path fill="none" stroke="#000000" d="M96,-122.2843C96,-143.3211 96,-175 96,-175 96,-175 361.6254,-175 361.6254,-175"/>
<polygon fill="#000000" stroke="#000000" points="361.6254,-178.5001 371.6254,-175 361.6253,-171.5001 361.6254,-178.5001"/>
</g>
</g>
</svg>
