<?xml version="1.0" encoding="UTF-8" standalone="no"?>
<!DOCTYPE svg PUBLIC "-//W3C//DTD SVG 1.1//EN"
 "http://www.w3.org/Graphics/SVG/1.1/DTD/svg11.dtd">
<!-- Generated by graphviz version 2.40.1 (20161225.0304)
 -->
<!-- Title: dependencies Pages: 1 -->
<svg width="4627pt" height="284pt"
 viewBox="0.00 0.00 4627.00 284.00" xmlns="http://www.w3.org/2000/svg" xmlns:xlink="http://www.w3.org/1999/xlink">
<g id="graph0" class="graph" transform="scale(1 1) rotate(0) translate(4 280)">
<title>dependencies</title>
<polygon fill="#ffffff" stroke="transparent" points="-4,4 -4,-280 4623,-280 4623,4 -4,4"/>
<text text-anchor="start" x="2288.5091" y="-42.4" font-family="sans-serif" font-weight="bold" font-size="14.00" fill="#000000">Legend</text>
<polygon fill="#ffffb3" stroke="transparent" points="2075.5,-10 2075.5,-30 2095.5,-30 2095.5,-10 2075.5,-10"/>
<text text-anchor="start" x="2099.129" y="-15.4" font-family="sans-serif" font-size="14.00" fill="#000000"> &#160;Declarations</text>
<polygon fill="#8dd3c7" stroke="transparent" points="2188.5,-10 2188.5,-30 2208.5,-30 2208.5,-10 2188.5,-10"/>
<text text-anchor="start" x="2212.2251" y="-15.4" font-family="sans-serif" font-size="14.00" fill="#000000"> &#160;Module</text>
<polygon fill="#80b1d3" stroke="transparent" points="2274.5,-10 2274.5,-30 2294.5,-30 2294.5,-10 2274.5,-10"/>
<text text-anchor="start" x="2298.2812" y="-15.4" font-family="sans-serif" font-size="14.00" fill="#000000"> &#160;Bootstrap</text>
<polygon fill="#fdb462" stroke="transparent" points="2371.5,-10 2371.5,-30 2391.5,-30 2391.5,-10 2371.5,-10"/>
<text text-anchor="start" x="2395.1732" y="-15.4" font-family="sans-serif" font-size="14.00" fill="#000000"> &#160;Providers</text>
<polygon fill="#fb8072" stroke="transparent" points="2467.5,-10 2467.5,-30 2487.5,-30 2487.5,-10 2467.5,-10"/>
<text text-anchor="start" x="2491.2258" y="-15.4" font-family="sans-serif" font-size="14.00" fill="#000000"> &#160;Exports</text>
<g id="clust1" class="cluster">
<title>cluster_MapModule</title>
<polygon fill="none" stroke="#000000" stroke-dasharray="1,5" points="8,-70 8,-268 4611,-268 4611,-70 8,-70"/>
</g>
<g id="clust2" class="cluster">
<title>cluster_MapModule_declarations</title>
<polygon fill="none" stroke="#000000" points="761,-78 761,-130 4603,-130 4603,-78 761,-78"/>
</g>
<g id="clust20" class="cluster">
<title>cluster_MapModule_imports</title>
<polygon fill="none" stroke="#000000" points="16,-78 16,-130 753,-130 753,-78 16,-78"/>
</g>
<g id="clust21" class="cluster">
<title>cluster_MapModule_exports</title>
<polygon fill="none" stroke="#000000" points="258,-208 258,-260 4161,-260 4161,-208 258,-208"/>
</g>
<!-- AddDashboardComponent -->
<g id="node1" class="node">
<title>AddDashboardComponent</title>
<polygon fill="#ffffb3" stroke="#000000" points="4595.08,-122 4428.92,-122 4428.92,-86 4595.08,-86 4595.08,-122"/>
<text text-anchor="middle" x="4512" y="-99.8" font-family="Times,serif" font-size="14.00" fill="#000000">AddDashboardComponent</text>
</g>
<!-- MapModule -->
<g id="node18" class="node">
<title>MapModule</title>
<polygon fill="#8dd3c7" stroke="#000000" points="2116.7093,-187 2113.7093,-191 2092.7093,-191 2089.7093,-187 2031.2907,-187 2031.2907,-151 2116.7093,-151 2116.7093,-187"/>
<text text-anchor="middle" x="2074" y="-164.8" font-family="Times,serif" font-size="14.00" fill="#000000">MapModule</text>
</g>
<!-- AddDashboardComponent&#45;&gt;MapModule -->
<g id="edge1" class="edge">
<title>AddDashboardComponent&#45;&gt;MapModule</title>
<path fill="none" stroke="#000000" d="M4512,-122.0348C4512,-141.5762 4512,-170 4512,-170 4512,-170 2126.8319,-170 2126.8319,-170"/>
<polygon fill="#000000" stroke="#000000" points="2126.832,-166.5001 2116.8319,-170 2126.8319,-173.5001 2126.832,-166.5001"/>
</g>
<!-- CurrentDashboardBookmarkComponent -->
<g id="node2" class="node">
<title>CurrentDashboardBookmarkComponent</title>
<polygon fill="#ffffb3" stroke="#000000" points="4410.8389,-122 4167.1611,-122 4167.1611,-86 4410.8389,-86 4410.8389,-122"/>
<text text-anchor="middle" x="4289" y="-99.8" font-family="Times,serif" font-size="14.00" fill="#000000">CurrentDashboardBookmarkComponent</text>
</g>
<!-- CurrentDashboardBookmarkComponent&#45;&gt;MapModule -->
<g id="edge2" class="edge">
<title>CurrentDashboardBookmarkComponent&#45;&gt;MapModule</title>
<path fill="none" stroke="#000000" d="M4289,-122.1061C4289,-141.3391 4289,-169 4289,-169 4289,-169 2126.7597,-169 2126.7597,-169"/>
<polygon fill="#000000" stroke="#000000" points="2126.7597,-165.5001 2116.7597,-169 2126.7596,-172.5001 2126.7597,-165.5001"/>
</g>
<!-- CurrentDashboardComponent -->
<g id="node3" class="node">
<title>CurrentDashboardComponent</title>
<polygon fill="#ffffb3" stroke="#000000" points="4149.2366,-122 3964.7634,-122 3964.7634,-86 4149.2366,-86 4149.2366,-122"/>
<text text-anchor="middle" x="4057" y="-99.8" font-family="Times,serif" font-size="14.00" fill="#000000">CurrentDashboardComponent</text>
</g>
<!-- CurrentDashboardComponent&#45;&gt;MapModule -->
<g id="edge3" class="edge">
<title>CurrentDashboardComponent&#45;&gt;MapModule</title>
<path fill="none" stroke="#000000" d="M3974.4397,-122.2222C3974.4397,-140.8285 3974.4397,-167 3974.4397,-167 3974.4397,-167 2126.8099,-167 2126.8099,-167"/>
<polygon fill="#000000" stroke="#000000" points="2126.8099,-163.5001 2116.8099,-167 2126.8098,-170.5001 2126.8099,-163.5001"/>
</g>
<!-- CurrentDashboardDescriptionComponent -->
<g id="node4" class="node">
<title>CurrentDashboardDescriptionComponent</title>
<polygon fill="#ffffb3" stroke="#000000" points="3947.0492,-122 3696.9508,-122 3696.9508,-86 3947.0492,-86 3947.0492,-122"/>
<text text-anchor="middle" x="3822" y="-99.8" font-family="Times,serif" font-size="14.00" fill="#000000">CurrentDashboardDescriptionComponent</text>
</g>
<!-- CurrentDashboardDescriptionComponent&#45;&gt;MapModule -->
<g id="edge4" class="edge">
<title>CurrentDashboardDescriptionComponent&#45;&gt;MapModule</title>
<path fill="none" stroke="#000000" d="M3709.2244,-122.302C3709.2244,-140.2699 3709.2244,-165 3709.2244,-165 3709.2244,-165 2126.8978,-165 2126.8978,-165"/>
<polygon fill="#000000" stroke="#000000" points="2126.8978,-161.5001 2116.8978,-165 2126.8977,-168.5001 2126.8978,-161.5001"/>
</g>
<!-- CurrentDashboardGlobalFilterComponent -->
<g id="node5" class="node">
<title>CurrentDashboardGlobalFilterComponent</title>
<polygon fill="#ffffb3" stroke="#000000" points="3678.6685,-122 3425.3315,-122 3425.3315,-86 3678.6685,-86 3678.6685,-122"/>
<text text-anchor="middle" x="3552" y="-99.8" font-family="Times,serif" font-size="14.00" fill="#000000">CurrentDashboardGlobalFilterComponent</text>
</g>
<!-- CurrentDashboardGlobalFilterComponent&#45;&gt;MapModule -->
<g id="edge5" class="edge">
<title>CurrentDashboardGlobalFilterComponent&#45;&gt;MapModule</title>
<path fill="none" stroke="#000000" d="M3459.5952,-122.0225C3459.5952,-139.3734 3459.5952,-163 3459.5952,-163 3459.5952,-163 2126.6053,-163 2126.6053,-163"/>
<polygon fill="#000000" stroke="#000000" points="2126.6053,-159.5001 2116.6053,-163 2126.6053,-166.5001 2126.6053,-159.5001"/>
</g>
<!-- CurrentDashboardHeaderComponent -->
<g id="node6" class="node">
<title>CurrentDashboardHeaderComponent</title>
<polygon fill="#ffffb3" stroke="#000000" points="3407.6474,-122 3182.3526,-122 3182.3526,-86 3407.6474,-86 3407.6474,-122"/>
<text text-anchor="middle" x="3295" y="-99.8" font-family="Times,serif" font-size="14.00" fill="#000000">CurrentDashboardHeaderComponent</text>
</g>
<!-- CurrentDashboardHeaderComponent&#45;&gt;MapModule -->
<g id="edge6" class="edge">
<title>CurrentDashboardHeaderComponent&#45;&gt;MapModule</title>
<path fill="none" stroke="#000000" d="M3202.3803,-122.0352C3202.3803,-138.7344 3202.3803,-161 3202.3803,-161 3202.3803,-161 2126.856,-161 2126.856,-161"/>
<polygon fill="#000000" stroke="#000000" points="2126.856,-157.5001 2116.856,-161 2126.8559,-164.5001 2126.856,-157.5001"/>
</g>
<!-- CurrentDashboardItemSearchComponent -->
<g id="node7" class="node">
<title>CurrentDashboardItemSearchComponent</title>
<polygon fill="#ffffb3" stroke="#000000" points="3164.4803,-122 2915.5197,-122 2915.5197,-86 3164.4803,-86 3164.4803,-122"/>
<text text-anchor="middle" x="3040" y="-99.8" font-family="Times,serif" font-size="14.00" fill="#000000">CurrentDashboardItemSearchComponent</text>
</g>
<!-- CurrentDashboardItemSearchComponent&#45;&gt;MapModule -->
<g id="edge7" class="edge">
<title>CurrentDashboardItemSearchComponent&#45;&gt;MapModule</title>
<path fill="none" stroke="#000000" d="M2931.5419,-122.0091C2931.5419,-138.0494 2931.5419,-159 2931.5419,-159 2931.5419,-159 2126.819,-159 2126.819,-159"/>
<polygon fill="#000000" stroke="#000000" points="2126.8191,-155.5001 2116.819,-159 2126.819,-162.5001 2126.8191,-155.5001"/>
</g>
<!-- CurrentDashboardSharingComponent -->
<g id="node8" class="node">
<title>CurrentDashboardSharingComponent</title>
<polygon fill="#ffffb3" stroke="#000000" points="2898.285,-122 2669.715,-122 2669.715,-86 2898.285,-86 2898.285,-122"/>
<text text-anchor="middle" x="2784" y="-99.8" font-family="Times,serif" font-size="14.00" fill="#000000">CurrentDashboardSharingComponent</text>
</g>
<!-- CurrentDashboardSharingComponent&#45;&gt;MapModule -->
<g id="edge8" class="edge">
<title>CurrentDashboardSharingComponent&#45;&gt;MapModule</title>
<path fill="none" stroke="#000000" d="M2685.4238,-122.2396C2685.4238,-137.5706 2685.4238,-157 2685.4238,-157 2685.4238,-157 2126.9941,-157 2126.9941,-157"/>
<polygon fill="#000000" stroke="#000000" points="2126.9942,-153.5001 2116.9941,-157 2126.9941,-160.5001 2126.9942,-153.5001"/>
</g>
<!-- CurrentDashboardTitleComponent -->
<g id="node9" class="node">
<title>CurrentDashboardTitleComponent</title>
<polygon fill="#ffffb3" stroke="#000000" points="2651.6755,-122 2440.3245,-122 2440.3245,-86 2651.6755,-86 2651.6755,-122"/>
<text text-anchor="middle" x="2546" y="-99.8" font-family="Times,serif" font-size="14.00" fill="#000000">CurrentDashboardTitleComponent</text>
</g>
<!-- CurrentDashboardTitleComponent&#45;&gt;MapModule -->
<g id="edge9" class="edge">
<title>CurrentDashboardTitleComponent&#45;&gt;MapModule</title>
<path fill="none" stroke="#000000" d="M2444.7112,-122.1243C2444.7112,-136.7832 2444.7112,-155 2444.7112,-155 2444.7112,-155 2126.8874,-155 2126.8874,-155"/>
<polygon fill="#000000" stroke="#000000" points="2126.8875,-151.5001 2116.8874,-155 2126.8874,-158.5001 2126.8875,-151.5001"/>
</g>
<!-- CurrentDashboardVisualizationComponent -->
<g id="node10" class="node">
<title>CurrentDashboardVisualizationComponent</title>
<polygon fill="#ffffb3" stroke="#000000" points="2422.8847,-122 2163.1153,-122 2163.1153,-86 2422.8847,-86 2422.8847,-122"/>
<text text-anchor="middle" x="2293" y="-99.8" font-family="Times,serif" font-size="14.00" fill="#000000">CurrentDashboardVisualizationComponent</text>
</g>
<!-- CurrentDashboardVisualizationComponent&#45;&gt;MapModule -->
<g id="edge10" class="edge">
<title>CurrentDashboardVisualizationComponent&#45;&gt;MapModule</title>
<path fill="none" stroke="#000000" d="M2172.3228,-122.2458C2172.3228,-136.1772 2172.3228,-153 2172.3228,-153 2172.3228,-153 2126.8398,-153 2126.8398,-153"/>
<polygon fill="#000000" stroke="#000000" points="2126.8398,-149.5001 2116.8398,-153 2126.8397,-156.5001 2126.8398,-149.5001"/>
</g>
<!-- DashboardComponent -->
<g id="node11" class="node">
<title>DashboardComponent</title>
<polygon fill="#ffffb3" stroke="#000000" points="2144.9734,-122 2003.0266,-122 2003.0266,-86 2144.9734,-86 2144.9734,-122"/>
<text text-anchor="middle" x="2074" y="-99.8" font-family="Times,serif" font-size="14.00" fill="#000000">DashboardComponent</text>
</g>
<!-- DashboardComponent&#45;&gt;MapModule -->
<g id="edge11" class="edge">
<title>DashboardComponent&#45;&gt;MapModule</title>
<path fill="none" stroke="#000000" d="M2074,-122.1061C2074,-122.1061 2074,-140.991 2074,-140.991"/>
<polygon fill="#000000" stroke="#000000" points="2070.5001,-140.9909 2074,-150.991 2077.5001,-140.991 2070.5001,-140.9909"/>
</g>
<!-- DashboardHomeComponent -->
<g id="node12" class="node">
<title>DashboardHomeComponent</title>
<polygon fill="#ffffb3" stroke="#000000" points="1985.1853,-122 1808.8147,-122 1808.8147,-86 1985.1853,-86 1985.1853,-122"/>
<text text-anchor="middle" x="1897" y="-99.8" font-family="Times,serif" font-size="14.00" fill="#000000">DashboardHomeComponent</text>
</g>
<!-- DashboardHomeComponent&#45;&gt;MapModule -->
<g id="edge12" class="edge">
<title>DashboardHomeComponent&#45;&gt;MapModule</title>
<path fill="none" stroke="#000000" d="M1975.8775,-122.2458C1975.8775,-136.1772 1975.8775,-153 1975.8775,-153 1975.8775,-153 2021.2475,-153 2021.2475,-153"/>
<polygon fill="#000000" stroke="#000000" points="2021.2475,-156.5001 2031.2475,-153 2021.2474,-149.5001 2021.2475,-156.5001"/>
</g>
<!-- DashboardMenuComponent -->
<g id="node13" class="node">
<title>DashboardMenuComponent</title>
<polygon fill="#ffffb3" stroke="#000000" points="1791.133,-122 1616.867,-122 1616.867,-86 1791.133,-86 1791.133,-122"/>
<text text-anchor="middle" x="1704" y="-99.8" font-family="Times,serif" font-size="14.00" fill="#000000">DashboardMenuComponent</text>
</g>
<!-- DashboardMenuComponent&#45;&gt;MapModule -->
<g id="edge13" class="edge">
<title>DashboardMenuComponent&#45;&gt;MapModule</title>
<path fill="none" stroke="#000000" d="M1738.4371,-122.1243C1738.4371,-136.7832 1738.4371,-155 1738.4371,-155 1738.4371,-155 2021.1599,-155 2021.1599,-155"/>
<polygon fill="#000000" stroke="#000000" points="2021.1599,-158.5001 2031.1599,-155 2021.1598,-151.5001 2021.1599,-158.5001"/>
</g>
<!-- DashboardMenuItemComponent -->
<g id="node14" class="node">
<title>DashboardMenuItemComponent</title>
<polygon fill="#ffffb3" stroke="#000000" points="1599.2892,-122 1398.7108,-122 1398.7108,-86 1599.2892,-86 1599.2892,-122"/>
<text text-anchor="middle" x="1499" y="-99.8" font-family="Times,serif" font-size="14.00" fill="#000000">DashboardMenuItemComponent</text>
</g>
<!-- DashboardMenuItemComponent&#45;&gt;MapModule -->
<g id="edge14" class="edge">
<title>DashboardMenuItemComponent&#45;&gt;MapModule</title>
<path fill="none" stroke="#000000" d="M1560.7039,-122.2396C1560.7039,-137.5706 1560.7039,-157 1560.7039,-157 1560.7039,-157 2021.1195,-157 2021.1195,-157"/>
<polygon fill="#000000" stroke="#000000" points="2021.1196,-160.5001 2031.1195,-157 2021.1195,-153.5001 2021.1196,-160.5001"/>
</g>
<!-- DashboardProgressComponent -->
<g id="node15" class="node">
<title>DashboardProgressComponent</title>
<polygon fill="#ffffb3" stroke="#000000" points="1381.1811,-122 1190.8189,-122 1190.8189,-86 1381.1811,-86 1381.1811,-122"/>
<text text-anchor="middle" x="1286" y="-99.8" font-family="Times,serif" font-size="14.00" fill="#000000">DashboardProgressComponent</text>
</g>
<!-- DashboardProgressComponent&#45;&gt;MapModule -->
<g id="edge15" class="edge">
<title>DashboardProgressComponent&#45;&gt;MapModule</title>
<path fill="none" stroke="#000000" d="M1352.624,-122.0091C1352.624,-138.0494 1352.624,-159 1352.624,-159 1352.624,-159 2021.3018,-159 2021.3018,-159"/>
<polygon fill="#000000" stroke="#000000" points="2021.3018,-162.5001 2031.3018,-159 2021.3017,-155.5001 2021.3018,-162.5001"/>
</g>
<!-- DefaultDashboardListComponent -->
<g id="node16" class="node">
<title>DefaultDashboardListComponent</title>
<polygon fill="#ffffb3" stroke="#000000" points="1172.7296,-122 967.2704,-122 967.2704,-86 1172.7296,-86 1172.7296,-122"/>
<text text-anchor="middle" x="1070" y="-99.8" font-family="Times,serif" font-size="14.00" fill="#000000">DefaultDashboardListComponent</text>
</g>
<!-- DefaultDashboardListComponent&#45;&gt;MapModule -->
<g id="edge16" class="edge">
<title>DefaultDashboardListComponent&#45;&gt;MapModule</title>
<path fill="none" stroke="#000000" d="M1150.3992,-122.0352C1150.3992,-138.7344 1150.3992,-161 1150.3992,-161 1150.3992,-161 2021.3052,-161 2021.3052,-161"/>
<polygon fill="#000000" stroke="#000000" points="2021.3052,-164.5001 2031.3052,-161 2021.3051,-157.5001 2021.3052,-164.5001"/>
</g>
<!-- InterventionFormComponent -->
<g id="node17" class="node">
<title>InterventionFormComponent</title>
<polygon fill="#ffffb3" stroke="#000000" points="949.0884,-122 768.9116,-122 768.9116,-86 949.0884,-86 949.0884,-122"/>
<text text-anchor="middle" x="859" y="-99.8" font-family="Times,serif" font-size="14.00" fill="#000000">InterventionFormComponent</text>
</g>
<!-- InterventionFormComponent&#45;&gt;MapModule -->
<g id="edge17" class="edge">
<title>InterventionFormComponent&#45;&gt;MapModule</title>
<path fill="none" stroke="#000000" d="M927.5749,-122.0225C927.5749,-139.3734 927.5749,-163 927.5749,-163 927.5749,-163 2021.1511,-163 2021.1511,-163"/>
<polygon fill="#000000" stroke="#000000" points="2021.1511,-166.5001 2031.1511,-163 2021.1511,-159.5001 2021.1511,-166.5001"/>
</g>
<!-- AddDashboardComponent  -->
<g id="node23" class="node">
<title>AddDashboardComponent </title>
<polygon fill="#fb8072" stroke="#000000" points="4152.5805,-252 3983.4195,-252 3983.4195,-216 4152.5805,-216 4152.5805,-252"/>
<text text-anchor="middle" x="4068" y="-229.8" font-family="Times,serif" font-size="14.00" fill="#000000">AddDashboardComponent </text>
</g>
<!-- MapModule&#45;&gt;AddDashboardComponent  -->
<g id="edge22" class="edge">
<title>MapModule&#45;&gt;AddDashboardComponent </title>
<path fill="none" stroke="#000000" stroke-dasharray="5,2" d="M2116.9979,-172C2407.042,-172 4066.2891,-172 4066.2891,-172 4066.2891,-172 4066.2891,-205.7333 4066.2891,-205.7333"/>
<polygon fill="#000000" stroke="#000000" points="4062.7892,-205.7333 4066.2891,-215.7333 4069.7892,-205.7333 4062.7892,-205.7333"/>
</g>
<!-- CurrentDashboardBookmarkComponent  -->
<g id="node24" class="node">
<title>CurrentDashboardBookmarkComponent </title>
<polygon fill="#fb8072" stroke="#000000" points="3965.839,-252 3718.161,-252 3718.161,-216 3965.839,-216 3965.839,-252"/>
<text text-anchor="middle" x="3842" y="-229.8" font-family="Times,serif" font-size="14.00" fill="#000000">CurrentDashboardBookmarkComponent </text>
</g>
<!-- MapModule&#45;&gt;CurrentDashboardBookmarkComponent  -->
<g id="edge23" class="edge">
<title>MapModule&#45;&gt;CurrentDashboardBookmarkComponent </title>
<path fill="none" stroke="#000000" stroke-dasharray="5,2" d="M2117.0364,-174C2386.7381,-174 3832.6776,-174 3832.6776,-174 3832.6776,-174 3832.6776,-205.998 3832.6776,-205.998"/>
<polygon fill="#000000" stroke="#000000" points="3829.1777,-205.998 3832.6776,-215.998 3836.1777,-205.9981 3829.1777,-205.998"/>
</g>
<!-- CurrentDashboardComponent  -->
<g id="node25" class="node">
<title>CurrentDashboardComponent </title>
<polygon fill="#fb8072" stroke="#000000" points="3700.2365,-252 3511.7635,-252 3511.7635,-216 3700.2365,-216 3700.2365,-252"/>
<text text-anchor="middle" x="3606" y="-229.8" font-family="Times,serif" font-size="14.00" fill="#000000">CurrentDashboardComponent </text>
</g>
<!-- MapModule&#45;&gt;CurrentDashboardComponent  -->
<g id="edge24" class="edge">
<title>MapModule&#45;&gt;CurrentDashboardComponent </title>
<path fill="none" stroke="#000000" stroke-dasharray="5,2" d="M2116.6748,-176C2363.3017,-176 3595.233,-176 3595.233,-176 3595.233,-176 3595.233,-205.9664 3595.233,-205.9664"/>
<polygon fill="#000000" stroke="#000000" points="3591.7331,-205.9663 3595.233,-215.9664 3598.7331,-205.9664 3591.7331,-205.9663"/>
</g>
<!-- CurrentDashboardDescriptionComponent  -->
<g id="node26" class="node">
<title>CurrentDashboardDescriptionComponent </title>
<polygon fill="#fb8072" stroke="#000000" points="3493.5496,-252 3240.4504,-252 3240.4504,-216 3493.5496,-216 3493.5496,-252"/>
<text text-anchor="middle" x="3367" y="-229.8" font-family="Times,serif" font-size="14.00" fill="#000000">CurrentDashboardDescriptionComponent </text>
</g>
<!-- MapModule&#45;&gt;CurrentDashboardDescriptionComponent  -->
<g id="edge25" class="edge">
<title>MapModule&#45;&gt;CurrentDashboardDescriptionComponent </title>
<path fill="none" stroke="#000000" stroke-dasharray="5,2" d="M2116.6628,-178C2335.7217,-178 3323.8996,-178 3323.8996,-178 3323.8996,-178 3323.8996,-205.973 3323.8996,-205.973"/>
<polygon fill="#000000" stroke="#000000" points="3320.3996,-205.973 3323.8996,-215.973 3327.3996,-205.973 3320.3996,-205.973"/>
</g>
<!-- CurrentDashboardGlobalFilterComponent  -->
<g id="node27" class="node">
<title>CurrentDashboardGlobalFilterComponent </title>
<polygon fill="#fb8072" stroke="#000000" points="3222.1686,-252 2965.8314,-252 2965.8314,-216 3222.1686,-216 3222.1686,-252"/>
<text text-anchor="middle" x="3094" y="-229.8" font-family="Times,serif" font-size="14.00" fill="#000000">CurrentDashboardGlobalFilterComponent </text>
</g>
<!-- MapModule&#45;&gt;CurrentDashboardGlobalFilterComponent  -->
<g id="edge26" class="edge">
<title>MapModule&#45;&gt;CurrentDashboardGlobalFilterComponent </title>
<path fill="none" stroke="#000000" stroke-dasharray="5,2" d="M2116.8981,-180C2307.1011,-180 3064.9528,-180 3064.9528,-180 3064.9528,-180 3064.9528,-205.7181 3064.9528,-205.7181"/>
<polygon fill="#000000" stroke="#000000" points="3061.4529,-205.718 3064.9528,-215.7181 3068.4529,-205.7181 3061.4529,-205.718"/>
</g>
<!-- CurrentDashboardHeaderComponent  -->
<g id="node28" class="node">
<title>CurrentDashboardHeaderComponent </title>
<polygon fill="#fb8072" stroke="#000000" points="2947.1477,-252 2718.8523,-252 2718.8523,-216 2947.1477,-216 2947.1477,-252"/>
<text text-anchor="middle" x="2833" y="-229.8" font-family="Times,serif" font-size="14.00" fill="#000000">CurrentDashboardHeaderComponent </text>
</g>
<!-- MapModule&#45;&gt;CurrentDashboardHeaderComponent  -->
<g id="edge27" class="edge">
<title>MapModule&#45;&gt;CurrentDashboardHeaderComponent </title>
<path fill="none" stroke="#000000" stroke-dasharray="5,2" d="M2116.6593,-182C2273.4003,-182 2808.4094,-182 2808.4094,-182 2808.4094,-182 2808.4094,-205.8129 2808.4094,-205.8129"/>
<polygon fill="#000000" stroke="#000000" points="2804.9094,-205.8129 2808.4094,-215.8129 2811.9094,-205.813 2804.9094,-205.8129"/>
</g>
<!-- CurrentDashboardItemSearchComponent  -->
<g id="node29" class="node">
<title>CurrentDashboardItemSearchComponent </title>
<polygon fill="#fb8072" stroke="#000000" points="2700.9798,-252 2449.0202,-252 2449.0202,-216 2700.9798,-216 2700.9798,-252"/>
<text text-anchor="middle" x="2575" y="-229.8" font-family="Times,serif" font-size="14.00" fill="#000000">CurrentDashboardItemSearchComponent </text>
</g>
<!-- MapModule&#45;&gt;CurrentDashboardItemSearchComponent  -->
<g id="edge28" class="edge">
<title>MapModule&#45;&gt;CurrentDashboardItemSearchComponent </title>
<path fill="none" stroke="#000000" stroke-dasharray="5,2" d="M2116.6875,-184C2233.5956,-184 2550.2989,-184 2550.2989,-184 2550.2989,-184 2550.2989,-205.9489 2550.2989,-205.9489"/>
<polygon fill="#000000" stroke="#000000" points="2546.799,-205.9488 2550.2989,-215.9489 2553.799,-205.9489 2546.799,-205.9488"/>
</g>
<!-- CurrentDashboardSharingComponent  -->
<g id="node30" class="node">
<title>CurrentDashboardSharingComponent </title>
<polygon fill="#fb8072" stroke="#000000" points="2430.7849,-252 2199.2151,-252 2199.2151,-216 2430.7849,-216 2430.7849,-252"/>
<text text-anchor="middle" x="2315" y="-229.8" font-family="Times,serif" font-size="14.00" fill="#000000">CurrentDashboardSharingComponent </text>
</g>
<!-- MapModule&#45;&gt;CurrentDashboardSharingComponent  -->
<g id="edge29" class="edge">
<title>MapModule&#45;&gt;CurrentDashboardSharingComponent </title>
<path fill="none" stroke="#000000" stroke-dasharray="5,2" d="M2116.6266,-186C2184.8315,-186 2310.8999,-186 2310.8999,-186 2310.8999,-186 2310.8999,-205.8533 2310.8999,-205.8533"/>
<polygon fill="#000000" stroke="#000000" points="2307.4,-205.8532 2310.8999,-215.8533 2314.4,-205.8533 2307.4,-205.8532"/>
</g>
<!-- CurrentDashboardTitleComponent  -->
<g id="node31" class="node">
<title>CurrentDashboardTitleComponent </title>
<polygon fill="#fb8072" stroke="#000000" points="2181.1756,-252 1966.8244,-252 1966.8244,-216 2181.1756,-216 2181.1756,-252"/>
<text text-anchor="middle" x="2074" y="-229.8" font-family="Times,serif" font-size="14.00" fill="#000000">CurrentDashboardTitleComponent </text>
</g>
<!-- MapModule&#45;&gt;CurrentDashboardTitleComponent  -->
<g id="edge30" class="edge">
<title>MapModule&#45;&gt;CurrentDashboardTitleComponent </title>
<path fill="none" stroke="#000000" stroke-dasharray="5,2" d="M2074,-187.1061C2074,-187.1061 2074,-205.991 2074,-205.991"/>
<polygon fill="#000000" stroke="#000000" points="2070.5001,-205.9909 2074,-215.991 2077.5001,-205.991 2070.5001,-205.9909"/>
</g>
<!-- CurrentDashboardVisualizationComponent  -->
<g id="node32" class="node">
<title>CurrentDashboardVisualizationComponent </title>
<polygon fill="#fb8072" stroke="#000000" points="1948.3844,-252 1685.6156,-252 1685.6156,-216 1948.3844,-216 1948.3844,-252"/>
<text text-anchor="middle" x="1817" y="-229.8" font-family="Times,serif" font-size="14.00" fill="#000000">CurrentDashboardVisualizationComponent </text>
</g>
<!-- MapModule&#45;&gt;CurrentDashboardVisualizationComponent  -->
<g id="edge31" class="edge">
<title>MapModule&#45;&gt;CurrentDashboardVisualizationComponent </title>
<path fill="none" stroke="#000000" stroke-dasharray="5,2" d="M2031.1351,-186C1973.6379,-186 1878.6748,-186 1878.6748,-186 1878.6748,-186 1878.6748,-205.8533 1878.6748,-205.8533"/>
<polygon fill="#000000" stroke="#000000" points="1875.1749,-205.8532 1878.6748,-215.8533 1882.1749,-205.8533 1875.1749,-205.8532"/>
</g>
<!-- DashboardComponent  -->
<g id="node33" class="node">
<title>DashboardComponent </title>
<polygon fill="#fb8072" stroke="#000000" points="1667.9742,-252 1522.0258,-252 1522.0258,-216 1667.9742,-216 1667.9742,-252"/>
<text text-anchor="middle" x="1595" y="-229.8" font-family="Times,serif" font-size="14.00" fill="#000000">DashboardComponent </text>
</g>
<!-- MapModule&#45;&gt;DashboardComponent  -->
<g id="edge32" class="edge">
<title>MapModule&#45;&gt;DashboardComponent </title>
<path fill="none" stroke="#000000" stroke-dasharray="5,2" d="M2031.0197,-184C1921.8036,-184 1642.2102,-184 1642.2102,-184 1642.2102,-184 1642.2102,-205.9489 1642.2102,-205.9489"/>
<polygon fill="#000000" stroke="#000000" points="1638.7103,-205.9488 1642.2102,-215.9489 1645.7103,-205.9489 1638.7103,-205.9488"/>
</g>
<!-- DashboardHomeComponent  -->
<g id="node34" class="node">
<title>DashboardHomeComponent </title>
<polygon fill="#fb8072" stroke="#000000" points="1503.6855,-252 1324.3145,-252 1324.3145,-216 1503.6855,-216 1503.6855,-252"/>
<text text-anchor="middle" x="1414" y="-229.8" font-family="Times,serif" font-size="14.00" fill="#000000">DashboardHomeComponent </text>
</g>
<!-- MapModule&#45;&gt;DashboardHomeComponent  -->
<g id="edge33" class="edge">
<title>MapModule&#45;&gt;DashboardHomeComponent </title>
<path fill="none" stroke="#000000" stroke-dasharray="5,2" d="M2031.2027,-182C1890.5281,-182 1451.349,-182 1451.349,-182 1451.349,-182 1451.349,-205.8129 1451.349,-205.8129"/>
<polygon fill="#000000" stroke="#000000" points="1447.8491,-205.8129 1451.349,-215.8129 1454.8491,-205.813 1447.8491,-205.8129"/>
</g>
<!-- DashboardMenuComponent  -->
<g id="node35" class="node">
<title>DashboardMenuComponent </title>
<polygon fill="#fb8072" stroke="#000000" points="1306.1326,-252 1127.8674,-252 1127.8674,-216 1306.1326,-216 1306.1326,-252"/>
<text text-anchor="middle" x="1217" y="-229.8" font-family="Times,serif" font-size="14.00" fill="#000000">DashboardMenuComponent </text>
</g>
<!-- MapModule&#45;&gt;DashboardMenuComponent  -->
<g id="edge34" class="edge">
<title>MapModule&#45;&gt;DashboardMenuComponent </title>
<path fill="none" stroke="#000000" stroke-dasharray="5,2" d="M2031.3552,-180C1862.3134,-180 1248.4879,-180 1248.4879,-180 1248.4879,-180 1248.4879,-205.7181 1248.4879,-205.7181"/>
<polygon fill="#000000" stroke="#000000" points="1244.988,-205.718 1248.4879,-215.7181 1251.988,-205.7181 1244.988,-205.718"/>
</g>
<!-- DashboardMenuItemComponent  -->
<g id="node36" class="node">
<title>DashboardMenuItemComponent </title>
<polygon fill="#fb8072" stroke="#000000" points="1109.7891,-252 906.2109,-252 906.2109,-216 1109.7891,-216 1109.7891,-252"/>
<text text-anchor="middle" x="1008" y="-229.8" font-family="Times,serif" font-size="14.00" fill="#000000">DashboardMenuItemComponent </text>
</g>
<!-- MapModule&#45;&gt;DashboardMenuItemComponent  -->
<g id="edge35" class="edge">
<title>MapModule&#45;&gt;DashboardMenuItemComponent </title>
<path fill="none" stroke="#000000" stroke-dasharray="5,2" d="M2031.1516,-178C1835.7384,-178 1038.5149,-178 1038.5149,-178 1038.5149,-178 1038.5149,-205.973 1038.5149,-205.973"/>
<polygon fill="#000000" stroke="#000000" points="1035.015,-205.973 1038.5149,-215.973 1042.015,-205.973 1035.015,-205.973"/>
</g>
<!-- DashboardProgressComponent  -->
<g id="node37" class="node">
<title>DashboardProgressComponent </title>
<polygon fill="#fb8072" stroke="#000000" points="887.6813,-252 694.3187,-252 694.3187,-216 887.6813,-216 887.6813,-252"/>
<text text-anchor="middle" x="791" y="-229.8" font-family="Times,serif" font-size="14.00" fill="#000000">DashboardProgressComponent </text>
</g>
<!-- MapModule&#45;&gt;DashboardProgressComponent  -->
<g id="edge36" class="edge">
<title>MapModule&#45;&gt;DashboardProgressComponent </title>
<path fill="none" stroke="#000000" stroke-dasharray="5,2" d="M2031.1236,-176C1812.0969,-176 828.3982,-176 828.3982,-176 828.3982,-176 828.3982,-205.9664 828.3982,-205.9664"/>
<polygon fill="#000000" stroke="#000000" points="824.8982,-205.9663 828.3982,-215.9664 831.8982,-205.9664 824.8982,-205.9663"/>
</g>
<!-- DefaultDashboardListComponent  -->
<g id="node38" class="node">
<title>DefaultDashboardListComponent </title>
<polygon fill="#fb8072" stroke="#000000" points="676.7295,-252 467.2705,-252 467.2705,-216 676.7295,-216 676.7295,-252"/>
<text text-anchor="middle" x="572" y="-229.8" font-family="Times,serif" font-size="14.00" fill="#000000">DefaultDashboardListComponent </text>
</g>
<!-- MapModule&#45;&gt;DefaultDashboardListComponent  -->
<g id="edge37" class="edge">
<title>MapModule&#45;&gt;DefaultDashboardListComponent </title>
<path fill="none" stroke="#000000" stroke-dasharray="5,2" d="M2031.1633,-174C1793.0082,-174 642.6741,-174 642.6741,-174 642.6741,-174 642.6741,-205.998 642.6741,-205.998"/>
<polygon fill="#000000" stroke="#000000" points="639.1742,-205.998 642.6741,-215.998 646.1742,-205.9981 639.1742,-205.998"/>
</g>
<!-- InterventionFormComponent  -->
<g id="node39" class="node">
<title>InterventionFormComponent </title>
<polygon fill="#fb8072" stroke="#000000" points="449.5889,-252 266.4111,-252 266.4111,-216 449.5889,-216 449.5889,-252"/>
<text text-anchor="middle" x="358" y="-229.8" font-family="Times,serif" font-size="14.00" fill="#000000">InterventionFormComponent </text>
</g>
<!-- MapModule&#45;&gt;InterventionFormComponent  -->
<g id="edge38" class="edge">
<title>MapModule&#45;&gt;InterventionFormComponent </title>
<path fill="none" stroke="#000000" stroke-dasharray="5,2" d="M2031.3919,-172C1772.1357,-172 417.6545,-172 417.6545,-172 417.6545,-172 417.6545,-205.7333 417.6545,-205.7333"/>
<polygon fill="#000000" stroke="#000000" points="414.1545,-205.7333 417.6545,-215.7333 421.1545,-205.7333 414.1545,-205.7333"/>
</g>
<!-- FavoriteFilterModule -->
<g id="node19" class="node">
<title>FavoriteFilterModule</title>
<polygon fill="#8dd3c7" stroke="#000000" points="745.0338,-122 742.0338,-126 721.0338,-126 718.0338,-122 608.9662,-122 608.9662,-86 745.0338,-86 745.0338,-122"/>
<text text-anchor="middle" x="677" y="-99.8" font-family="Times,serif" font-size="14.00" fill="#000000">FavoriteFilterModule</text>
</g>
<!-- FavoriteFilterModule&#45;&gt;MapModule -->
<g id="edge18" class="edge">
<title>FavoriteFilterModule&#45;&gt;MapModule</title>
<path fill="none" stroke="#000000" d="M719.713,-122.302C719.713,-140.2699 719.713,-165 719.713,-165 719.713,-165 2021.2321,-165 2021.2321,-165"/>
<polygon fill="#000000" stroke="#000000" points="2021.2321,-168.5001 2031.2321,-165 2021.2321,-161.5001 2021.2321,-168.5001"/>
</g>
<!-- NgxDhis2SelectionFiltersModule -->
<g id="node20" class="node">
<title>NgxDhis2SelectionFiltersModule</title>
<polygon fill="#8dd3c7" stroke="#000000" points="590.4706,-122 587.4706,-126 566.4706,-126 563.4706,-122 385.5294,-122 385.5294,-86 590.4706,-86 590.4706,-122"/>
<text text-anchor="middle" x="488" y="-99.8" font-family="Times,serif" font-size="14.00" fill="#000000">NgxDhis2SelectionFiltersModule</text>
</g>
<!-- NgxDhis2SelectionFiltersModule&#45;&gt;MapModule -->
<g id="edge19" class="edge">
<title>NgxDhis2SelectionFiltersModule&#45;&gt;MapModule</title>
<path fill="none" stroke="#000000" d="M528.9353,-122.2222C528.9353,-140.8285 528.9353,-167 528.9353,-167 528.9353,-167 2021.0635,-167 2021.0635,-167"/>
<polygon fill="#000000" stroke="#000000" points="2021.0636,-170.5001 2031.0635,-167 2021.0635,-163.5001 2021.0636,-170.5001"/>
</g>
<!-- NgxDhis2VisualizationModule -->
<g id="node21" class="node">
<title>NgxDhis2VisualizationModule</title>
<polygon fill="#8dd3c7" stroke="#000000" points="367.7464,-122 364.7464,-126 343.7464,-126 340.7464,-122 176.2536,-122 176.2536,-86 367.7464,-86 367.7464,-122"/>
<text text-anchor="middle" x="272" y="-99.8" font-family="Times,serif" font-size="14.00" fill="#000000">NgxDhis2VisualizationModule</text>
</g>
<!-- NgxDhis2VisualizationModule&#45;&gt;MapModule -->
<g id="edge20" class="edge">
<title>NgxDhis2VisualizationModule&#45;&gt;MapModule</title>
<path fill="none" stroke="#000000" d="M317.0395,-122.1061C317.0395,-141.3391 317.0395,-169 317.0395,-169 317.0395,-169 2021.0056,-169 2021.0056,-169"/>
<polygon fill="#000000" stroke="#000000" points="2021.0056,-172.5001 2031.0056,-169 2021.0055,-165.5001 2021.0056,-172.5001"/>
</g>
<!-- SharingFilterModule -->
<g id="node22" class="node">
<title>SharingFilterModule</title>
<polygon fill="#8dd3c7" stroke="#000000" points="157.9285,-122 154.9285,-126 133.9285,-126 130.9285,-122 24.0715,-122 24.0715,-86 157.9285,-86 157.9285,-122"/>
<text text-anchor="middle" x="91" y="-99.8" font-family="Times,serif" font-size="14.00" fill="#000000">SharingFilterModule</text>
</g>
<!-- SharingFilterModule&#45;&gt;MapModule -->
<g id="edge21" class="edge">
<title>SharingFilterModule&#45;&gt;MapModule</title>
<path fill="none" stroke="#000000" d="M91,-122.0348C91,-141.5762 91,-170 91,-170 91,-170 2021.2026,-170 2021.2026,-170"/>
<polygon fill="#000000" stroke="#000000" points="2021.2026,-173.5001 2031.2026,-170 2021.2026,-166.5001 2021.2026,-173.5001"/>
</g>
</g>
</svg>
