<?xml version="1.0" encoding="UTF-8" standalone="no"?>
<!DOCTYPE svg PUBLIC "-//W3C//DTD SVG 1.1//EN"
 "http://www.w3.org/Graphics/SVG/1.1/DTD/svg11.dtd">
<!-- Generated by graphviz version 2.40.1 (20161225.0304)
 -->
<!-- Title: dependencies Pages: 1 -->
<svg width="1056pt" height="284pt"
 viewBox="0.00 0.00 1056.00 284.00" xmlns="http://www.w3.org/2000/svg" xmlns:xlink="http://www.w3.org/1999/xlink">
<g id="graph0" class="graph" transform="scale(1 1) rotate(0) translate(4 280)">
<title>dependencies</title>
<polygon fill="#ffffff" stroke="transparent" points="-4,4 -4,-280 1052,-280 1052,4 -4,4"/>
<text text-anchor="start" x="503.0091" y="-42.4" font-family="sans-serif" font-weight="bold" font-size="14.00" fill="#000000">Legend</text>
<polygon fill="#ffffb3" stroke="transparent" points="290,-10 290,-30 310,-30 310,-10 290,-10"/>
<text text-anchor="start" x="313.629" y="-15.4" font-family="sans-serif" font-size="14.00" fill="#000000"> &#160;Declarations</text>
<polygon fill="#8dd3c7" stroke="transparent" points="403,-10 403,-30 423,-30 423,-10 403,-10"/>
<text text-anchor="start" x="426.7251" y="-15.4" font-family="sans-serif" font-size="14.00" fill="#000000"> &#160;Module</text>
<polygon fill="#80b1d3" stroke="transparent" points="489,-10 489,-30 509,-30 509,-10 489,-10"/>
<text text-anchor="start" x="512.7812" y="-15.4" font-family="sans-serif" font-size="14.00" fill="#000000"> &#160;Bootstrap</text>
<polygon fill="#fdb462" stroke="transparent" points="586,-10 586,-30 606,-30 606,-10 586,-10"/>
<text text-anchor="start" x="609.6732" y="-15.4" font-family="sans-serif" font-size="14.00" fill="#000000"> &#160;Providers</text>
<polygon fill="#fb8072" stroke="transparent" points="682,-10 682,-30 702,-30 702,-10 682,-10"/>
<text text-anchor="start" x="705.7258" y="-15.4" font-family="sans-serif" font-size="14.00" fill="#000000"> &#160;Exports</text>
<g id="clust1" class="cluster">
<title>cluster_NgxDhis2SelectionFiltersModule</title>
<polygon fill="none" stroke="#000000" stroke-dasharray="1,5" points="8,-70 8,-268 1040,-268 1040,-70 8,-70"/>
</g>
<g id="clust2" class="cluster">
<title>cluster_NgxDhis2SelectionFiltersModule_declarations</title>
<polygon fill="none" stroke="#000000" points="630,-78 630,-130 1032,-130 1032,-78 630,-78"/>
</g>
<g id="clust5" class="cluster">
<title>cluster_NgxDhis2SelectionFiltersModule_imports</title>
<polygon fill="none" stroke="#000000" points="16,-78 16,-130 622,-130 622,-78 16,-78"/>
</g>
<g id="clust6" class="cluster">
<title>cluster_NgxDhis2SelectionFiltersModule_exports</title>
<polygon fill="none" stroke="#000000" points="370,-208 370,-260 616,-260 616,-208 370,-208"/>
</g>
<!-- ClickOutsideDirective -->
<g id="node1" class="node">
<title>ClickOutsideDirective</title>
<polygon fill="#ffffb3" stroke="#000000" points="1023.9622,-122 882.0378,-122 882.0378,-86 1023.9622,-86 1023.9622,-122"/>
<text text-anchor="middle" x="953" y="-99.8" font-family="Times,serif" font-size="14.00" fill="#000000">ClickOutsideDirective</text>
</g>
<!-- NgxDhis2SelectionFiltersModule -->
<g id="node3" class="node">
<title>NgxDhis2SelectionFiltersModule</title>
<polygon fill="#8dd3c7" stroke="#000000" points="595.4706,-187 592.4706,-191 571.4706,-191 568.4706,-187 390.5294,-187 390.5294,-151 595.4706,-151 595.4706,-187"/>
<text text-anchor="middle" x="493" y="-164.8" font-family="Times,serif" font-size="14.00" fill="#000000">NgxDhis2SelectionFiltersModule</text>
</g>
<!-- ClickOutsideDirective&#45;&gt;NgxDhis2SelectionFiltersModule -->
<g id="edge1" class="edge">
<title>ClickOutsideDirective&#45;&gt;NgxDhis2SelectionFiltersModule</title>
<path fill="none" stroke="#000000" d="M953,-122.2843C953,-143.3211 953,-175 953,-175 953,-175 605.6604,-175 605.6604,-175"/>
<polygon fill="#000000" stroke="#000000" points="605.6605,-171.5001 595.6604,-175 605.6604,-178.5001 605.6605,-171.5001"/>
</g>
<!-- NgxDhis2SelectionFiltersComponent -->
<g id="node2" class="node">
<title>NgxDhis2SelectionFiltersComponent</title>
<polygon fill="#ffffb3" stroke="#000000" points="864.2533,-122 637.7467,-122 637.7467,-86 864.2533,-86 864.2533,-122"/>
<text text-anchor="middle" x="751" y="-99.8" font-family="Times,serif" font-size="14.00" fill="#000000">NgxDhis2SelectionFiltersComponent</text>
</g>
<!-- NgxDhis2SelectionFiltersComponent&#45;&gt;NgxDhis2SelectionFiltersModule -->
<g id="edge2" class="edge">
<title>NgxDhis2SelectionFiltersComponent&#45;&gt;NgxDhis2SelectionFiltersModule</title>
<path fill="none" stroke="#000000" d="M751,-122.0225C751,-139.3734 751,-163 751,-163 751,-163 605.7098,-163 605.7098,-163"/>
<polygon fill="#000000" stroke="#000000" points="605.7098,-159.5001 595.7098,-163 605.7097,-166.5001 605.7098,-159.5001"/>
</g>
<!-- NgxDhis2SelectionFiltersComponent  -->
<g id="node8" class="node">
<title>NgxDhis2SelectionFiltersComponent </title>
<polygon fill="#fb8072" stroke="#000000" points="608.2533,-252 377.7467,-252 377.7467,-216 608.2533,-216 608.2533,-252"/>
<text text-anchor="middle" x="493" y="-229.8" font-family="Times,serif" font-size="14.00" fill="#000000">NgxDhis2SelectionFiltersComponent </text>
</g>
<!-- NgxDhis2SelectionFiltersModule&#45;&gt;NgxDhis2SelectionFiltersComponent  -->
<g id="edge7" class="edge">
<title>NgxDhis2SelectionFiltersModule&#45;&gt;NgxDhis2SelectionFiltersComponent </title>
<path fill="none" stroke="#000000" stroke-dasharray="5,2" d="M493,-187.1061C493,-187.1061 493,-205.991 493,-205.991"/>
<polygon fill="#000000" stroke="#000000" points="489.5001,-205.9909 493,-215.991 496.5001,-205.991 489.5001,-205.9909"/>
</g>
<!-- DataFilterModule -->
<g id="node4" class="node">
<title>DataFilterModule</title>
<polygon fill="#8dd3c7" stroke="#000000" points="614.3062,-122 611.3062,-126 590.3062,-126 587.3062,-122 497.6938,-122 497.6938,-86 614.3062,-86 614.3062,-122"/>
<text text-anchor="middle" x="556" y="-99.8" font-family="Times,serif" font-size="14.00" fill="#000000">DataFilterModule</text>
</g>
<!-- DataFilterModule&#45;&gt;NgxDhis2SelectionFiltersModule -->
<g id="edge3" class="edge">
<title>DataFilterModule&#45;&gt;NgxDhis2SelectionFiltersModule</title>
<path fill="none" stroke="#000000" d="M546.6662,-122.1061C546.6662,-122.1061 546.6662,-140.991 546.6662,-140.991"/>
<polygon fill="#000000" stroke="#000000" points="543.1663,-140.9909 546.6662,-150.991 550.1663,-140.991 543.1663,-140.9909"/>
</g>
<!-- LayoutModule -->
<g id="node5" class="node">
<title>LayoutModule</title>
<polygon fill="#8dd3c7" stroke="#000000" points="479.7078,-122 476.7078,-126 455.7078,-126 452.7078,-122 380.2922,-122 380.2922,-86 479.7078,-86 479.7078,-122"/>
<text text-anchor="middle" x="430" y="-99.8" font-family="Times,serif" font-size="14.00" fill="#000000">LayoutModule</text>
</g>
<!-- LayoutModule&#45;&gt;NgxDhis2SelectionFiltersModule -->
<g id="edge4" class="edge">
<title>LayoutModule&#45;&gt;NgxDhis2SelectionFiltersModule</title>
<path fill="none" stroke="#000000" d="M435.0593,-122.1061C435.0593,-122.1061 435.0593,-140.991 435.0593,-140.991"/>
<polygon fill="#000000" stroke="#000000" points="431.5593,-140.9909 435.0593,-150.991 438.5593,-140.991 431.5593,-140.9909"/>
</g>
<!-- NgxDhis2OrgUnitFilterModule -->
<g id="node6" class="node">
<title>NgxDhis2OrgUnitFilterModule</title>
<polygon fill="#8dd3c7" stroke="#000000" points="362.0828,-122 359.0828,-126 338.0828,-126 335.0828,-122 167.9172,-122 167.9172,-86 362.0828,-86 362.0828,-122"/>
<text text-anchor="middle" x="265" y="-99.8" font-family="Times,serif" font-size="14.00" fill="#000000">NgxDhis2OrgUnitFilterModule</text>
</g>
<!-- NgxDhis2OrgUnitFilterModule&#45;&gt;NgxDhis2SelectionFiltersModule -->
<g id="edge5" class="edge">
<title>NgxDhis2OrgUnitFilterModule&#45;&gt;NgxDhis2SelectionFiltersModule</title>
<path fill="none" stroke="#000000" d="M265,-122.0225C265,-139.3734 265,-163 265,-163 265,-163 380.3388,-163 380.3388,-163"/>
<polygon fill="#000000" stroke="#000000" points="380.3388,-166.5001 390.3388,-163 380.3387,-159.5001 380.3388,-166.5001"/>
</g>
<!-- PeriodFilterModule -->
<g id="node7" class="node">
<title>PeriodFilterModule</title>
<polygon fill="#8dd3c7" stroke="#000000" points="150.4285,-122 147.4285,-126 126.4285,-126 123.4285,-122 23.5715,-122 23.5715,-86 150.4285,-86 150.4285,-122"/>
<text text-anchor="middle" x="87" y="-99.8" font-family="Times,serif" font-size="14.00" fill="#000000">PeriodFilterModule</text>
</g>
<!-- PeriodFilterModule&#45;&gt;NgxDhis2SelectionFiltersModule -->
<g id="edge6" class="edge">
<title>PeriodFilterModule&#45;&gt;NgxDhis2SelectionFiltersModule</title>
<path fill="none" stroke="#000000" d="M87,-122.2843C87,-143.3211 87,-175 87,-175 87,-175 380.2867,-175 380.2867,-175"/>
<polygon fill="#000000" stroke="#000000" points="380.2868,-178.5001 390.2867,-175 380.2867,-171.5001 380.2868,-178.5001"/>
</g>
</g>
</svg>
