<?xml version="1.0" encoding="UTF-8" standalone="no"?>
<!DOCTYPE svg PUBLIC "-//W3C//DTD SVG 1.1//EN"
 "http://www.w3.org/Graphics/SVG/1.1/DTD/svg11.dtd">
<!-- Generated by graphviz version 2.40.1 (20161225.0304)
 -->
<!-- Title: dependencies Pages: 1 -->
<svg width="742pt" height="284pt"
 viewBox="0.00 0.00 742.00 284.00" xmlns="http://www.w3.org/2000/svg" xmlns:xlink="http://www.w3.org/1999/xlink">
<g id="graph0" class="graph" transform="scale(1 1) rotate(0) translate(4 280)">
<title>dependencies</title>
<polygon fill="#ffffff" stroke="transparent" points="-4,4 -4,-280 738,-280 738,4 -4,4"/>
<text text-anchor="start" x="346.0091" y="-42.4" font-family="sans-serif" font-weight="bold" font-size="14.00" fill="#000000">Legend</text>
<polygon fill="#ffffb3" stroke="transparent" points="133,-10 133,-30 153,-30 153,-10 133,-10"/>
<text text-anchor="start" x="156.629" y="-15.4" font-family="sans-serif" font-size="14.00" fill="#000000"> &#160;Declarations</text>
<polygon fill="#8dd3c7" stroke="transparent" points="246,-10 246,-30 266,-30 266,-10 246,-10"/>
<text text-anchor="start" x="269.7251" y="-15.4" font-family="sans-serif" font-size="14.00" fill="#000000"> &#160;Module</text>
<polygon fill="#80b1d3" stroke="transparent" points="332,-10 332,-30 352,-30 352,-10 332,-10"/>
<text text-anchor="start" x="355.7812" y="-15.4" font-family="sans-serif" font-size="14.00" fill="#000000"> &#160;Bootstrap</text>
<polygon fill="#fdb462" stroke="transparent" points="429,-10 429,-30 449,-30 449,-10 429,-10"/>
<text text-anchor="start" x="452.6732" y="-15.4" font-family="sans-serif" font-size="14.00" fill="#000000"> &#160;Providers</text>
<polygon fill="#fb8072" stroke="transparent" points="525,-10 525,-30 545,-30 545,-10 525,-10"/>
<text text-anchor="start" x="548.7258" y="-15.4" font-family="sans-serif" font-size="14.00" fill="#000000"> &#160;Exports</text>
<g id="clust1" class="cluster">
<title>cluster_ChartModule</title>
<polygon fill="none" stroke="#000000" stroke-dasharray="1,5" points="8,-70 8,-268 726,-268 726,-70 8,-70"/>
</g>
<g id="clust2" class="cluster">
<title>cluster_ChartModule_declarations</title>
<polygon fill="none" stroke="#000000" points="412,-78 412,-130 718,-130 718,-78 412,-78"/>
</g>
<g id="clust6" class="cluster">
<title>cluster_ChartModule_exports</title>
<polygon fill="none" stroke="#000000" points="224,-208 224,-260 538,-260 538,-208 224,-208"/>
</g>
<g id="clust8" class="cluster">
<title>cluster_ChartModule_providers</title>
<polygon fill="none" stroke="#000000" points="16,-78 16,-130 404,-130 404,-78 16,-78"/>
</g>
<!-- ChartItemComponent -->
<g id="node1" class="node">
<title>ChartItemComponent</title>
<polygon fill="#ffffb3" stroke="#000000" points="710.0912,-122 571.9088,-122 571.9088,-86 710.0912,-86 710.0912,-122"/>
<text text-anchor="middle" x="641" y="-99.8" font-family="Times,serif" font-size="14.00" fill="#000000">ChartItemComponent</text>
</g>
<!-- ChartModule -->
<g id="node3" class="node">
<title>ChartModule</title>
<polygon fill="#8dd3c7" stroke="#000000" points="425.1529,-187 422.1529,-191 401.1529,-191 398.1529,-187 334.8471,-187 334.8471,-151 425.1529,-151 425.1529,-187"/>
<text text-anchor="middle" x="380" y="-164.8" font-family="Times,serif" font-size="14.00" fill="#000000">ChartModule</text>
</g>
<!-- ChartItemComponent&#45;&gt;ChartModule -->
<g id="edge1" class="edge">
<title>ChartItemComponent&#45;&gt;ChartModule</title>
<path fill="none" stroke="#000000" d="M641,-122.1061C641,-141.3391 641,-169 641,-169 641,-169 435.1648,-169 435.1648,-169"/>
<polygon fill="#000000" stroke="#000000" points="435.1648,-165.5001 425.1648,-169 435.1647,-172.5001 435.1648,-165.5001"/>
</g>
<!-- ChartListComponent -->
<g id="node2" class="node">
<title>ChartListComponent</title>
<polygon fill="#ffffb3" stroke="#000000" points="554.2134,-122 419.7866,-122 419.7866,-86 554.2134,-86 554.2134,-122"/>
<text text-anchor="middle" x="487" y="-99.8" font-family="Times,serif" font-size="14.00" fill="#000000">ChartListComponent</text>
</g>
<!-- ChartListComponent&#45;&gt;ChartModule -->
<g id="edge2" class="edge">
<title>ChartListComponent&#45;&gt;ChartModule</title>
<path fill="none" stroke="#000000" d="M419.7938,-104C412.5578,-104 407.7588,-104 407.7588,-104 407.7588,-104 407.7588,-140.8939 407.7588,-140.8939"/>
<polygon fill="#000000" stroke="#000000" points="404.2589,-140.8938 407.7588,-150.8939 411.2589,-140.8939 404.2589,-140.8938"/>
</g>
<!-- ChartItemComponent  -->
<g id="node4" class="node">
<title>ChartItemComponent </title>
<polygon fill="#fb8072" stroke="#000000" points="529.5918,-252 388.4082,-252 388.4082,-216 529.5918,-216 529.5918,-252"/>
<text text-anchor="middle" x="459" y="-229.8" font-family="Times,serif" font-size="14.00" fill="#000000">ChartItemComponent </text>
</g>
<!-- ChartModule&#45;&gt;ChartItemComponent  -->
<g id="edge3" class="edge">
<title>ChartModule&#45;&gt;ChartItemComponent </title>
<path fill="none" stroke="#000000" stroke-dasharray="5,2" d="M406.7653,-187.1061C406.7653,-187.1061 406.7653,-205.991 406.7653,-205.991"/>
<polygon fill="#000000" stroke="#000000" points="403.2653,-205.9909 406.7653,-215.991 410.2653,-205.991 403.2653,-205.9909"/>
</g>
<!-- ChartListComponent  -->
<g id="node5" class="node">
<title>ChartListComponent </title>
<polygon fill="#fb8072" stroke="#000000" points="369.7135,-252 232.2865,-252 232.2865,-216 369.7135,-216 369.7135,-252"/>
<text text-anchor="middle" x="301" y="-229.8" font-family="Times,serif" font-size="14.00" fill="#000000">ChartListComponent </text>
</g>
<!-- ChartModule&#45;&gt;ChartListComponent  -->
<g id="edge4" class="edge">
<title>ChartModule&#45;&gt;ChartListComponent </title>
<path fill="none" stroke="#000000" stroke-dasharray="5,2" d="M352.2653,-187.1061C352.2653,-187.1061 352.2653,-205.991 352.2653,-205.991"/>
<polygon fill="#000000" stroke="#000000" points="348.7653,-205.9909 352.2653,-215.991 355.7653,-205.991 348.7653,-205.9909"/>
</g>
<!-- ChartConfigurationService -->
<g id="node6" class="node">
<title>ChartConfigurationService</title>
<ellipse fill="#fdb462" stroke="#000000" cx="280" cy="-104" rx="115.7484" ry="18"/>
<text text-anchor="middle" x="280" y="-99.8" font-family="Times,serif" font-size="14.00" fill="#000000">ChartConfigurationService</text>
</g>
<!-- ChartConfigurationService&#45;&gt;ChartModule -->
<g id="edge5" class="edge">
<title>ChartConfigurationService&#45;&gt;ChartModule</title>
<path fill="none" stroke="#000000" d="M365.149,-116.226C365.149,-116.226 365.149,-140.683 365.149,-140.683"/>
<polygon fill="#000000" stroke="#000000" points="361.6491,-140.683 365.149,-150.683 368.6491,-140.683 361.6491,-140.683"/>
</g>
<!-- ChartService -->
<g id="node7" class="node">
<title>ChartService</title>
<ellipse fill="#fdb462" stroke="#000000" cx="85" cy="-104" rx="61.3916" ry="18"/>
<text text-anchor="middle" x="85" y="-99.8" font-family="Times,serif" font-size="14.00" fill="#000000">ChartService</text>
</g>
<!-- ChartService&#45;&gt;ChartModule -->
<g id="edge6" class="edge">
<title>ChartService&#45;&gt;ChartModule</title>
<path fill="none" stroke="#000000" d="M85,-122.1061C85,-141.3391 85,-169 85,-169 85,-169 324.5528,-169 324.5528,-169"/>
<polygon fill="#000000" stroke="#000000" points="324.5528,-172.5001 334.5528,-169 324.5527,-165.5001 324.5528,-172.5001"/>
</g>
</g>
</svg>
