<?xml version="1.0" encoding="UTF-8" standalone="no"?>
<!DOCTYPE svg PUBLIC "-//W3C//DTD SVG 1.1//EN"
 "http://www.w3.org/Graphics/SVG/1.1/DTD/svg11.dtd">
<!-- Generated by graphviz version 2.40.1 (20161225.0304)
 -->
<!-- Title: dependencies Pages: 1 -->
<svg width="671pt" height="284pt"
 viewBox="0.00 0.00 671.00 284.00" xmlns="http://www.w3.org/2000/svg" xmlns:xlink="http://www.w3.org/1999/xlink">
<g id="graph0" class="graph" transform="scale(1 1) rotate(0) translate(4 280)">
<title>dependencies</title>
<polygon fill="#ffffff" stroke="transparent" points="-4,4 -4,-280 667,-280 667,4 -4,4"/>
<text text-anchor="start" x="310.5091" y="-42.4" font-family="sans-serif" font-weight="bold" font-size="14.00" fill="#000000">Legend</text>
<polygon fill="#ffffb3" stroke="transparent" points="97.5,-10 97.5,-30 117.5,-30 117.5,-10 97.5,-10"/>
<text text-anchor="start" x="121.129" y="-15.4" font-family="sans-serif" font-size="14.00" fill="#000000"> &#160;Declarations</text>
<polygon fill="#8dd3c7" stroke="transparent" points="210.5,-10 210.5,-30 230.5,-30 230.5,-10 210.5,-10"/>
<text text-anchor="start" x="234.2251" y="-15.4" font-family="sans-serif" font-size="14.00" fill="#000000"> &#160;Module</text>
<polygon fill="#80b1d3" stroke="transparent" points="296.5,-10 296.5,-30 316.5,-30 316.5,-10 296.5,-10"/>
<text text-anchor="start" x="320.2812" y="-15.4" font-family="sans-serif" font-size="14.00" fill="#000000"> &#160;Bootstrap</text>
<polygon fill="#fdb462" stroke="transparent" points="393.5,-10 393.5,-30 413.5,-30 413.5,-10 393.5,-10"/>
<text text-anchor="start" x="417.1732" y="-15.4" font-family="sans-serif" font-size="14.00" fill="#000000"> &#160;Providers</text>
<polygon fill="#fb8072" stroke="transparent" points="489.5,-10 489.5,-30 509.5,-30 509.5,-10 489.5,-10"/>
<text text-anchor="start" x="513.2258" y="-15.4" font-family="sans-serif" font-size="14.00" fill="#000000"> &#160;Exports</text>
<g id="clust1" class="cluster">
<title>cluster_FavoriteFilterModule</title>
<polygon fill="none" stroke="#000000" stroke-dasharray="1,5" points="8,-70 8,-268 655,-268 655,-70 8,-70"/>
</g>
<g id="clust2" class="cluster">
<title>cluster_FavoriteFilterModule_declarations</title>
<polygon fill="none" stroke="#000000" points="16,-78 16,-130 647,-130 647,-78 16,-78"/>
</g>
<g id="clust8" class="cluster">
<title>cluster_FavoriteFilterModule_exports</title>
<polygon fill="none" stroke="#000000" points="232,-208 232,-260 410,-260 410,-208 232,-208"/>
</g>
<!-- ClickOutsideDirective -->
<g id="node1" class="node">
<title>ClickOutsideDirective</title>
<polygon fill="#ffffb3" stroke="#000000" points="638.9622,-122 497.0378,-122 497.0378,-86 638.9622,-86 638.9622,-122"/>
<text text-anchor="middle" x="568" y="-99.8" font-family="Times,serif" font-size="14.00" fill="#000000">ClickOutsideDirective</text>
</g>
<!-- FavoriteFilterModule -->
<g id="node5" class="node">
<title>FavoriteFilterModule</title>
<polygon fill="#8dd3c7" stroke="#000000" points="389.0338,-187 386.0338,-191 365.0338,-191 362.0338,-187 252.9662,-187 252.9662,-151 389.0338,-151 389.0338,-187"/>
<text text-anchor="middle" x="321" y="-164.8" font-family="Times,serif" font-size="14.00" fill="#000000">FavoriteFilterModule</text>
</g>
<!-- ClickOutsideDirective&#45;&gt;FavoriteFilterModule -->
<g id="edge1" class="edge">
<title>ClickOutsideDirective&#45;&gt;FavoriteFilterModule</title>
<path fill="none" stroke="#000000" d="M568,-122.1061C568,-141.3391 568,-169 568,-169 568,-169 399.1477,-169 399.1477,-169"/>
<polygon fill="#000000" stroke="#000000" points="399.1477,-165.5001 389.1477,-169 399.1476,-172.5001 399.1477,-165.5001"/>
</g>
<!-- FavoriteFilterComponent -->
<g id="node2" class="node">
<title>FavoriteFilterComponent</title>
<polygon fill="#ffffb3" stroke="#000000" points="479.3159,-122 320.6841,-122 320.6841,-86 479.3159,-86 479.3159,-122"/>
<text text-anchor="middle" x="400" y="-99.8" font-family="Times,serif" font-size="14.00" fill="#000000">FavoriteFilterComponent</text>
</g>
<!-- FavoriteFilterComponent&#45;&gt;FavoriteFilterModule -->
<g id="edge2" class="edge">
<title>FavoriteFilterComponent&#45;&gt;FavoriteFilterModule</title>
<path fill="none" stroke="#000000" d="M355.0544,-122.1061C355.0544,-122.1061 355.0544,-140.991 355.0544,-140.991"/>
<polygon fill="#000000" stroke="#000000" points="351.5544,-140.9909 355.0544,-150.991 358.5544,-140.991 351.5544,-140.9909"/>
</g>
<!-- FilterByNamePipe -->
<g id="node3" class="node">
<title>FilterByNamePipe</title>
<polygon fill="#ffffb3" stroke="#000000" points="302.4804,-122 181.5196,-122 181.5196,-86 302.4804,-86 302.4804,-122"/>
<text text-anchor="middle" x="242" y="-99.8" font-family="Times,serif" font-size="14.00" fill="#000000">FilterByNamePipe</text>
</g>
<!-- FilterByNamePipe&#45;&gt;FavoriteFilterModule -->
<g id="edge3" class="edge">
<title>FilterByNamePipe&#45;&gt;FavoriteFilterModule</title>
<path fill="none" stroke="#000000" d="M277.6119,-122.1061C277.6119,-122.1061 277.6119,-140.991 277.6119,-140.991"/>
<polygon fill="#000000" stroke="#000000" points="274.1119,-140.9909 277.6119,-150.991 281.1119,-140.991 274.1119,-140.9909"/>
</g>
<!-- SortByBookmarkPipe -->
<g id="node4" class="node">
<title>SortByBookmarkPipe</title>
<polygon fill="#ffffb3" stroke="#000000" points="163.661,-122 24.339,-122 24.339,-86 163.661,-86 163.661,-122"/>
<text text-anchor="middle" x="94" y="-99.8" font-family="Times,serif" font-size="14.00" fill="#000000">SortByBookmarkPipe</text>
</g>
<!-- SortByBookmarkPipe&#45;&gt;FavoriteFilterModule -->
<g id="edge4" class="edge">
<title>SortByBookmarkPipe&#45;&gt;FavoriteFilterModule</title>
<path fill="none" stroke="#000000" d="M94,-122.1061C94,-141.3391 94,-169 94,-169 94,-169 242.8925,-169 242.8925,-169"/>
<polygon fill="#000000" stroke="#000000" points="242.8926,-172.5001 252.8925,-169 242.8925,-165.5001 242.8926,-172.5001"/>
</g>
<!-- FavoriteFilterComponent  -->
<g id="node6" class="node">
<title>FavoriteFilterComponent </title>
<polygon fill="#fb8072" stroke="#000000" points="401.8157,-252 240.1843,-252 240.1843,-216 401.8157,-216 401.8157,-252"/>
<text text-anchor="middle" x="321" y="-229.8" font-family="Times,serif" font-size="14.00" fill="#000000">FavoriteFilterComponent </text>
</g>
<!-- FavoriteFilterModule&#45;&gt;FavoriteFilterComponent  -->
<g id="edge5" class="edge">
<title>FavoriteFilterModule&#45;&gt;FavoriteFilterComponent </title>
<path fill="none" stroke="#000000" stroke-dasharray="5,2" d="M321,-187.1061C321,-187.1061 321,-205.991 321,-205.991"/>
<polygon fill="#000000" stroke="#000000" points="317.5001,-205.9909 321,-215.991 324.5001,-205.991 317.5001,-205.9909"/>
</g>
</g>
</svg>
