<?xml version="1.0" encoding="UTF-8" standalone="no"?>
<!DOCTYPE svg PUBLIC "-//W3C//DTD SVG 1.1//EN"
 "http://www.w3.org/Graphics/SVG/1.1/DTD/svg11.dtd">
<!-- Generated by graphviz version 2.40.1 (20161225.0304)
 -->
<!-- Title: dependencies Pages: 1 -->
<svg width="504pt" height="284pt"
 viewBox="0.00 0.00 504.00 284.00" xmlns="http://www.w3.org/2000/svg" xmlns:xlink="http://www.w3.org/1999/xlink">
<g id="graph0" class="graph" transform="scale(1 1) rotate(0) translate(4 280)">
<title>dependencies</title>
<polygon fill="#ffffff" stroke="transparent" points="-4,4 -4,-280 500,-280 500,4 -4,4"/>
<text text-anchor="start" x="227.0091" y="-42.4" font-family="sans-serif" font-weight="bold" font-size="14.00" fill="#000000">Legend</text>
<polygon fill="#ffffb3" stroke="transparent" points="14,-10 14,-30 34,-30 34,-10 14,-10"/>
<text text-anchor="start" x="37.629" y="-15.4" font-family="sans-serif" font-size="14.00" fill="#000000"> &#160;Declarations</text>
<polygon fill="#8dd3c7" stroke="transparent" points="127,-10 127,-30 147,-30 147,-10 127,-10"/>
<text text-anchor="start" x="150.7251" y="-15.4" font-family="sans-serif" font-size="14.00" fill="#000000"> &#160;Module</text>
<polygon fill="#80b1d3" stroke="transparent" points="213,-10 213,-30 233,-30 233,-10 213,-10"/>
<text text-anchor="start" x="236.7812" y="-15.4" font-family="sans-serif" font-size="14.00" fill="#000000"> &#160;Bootstrap</text>
<polygon fill="#fdb462" stroke="transparent" points="310,-10 310,-30 330,-30 330,-10 310,-10"/>
<text text-anchor="start" x="333.6732" y="-15.4" font-family="sans-serif" font-size="14.00" fill="#000000"> &#160;Providers</text>
<polygon fill="#fb8072" stroke="transparent" points="406,-10 406,-30 426,-30 426,-10 406,-10"/>
<text text-anchor="start" x="429.7258" y="-15.4" font-family="sans-serif" font-size="14.00" fill="#000000"> &#160;Exports</text>
<g id="clust1" class="cluster">
<title>cluster_SharingFilterModule</title>
<polygon fill="none" stroke="#000000" stroke-dasharray="1,5" points="40,-70 40,-268 456,-268 456,-70 40,-70"/>
</g>
<g id="clust2" class="cluster">
<title>cluster_SharingFilterModule_declarations</title>
<polygon fill="none" stroke="#000000" points="48,-78 48,-130 448,-130 448,-78 48,-78"/>
</g>
<g id="clust7" class="cluster">
<title>cluster_SharingFilterModule_exports</title>
<polygon fill="none" stroke="#000000" points="179,-208 179,-260 353,-260 353,-208 179,-208"/>
</g>
<!-- FilterByNamePipe -->
<g id="node1" class="node">
<title>FilterByNamePipe</title>
<polygon fill="#ffffb3" stroke="#000000" points="440.4804,-122 319.5196,-122 319.5196,-86 440.4804,-86 440.4804,-122"/>
<text text-anchor="middle" x="380" y="-99.8" font-family="Times,serif" font-size="14.00" fill="#000000">FilterByNamePipe</text>
</g>
<!-- SharingFilterModule -->
<g id="node4" class="node">
<title>SharingFilterModule</title>
<polygon fill="#8dd3c7" stroke="#000000" points="332.9285,-187 329.9285,-191 308.9285,-191 305.9285,-187 199.0715,-187 199.0715,-151 332.9285,-151 332.9285,-187"/>
<text text-anchor="middle" x="266" y="-164.8" font-family="Times,serif" font-size="14.00" fill="#000000">SharingFilterModule</text>
</g>
<!-- FilterByNamePipe&#45;&gt;SharingFilterModule -->
<g id="edge1" class="edge">
<title>FilterByNamePipe&#45;&gt;SharingFilterModule</title>
<path fill="none" stroke="#000000" d="M326.1119,-122.1061C326.1119,-122.1061 326.1119,-140.991 326.1119,-140.991"/>
<polygon fill="#000000" stroke="#000000" points="322.6119,-140.9909 326.1119,-150.991 329.6119,-140.991 322.6119,-140.9909"/>
</g>
<!-- LimitPipe -->
<g id="node2" class="node">
<title>LimitPipe</title>
<polygon fill="#ffffb3" stroke="#000000" points="302.0028,-122 229.9972,-122 229.9972,-86 302.0028,-86 302.0028,-122"/>
<text text-anchor="middle" x="266" y="-99.8" font-family="Times,serif" font-size="14.00" fill="#000000">LimitPipe</text>
</g>
<!-- LimitPipe&#45;&gt;SharingFilterModule -->
<g id="edge2" class="edge">
<title>LimitPipe&#45;&gt;SharingFilterModule</title>
<path fill="none" stroke="#000000" d="M266,-122.1061C266,-122.1061 266,-140.991 266,-140.991"/>
<polygon fill="#000000" stroke="#000000" points="262.5001,-140.9909 266,-150.991 269.5001,-140.991 262.5001,-140.9909"/>
</g>
<!-- SharingFilterComponent -->
<g id="node3" class="node">
<title>SharingFilterComponent</title>
<polygon fill="#ffffb3" stroke="#000000" points="211.7105,-122 56.2895,-122 56.2895,-86 211.7105,-86 211.7105,-122"/>
<text text-anchor="middle" x="134" y="-99.8" font-family="Times,serif" font-size="14.00" fill="#000000">SharingFilterComponent</text>
</g>
<!-- SharingFilterComponent&#45;&gt;SharingFilterModule -->
<g id="edge3" class="edge">
<title>SharingFilterComponent&#45;&gt;SharingFilterModule</title>
<path fill="none" stroke="#000000" d="M205.4457,-122.1061C205.4457,-122.1061 205.4457,-140.991 205.4457,-140.991"/>
<polygon fill="#000000" stroke="#000000" points="201.9457,-140.9909 205.4457,-150.991 208.9457,-140.991 201.9457,-140.9909"/>
</g>
<!-- SharingFilterComponent  -->
<g id="node5" class="node">
<title>SharingFilterComponent </title>
<polygon fill="#fb8072" stroke="#000000" points="345.2107,-252 186.7893,-252 186.7893,-216 345.2107,-216 345.2107,-252"/>
<text text-anchor="middle" x="266" y="-229.8" font-family="Times,serif" font-size="14.00" fill="#000000">SharingFilterComponent </text>
</g>
<!-- SharingFilterModule&#45;&gt;SharingFilterComponent  -->
<g id="edge4" class="edge">
<title>SharingFilterModule&#45;&gt;SharingFilterComponent </title>
<path fill="none" stroke="#000000" stroke-dasharray="5,2" d="M266,-187.1061C266,-187.1061 266,-205.991 266,-205.991"/>
<polygon fill="#000000" stroke="#000000" points="262.5001,-205.9909 266,-215.991 269.5001,-205.991 262.5001,-205.9909"/>
</g>
</g>
</svg>
