<?xml version="1.0" encoding="UTF-8" standalone="no"?>
<!DOCTYPE svg PUBLIC "-//W3C//DTD SVG 1.1//EN"
 "http://www.w3.org/Graphics/SVG/1.1/DTD/svg11.dtd">
<!-- Generated by graphviz version 2.40.1 (20161225.0304)
 -->
<!-- Title: dependencies Pages: 1 -->
<svg width="604pt" height="284pt"
 viewBox="0.00 0.00 604.00 284.00" xmlns="http://www.w3.org/2000/svg" xmlns:xlink="http://www.w3.org/1999/xlink">
<g id="graph0" class="graph" transform="scale(1 1) rotate(0) translate(4 280)">
<title>dependencies</title>
<polygon fill="#ffffff" stroke="transparent" points="-4,4 -4,-280 600,-280 600,4 -4,4"/>
<text text-anchor="start" x="277.0091" y="-42.4" font-family="sans-serif" font-weight="bold" font-size="14.00" fill="#000000">Legend</text>
<polygon fill="#ffffb3" stroke="transparent" points="64,-10 64,-30 84,-30 84,-10 64,-10"/>
<text text-anchor="start" x="87.629" y="-15.4" font-family="sans-serif" font-size="14.00" fill="#000000"> &#160;Declarations</text>
<polygon fill="#8dd3c7" stroke="transparent" points="177,-10 177,-30 197,-30 197,-10 177,-10"/>
<text text-anchor="start" x="200.7251" y="-15.4" font-family="sans-serif" font-size="14.00" fill="#000000"> &#160;Module</text>
<polygon fill="#80b1d3" stroke="transparent" points="263,-10 263,-30 283,-30 283,-10 263,-10"/>
<text text-anchor="start" x="286.7812" y="-15.4" font-family="sans-serif" font-size="14.00" fill="#000000"> &#160;Bootstrap</text>
<polygon fill="#fdb462" stroke="transparent" points="360,-10 360,-30 380,-30 380,-10 360,-10"/>
<text text-anchor="start" x="383.6732" y="-15.4" font-family="sans-serif" font-size="14.00" fill="#000000"> &#160;Providers</text>
<polygon fill="#fb8072" stroke="transparent" points="456,-10 456,-30 476,-30 476,-10 456,-10"/>
<text text-anchor="start" x="479.7258" y="-15.4" font-family="sans-serif" font-size="14.00" fill="#000000"> &#160;Exports</text>
<g id="clust1" class="cluster">
<title>cluster_SharingFilterModule</title>
<polygon fill="none" stroke="#000000" stroke-dasharray="1,5" points="8,-70 8,-268 588,-268 588,-70 8,-70"/>
</g>
<g id="clust2" class="cluster">
<title>cluster_SharingFilterModule_declarations</title>
<polygon fill="none" stroke="#000000" points="180,-78 180,-130 580,-130 580,-78 180,-78"/>
</g>
<g id="clust7" class="cluster">
<title>cluster_SharingFilterModule_exports</title>
<polygon fill="none" stroke="#000000" points="245,-208 245,-260 419,-260 419,-208 245,-208"/>
</g>
<g id="clust9" class="cluster">
<title>cluster_SharingFilterModule_providers</title>
<polygon fill="none" stroke="#000000" points="16,-78 16,-130 172,-130 172,-78 16,-78"/>
</g>
<!-- FilterByNamePipe -->
<g id="node1" class="node">
<title>FilterByNamePipe</title>
<polygon fill="#ffffb3" stroke="#000000" points="572.4804,-122 451.5196,-122 451.5196,-86 572.4804,-86 572.4804,-122"/>
<text text-anchor="middle" x="512" y="-99.8" font-family="Times,serif" font-size="14.00" fill="#000000">FilterByNamePipe</text>
</g>
<!-- SharingFilterModule -->
<g id="node4" class="node">
<title>SharingFilterModule</title>
<polygon fill="#8dd3c7" stroke="#000000" points="398.9285,-187 395.9285,-191 374.9285,-191 371.9285,-187 265.0715,-187 265.0715,-151 398.9285,-151 398.9285,-187"/>
<text text-anchor="middle" x="332" y="-164.8" font-family="Times,serif" font-size="14.00" fill="#000000">SharingFilterModule</text>
</g>
<!-- FilterByNamePipe&#45;&gt;SharingFilterModule -->
<g id="edge1" class="edge">
<title>FilterByNamePipe&#45;&gt;SharingFilterModule</title>
<path fill="none" stroke="#000000" d="M512,-122.1061C512,-141.3391 512,-169 512,-169 512,-169 408.7696,-169 408.7696,-169"/>
<polygon fill="#000000" stroke="#000000" points="408.7696,-165.5001 398.7696,-169 408.7695,-172.5001 408.7696,-165.5001"/>
</g>
<!-- LimitPipe -->
<g id="node2" class="node">
<title>LimitPipe</title>
<polygon fill="#ffffb3" stroke="#000000" points="434.0028,-122 361.9972,-122 361.9972,-86 434.0028,-86 434.0028,-122"/>
<text text-anchor="middle" x="398" y="-99.8" font-family="Times,serif" font-size="14.00" fill="#000000">LimitPipe</text>
</g>
<!-- LimitPipe&#45;&gt;SharingFilterModule -->
<g id="edge2" class="edge">
<title>LimitPipe&#45;&gt;SharingFilterModule</title>
<path fill="none" stroke="#000000" d="M380.3563,-122.1061C380.3563,-122.1061 380.3563,-140.991 380.3563,-140.991"/>
<polygon fill="#000000" stroke="#000000" points="376.8563,-140.9909 380.3563,-150.991 383.8563,-140.991 376.8563,-140.9909"/>
</g>
<!-- SharingFilterComponent -->
<g id="node3" class="node">
<title>SharingFilterComponent</title>
<polygon fill="#ffffb3" stroke="#000000" points="343.7105,-122 188.2895,-122 188.2895,-86 343.7105,-86 343.7105,-122"/>
<text text-anchor="middle" x="266" y="-99.8" font-family="Times,serif" font-size="14.00" fill="#000000">SharingFilterComponent</text>
</g>
<!-- SharingFilterComponent&#45;&gt;SharingFilterModule -->
<g id="edge3" class="edge">
<title>SharingFilterComponent&#45;&gt;SharingFilterModule</title>
<path fill="none" stroke="#000000" d="M304.4457,-122.1061C304.4457,-122.1061 304.4457,-140.991 304.4457,-140.991"/>
<polygon fill="#000000" stroke="#000000" points="300.9457,-140.9909 304.4457,-150.991 307.9457,-140.991 300.9457,-140.9909"/>
</g>
<!-- SharingFilterComponent  -->
<g id="node5" class="node">
<title>SharingFilterComponent </title>
<polygon fill="#fb8072" stroke="#000000" points="411.2107,-252 252.7893,-252 252.7893,-216 411.2107,-216 411.2107,-252"/>
<text text-anchor="middle" x="332" y="-229.8" font-family="Times,serif" font-size="14.00" fill="#000000">SharingFilterComponent </text>
</g>
<!-- SharingFilterModule&#45;&gt;SharingFilterComponent  -->
<g id="edge4" class="edge">
<title>SharingFilterModule&#45;&gt;SharingFilterComponent </title>
<path fill="none" stroke="#000000" stroke-dasharray="5,2" d="M332,-187.1061C332,-187.1061 332,-205.991 332,-205.991"/>
<polygon fill="#000000" stroke="#000000" points="328.5001,-205.9909 332,-215.991 335.5001,-205.991 328.5001,-205.9909"/>
</g>
<!-- SharingService -->
<g id="node6" class="node">
<title>SharingService</title>
<ellipse fill="#fdb462" stroke="#000000" cx="94" cy="-104" rx="70.0616" ry="18"/>
<text text-anchor="middle" x="94" y="-99.8" font-family="Times,serif" font-size="14.00" fill="#000000">SharingService</text>
</g>
<!-- SharingService&#45;&gt;SharingFilterModule -->
<g id="edge5" class="edge">
<title>SharingService&#45;&gt;SharingFilterModule</title>
<path fill="none" stroke="#000000" d="M94,-122.1061C94,-141.3391 94,-169 94,-169 94,-169 255.0704,-169 255.0704,-169"/>
<polygon fill="#000000" stroke="#000000" points="255.0704,-172.5001 265.0704,-169 255.0703,-165.5001 255.0704,-172.5001"/>
</g>
</g>
</svg>
