<?xml version="1.0" encoding="UTF-8" standalone="no"?>
<!DOCTYPE svg PUBLIC "-//W3C//DTD SVG 1.1//EN"
 "http://www.w3.org/Graphics/SVG/1.1/DTD/svg11.dtd">
<!-- Generated by graphviz version 2.40.1 (20161225.0304)
 -->
<!-- Title: dependencies Pages: 1 -->
<svg width="961pt" height="284pt"
 viewBox="0.00 0.00 961.00 284.00" xmlns="http://www.w3.org/2000/svg" xmlns:xlink="http://www.w3.org/1999/xlink">
<g id="graph0" class="graph" transform="scale(1 1) rotate(0) translate(4 280)">
<title>dependencies</title>
<polygon fill="#ffffff" stroke="transparent" points="-4,4 -4,-280 957,-280 957,4 -4,4"/>
<text text-anchor="start" x="455.5091" y="-42.4" font-family="sans-serif" font-weight="bold" font-size="14.00" fill="#000000">Legend</text>
<polygon fill="#ffffb3" stroke="transparent" points="242.5,-10 242.5,-30 262.5,-30 262.5,-10 242.5,-10"/>
<text text-anchor="start" x="266.129" y="-15.4" font-family="sans-serif" font-size="14.00" fill="#000000"> &#160;Declarations</text>
<polygon fill="#8dd3c7" stroke="transparent" points="355.5,-10 355.5,-30 375.5,-30 375.5,-10 355.5,-10"/>
<text text-anchor="start" x="379.2251" y="-15.4" font-family="sans-serif" font-size="14.00" fill="#000000"> &#160;Module</text>
<polygon fill="#80b1d3" stroke="transparent" points="441.5,-10 441.5,-30 461.5,-30 461.5,-10 441.5,-10"/>
<text text-anchor="start" x="465.2812" y="-15.4" font-family="sans-serif" font-size="14.00" fill="#000000"> &#160;Bootstrap</text>
<polygon fill="#fdb462" stroke="transparent" points="538.5,-10 538.5,-30 558.5,-30 558.5,-10 538.5,-10"/>
<text text-anchor="start" x="562.1732" y="-15.4" font-family="sans-serif" font-size="14.00" fill="#000000"> &#160;Providers</text>
<polygon fill="#fb8072" stroke="transparent" points="634.5,-10 634.5,-30 654.5,-30 654.5,-10 634.5,-10"/>
<text text-anchor="start" x="658.2258" y="-15.4" font-family="sans-serif" font-size="14.00" fill="#000000"> &#160;Exports</text>
<g id="clust1" class="cluster">
<title>cluster_DictionaryModule</title>
<polygon fill="none" stroke="#000000" stroke-dasharray="1,5" points="8,-70 8,-268 945,-268 945,-70 8,-70"/>
</g>
<g id="clust2" class="cluster">
<title>cluster_DictionaryModule_declarations</title>
<polygon fill="none" stroke="#000000" points="366,-78 366,-130 937,-130 937,-78 366,-78"/>
</g>
<g id="clust6" class="cluster">
<title>cluster_DictionaryModule_imports</title>
<polygon fill="none" stroke="#000000" points="244,-78 244,-130 358,-130 358,-78 244,-78"/>
</g>
<g id="clust7" class="cluster">
<title>cluster_DictionaryModule_exports</title>
<polygon fill="none" stroke="#000000" points="378,-208 378,-260 560,-260 560,-208 378,-208"/>
</g>
<g id="clust9" class="cluster">
<title>cluster_DictionaryModule_providers</title>
<polygon fill="none" stroke="#000000" points="16,-78 16,-130 236,-130 236,-78 16,-78"/>
</g>
<!-- DictionaryItemComponent -->
<g id="node1" class="node">
<title>DictionaryItemComponent</title>
<polygon fill="#ffffb3" stroke="#000000" points="929.3571,-122 762.6429,-122 762.6429,-86 929.3571,-86 929.3571,-122"/>
<text text-anchor="middle" x="846" y="-99.8" font-family="Times,serif" font-size="14.00" fill="#000000">DictionaryItemComponent</text>
</g>
<!-- DictionaryModule -->
<g id="node4" class="node">
<title>DictionaryModule</title>
<polygon fill="#8dd3c7" stroke="#000000" points="528.9187,-187 525.9187,-191 504.9187,-191 501.9187,-187 409.0813,-187 409.0813,-151 528.9187,-151 528.9187,-187"/>
<text text-anchor="middle" x="469" y="-164.8" font-family="Times,serif" font-size="14.00" fill="#000000">DictionaryModule</text>
</g>
<!-- DictionaryItemComponent&#45;&gt;DictionaryModule -->
<g id="edge1" class="edge">
<title>DictionaryItemComponent&#45;&gt;DictionaryModule</title>
<path fill="none" stroke="#000000" d="M846,-122.2843C846,-143.3211 846,-175 846,-175 846,-175 538.7368,-175 538.7368,-175"/>
<polygon fill="#000000" stroke="#000000" points="538.7368,-171.5001 528.7368,-175 538.7367,-178.5001 538.7368,-171.5001"/>
</g>
<!-- DictionaryListComponent -->
<g id="node2" class="node">
<title>DictionaryListComponent</title>
<polygon fill="#ffffb3" stroke="#000000" points="744.479,-122 581.521,-122 581.521,-86 744.479,-86 744.479,-122"/>
<text text-anchor="middle" x="663" y="-99.8" font-family="Times,serif" font-size="14.00" fill="#000000">DictionaryListComponent</text>
</g>
<!-- DictionaryListComponent&#45;&gt;DictionaryModule -->
<g id="edge2" class="edge">
<title>DictionaryListComponent&#45;&gt;DictionaryModule</title>
<path fill="none" stroke="#000000" d="M663,-122.0225C663,-139.3734 663,-163 663,-163 663,-163 538.7894,-163 538.7894,-163"/>
<polygon fill="#000000" stroke="#000000" points="538.7894,-159.5001 528.7894,-163 538.7893,-166.5001 538.7894,-159.5001"/>
</g>
<!-- DictionaryProgressComponent -->
<g id="node3" class="node">
<title>DictionaryProgressComponent</title>
<polygon fill="#ffffb3" stroke="#000000" points="563.9086,-122 374.0914,-122 374.0914,-86 563.9086,-86 563.9086,-122"/>
<text text-anchor="middle" x="469" y="-99.8" font-family="Times,serif" font-size="14.00" fill="#000000">DictionaryProgressComponent</text>
</g>
<!-- DictionaryProgressComponent&#45;&gt;DictionaryModule -->
<g id="edge3" class="edge">
<title>DictionaryProgressComponent&#45;&gt;DictionaryModule</title>
<path fill="none" stroke="#000000" d="M469,-122.1061C469,-122.1061 469,-140.991 469,-140.991"/>
<polygon fill="#000000" stroke="#000000" points="465.5001,-140.9909 469,-150.991 472.5001,-140.991 465.5001,-140.9909"/>
</g>
<!-- DictionaryListComponent  -->
<g id="node6" class="node">
<title>DictionaryListComponent </title>
<polygon fill="#fb8072" stroke="#000000" points="552.4797,-252 385.5203,-252 385.5203,-216 552.4797,-216 552.4797,-252"/>
<text text-anchor="middle" x="469" y="-229.8" font-family="Times,serif" font-size="14.00" fill="#000000">DictionaryListComponent </text>
</g>
<!-- DictionaryModule&#45;&gt;DictionaryListComponent  -->
<g id="edge5" class="edge">
<title>DictionaryModule&#45;&gt;DictionaryListComponent </title>
<path fill="none" stroke="#000000" stroke-dasharray="5,2" d="M469,-187.1061C469,-187.1061 469,-205.991 469,-205.991"/>
<polygon fill="#000000" stroke="#000000" points="465.5001,-205.9909 469,-215.991 472.5001,-205.991 465.5001,-205.9909"/>
</g>
<!-- SharedModule -->
<g id="node5" class="node">
<title>SharedModule</title>
<polygon fill="#8dd3c7" stroke="#000000" points="350.4231,-122 347.4231,-126 326.4231,-126 323.4231,-122 251.5769,-122 251.5769,-86 350.4231,-86 350.4231,-122"/>
<text text-anchor="middle" x="301" y="-99.8" font-family="Times,serif" font-size="14.00" fill="#000000">SharedModule</text>
</g>
<!-- SharedModule&#45;&gt;DictionaryModule -->
<g id="edge4" class="edge">
<title>SharedModule&#45;&gt;DictionaryModule</title>
<path fill="none" stroke="#000000" d="M301,-122.0225C301,-139.3734 301,-163 301,-163 301,-163 398.8227,-163 398.8227,-163"/>
<polygon fill="#000000" stroke="#000000" points="398.8227,-166.5001 408.8227,-163 398.8226,-159.5001 398.8227,-166.5001"/>
</g>
<!-- DictionaryStoreService -->
<g id="node7" class="node">
<title>DictionaryStoreService</title>
<ellipse fill="#fdb462" stroke="#000000" cx="126" cy="-104" rx="101.8399" ry="18"/>
<text text-anchor="middle" x="126" y="-99.8" font-family="Times,serif" font-size="14.00" fill="#000000">DictionaryStoreService</text>
</g>
<!-- DictionaryStoreService&#45;&gt;DictionaryModule -->
<g id="edge6" class="edge">
<title>DictionaryStoreService&#45;&gt;DictionaryModule</title>
<path fill="none" stroke="#000000" d="M126,-122.2843C126,-143.3211 126,-175 126,-175 126,-175 399.254,-175 399.254,-175"/>
<polygon fill="#000000" stroke="#000000" points="399.254,-178.5001 409.254,-175 399.2539,-171.5001 399.254,-178.5001"/>
</g>
</g>
</svg>
