<?xml version="1.0" encoding="UTF-8" standalone="no"?>
<!DOCTYPE svg PUBLIC "-//W3C//DTD SVG 1.1//EN"
 "http://www.w3.org/Graphics/SVG/1.1/DTD/svg11.dtd">
<!-- Generated by graphviz version 2.40.1 (20161225.0304)
 -->
<!-- Title: dependencies Pages: 1 -->
<svg width="745pt" height="284pt"
 viewBox="0.00 0.00 745.00 284.00" xmlns="http://www.w3.org/2000/svg" xmlns:xlink="http://www.w3.org/1999/xlink">
<g id="graph0" class="graph" transform="scale(1 1) rotate(0) translate(4 280)">
<title>dependencies</title>
<polygon fill="#ffffff" stroke="transparent" points="-4,4 -4,-280 741,-280 741,4 -4,4"/>
<text text-anchor="start" x="347.5091" y="-42.4" font-family="sans-serif" font-weight="bold" font-size="14.00" fill="#000000">Legend</text>
<polygon fill="#ffffb3" stroke="transparent" points="134.5,-10 134.5,-30 154.5,-30 154.5,-10 134.5,-10"/>
<text text-anchor="start" x="158.129" y="-15.4" font-family="sans-serif" font-size="14.00" fill="#000000"> &#160;Declarations</text>
<polygon fill="#8dd3c7" stroke="transparent" points="247.5,-10 247.5,-30 267.5,-30 267.5,-10 247.5,-10"/>
<text text-anchor="start" x="271.2251" y="-15.4" font-family="sans-serif" font-size="14.00" fill="#000000"> &#160;Module</text>
<polygon fill="#80b1d3" stroke="transparent" points="333.5,-10 333.5,-30 353.5,-30 353.5,-10 333.5,-10"/>
<text text-anchor="start" x="357.2812" y="-15.4" font-family="sans-serif" font-size="14.00" fill="#000000"> &#160;Bootstrap</text>
<polygon fill="#fdb462" stroke="transparent" points="430.5,-10 430.5,-30 450.5,-30 450.5,-10 430.5,-10"/>
<text text-anchor="start" x="454.1732" y="-15.4" font-family="sans-serif" font-size="14.00" fill="#000000"> &#160;Providers</text>
<polygon fill="#fb8072" stroke="transparent" points="526.5,-10 526.5,-30 546.5,-30 546.5,-10 526.5,-10"/>
<text text-anchor="start" x="550.2258" y="-15.4" font-family="sans-serif" font-size="14.00" fill="#000000"> &#160;Exports</text>
<g id="clust1" class="cluster">
<title>cluster_TableModule</title>
<polygon fill="none" stroke="#000000" stroke-dasharray="1,5" points="8,-70 8,-268 729,-268 729,-70 8,-70"/>
</g>
<g id="clust2" class="cluster">
<title>cluster_TableModule_declarations</title>
<polygon fill="none" stroke="#000000" points="414,-78 414,-130 721,-130 721,-78 414,-78"/>
</g>
<g id="clust6" class="cluster">
<title>cluster_TableModule_exports</title>
<polygon fill="none" stroke="#000000" points="227,-208 227,-260 541,-260 541,-208 227,-208"/>
</g>
<g id="clust8" class="cluster">
<title>cluster_TableModule_providers</title>
<polygon fill="none" stroke="#000000" points="16,-78 16,-130 406,-130 406,-78 16,-78"/>
</g>
<!-- TableItemComponent -->
<g id="node1" class="node">
<title>TableItemComponent</title>
<polygon fill="#ffffb3" stroke="#000000" points="713.3613,-122 574.6387,-122 574.6387,-86 713.3613,-86 713.3613,-122"/>
<text text-anchor="middle" x="644" y="-99.8" font-family="Times,serif" font-size="14.00" fill="#000000">TableItemComponent</text>
</g>
<!-- TableModule -->
<g id="node3" class="node">
<title>TableModule</title>
<polygon fill="#8dd3c7" stroke="#000000" points="428.9232,-187 425.9232,-191 404.9232,-191 401.9232,-187 337.0768,-187 337.0768,-151 428.9232,-151 428.9232,-187"/>
<text text-anchor="middle" x="383" y="-164.8" font-family="Times,serif" font-size="14.00" fill="#000000">TableModule</text>
</g>
<!-- TableItemComponent&#45;&gt;TableModule -->
<g id="edge1" class="edge">
<title>TableItemComponent&#45;&gt;TableModule</title>
<path fill="none" stroke="#000000" d="M644,-122.1061C644,-141.3391 644,-169 644,-169 644,-169 438.7614,-169 438.7614,-169"/>
<polygon fill="#000000" stroke="#000000" points="438.7614,-165.5001 428.7614,-169 438.7614,-172.5001 438.7614,-165.5001"/>
</g>
<!-- TableListComponent -->
<g id="node2" class="node">
<title>TableListComponent</title>
<polygon fill="#ffffb3" stroke="#000000" points="556.4832,-122 421.5168,-122 421.5168,-86 556.4832,-86 556.4832,-122"/>
<text text-anchor="middle" x="489" y="-99.8" font-family="Times,serif" font-size="14.00" fill="#000000">TableListComponent</text>
</g>
<!-- TableListComponent&#45;&gt;TableModule -->
<g id="edge2" class="edge">
<title>TableListComponent&#45;&gt;TableModule</title>
<path fill="none" stroke="#000000" d="M425.1098,-122.1061C425.1098,-122.1061 425.1098,-140.991 425.1098,-140.991"/>
<polygon fill="#000000" stroke="#000000" points="421.6098,-140.9909 425.1098,-150.991 428.6098,-140.991 421.6098,-140.9909"/>
</g>
<!-- TableItemComponent  -->
<g id="node4" class="node">
<title>TableItemComponent </title>
<polygon fill="#fb8072" stroke="#000000" points="533.3617,-252 390.6383,-252 390.6383,-216 533.3617,-216 533.3617,-252"/>
<text text-anchor="middle" x="462" y="-229.8" font-family="Times,serif" font-size="14.00" fill="#000000">TableItemComponent </text>
</g>
<!-- TableModule&#45;&gt;TableItemComponent  -->
<g id="edge3" class="edge">
<title>TableModule&#45;&gt;TableItemComponent </title>
<path fill="none" stroke="#000000" stroke-dasharray="5,2" d="M409.7653,-187.1061C409.7653,-187.1061 409.7653,-205.991 409.7653,-205.991"/>
<polygon fill="#000000" stroke="#000000" points="406.2653,-205.9909 409.7653,-215.991 413.2653,-205.991 406.2653,-205.9909"/>
</g>
<!-- TableListComponent  -->
<g id="node5" class="node">
<title>TableListComponent </title>
<polygon fill="#fb8072" stroke="#000000" points="373.484,-252 234.516,-252 234.516,-216 373.484,-216 373.484,-252"/>
<text text-anchor="middle" x="304" y="-229.8" font-family="Times,serif" font-size="14.00" fill="#000000">TableListComponent </text>
</g>
<!-- TableModule&#45;&gt;TableListComponent  -->
<g id="edge4" class="edge">
<title>TableModule&#45;&gt;TableListComponent </title>
<path fill="none" stroke="#000000" stroke-dasharray="5,2" d="M355.2653,-187.1061C355.2653,-187.1061 355.2653,-205.991 355.2653,-205.991"/>
<polygon fill="#000000" stroke="#000000" points="351.7653,-205.9909 355.2653,-215.991 358.7653,-205.991 351.7653,-205.9909"/>
</g>
<!-- TableConfigurationService -->
<g id="node6" class="node">
<title>TableConfigurationService</title>
<ellipse fill="#fdb462" stroke="#000000" cx="282" cy="-104" rx="116.3107" ry="18"/>
<text text-anchor="middle" x="282" y="-99.8" font-family="Times,serif" font-size="14.00" fill="#000000">TableConfigurationService</text>
</g>
<!-- TableConfigurationService&#45;&gt;TableModule -->
<g id="edge5" class="edge">
<title>TableConfigurationService&#45;&gt;TableModule</title>
<path fill="none" stroke="#000000" d="M367.7221,-116.226C367.7221,-116.226 367.7221,-140.683 367.7221,-140.683"/>
<polygon fill="#000000" stroke="#000000" points="364.2222,-140.683 367.7221,-150.683 371.2222,-140.683 364.2222,-140.683"/>
</g>
<!-- TableService -->
<g id="node7" class="node">
<title>TableService</title>
<ellipse fill="#fdb462" stroke="#000000" cx="86" cy="-104" rx="61.9538" ry="18"/>
<text text-anchor="middle" x="86" y="-99.8" font-family="Times,serif" font-size="14.00" fill="#000000">TableService</text>
</g>
<!-- TableService&#45;&gt;TableModule -->
<g id="edge6" class="edge">
<title>TableService&#45;&gt;TableModule</title>
<path fill="none" stroke="#000000" d="M86,-122.1061C86,-141.3391 86,-169 86,-169 86,-169 327.2446,-169 327.2446,-169"/>
<polygon fill="#000000" stroke="#000000" points="327.2447,-172.5001 337.2446,-169 327.2446,-165.5001 327.2447,-172.5001"/>
</g>
</g>
</svg>
