<?xml version="1.0" encoding="UTF-8" standalone="no"?>
<!DOCTYPE svg PUBLIC "-//W3C//DTD SVG 1.1//EN"
 "http://www.w3.org/Graphics/SVG/1.1/DTD/svg11.dtd">
<!-- Generated by graphviz version 2.40.1 (20161225.0304)
 -->
<!-- Title: dependencies Pages: 1 -->
<svg width="3093pt" height="284pt"
 viewBox="0.00 0.00 3093.00 284.00" xmlns="http://www.w3.org/2000/svg" xmlns:xlink="http://www.w3.org/1999/xlink">
<g id="graph0" class="graph" transform="scale(1 1) rotate(0) translate(4 280)">
<title>dependencies</title>
<polygon fill="#ffffff" stroke="transparent" points="-4,4 -4,-280 3089,-280 3089,4 -4,4"/>
<text text-anchor="start" x="1521.5091" y="-42.4" font-family="sans-serif" font-weight="bold" font-size="14.00" fill="#000000">Legend</text>
<polygon fill="#ffffb3" stroke="transparent" points="1308.5,-10 1308.5,-30 1328.5,-30 1328.5,-10 1308.5,-10"/>
<text text-anchor="start" x="1332.129" y="-15.4" font-family="sans-serif" font-size="14.00" fill="#000000"> &#160;Declarations</text>
<polygon fill="#8dd3c7" stroke="transparent" points="1421.5,-10 1421.5,-30 1441.5,-30 1441.5,-10 1421.5,-10"/>
<text text-anchor="start" x="1445.2251" y="-15.4" font-family="sans-serif" font-size="14.00" fill="#000000"> &#160;Module</text>
<polygon fill="#80b1d3" stroke="transparent" points="1507.5,-10 1507.5,-30 1527.5,-30 1527.5,-10 1507.5,-10"/>
<text text-anchor="start" x="1531.2812" y="-15.4" font-family="sans-serif" font-size="14.00" fill="#000000"> &#160;Bootstrap</text>
<polygon fill="#fdb462" stroke="transparent" points="1604.5,-10 1604.5,-30 1624.5,-30 1624.5,-10 1604.5,-10"/>
<text text-anchor="start" x="1628.1732" y="-15.4" font-family="sans-serif" font-size="14.00" fill="#000000"> &#160;Providers</text>
<polygon fill="#fb8072" stroke="transparent" points="1700.5,-10 1700.5,-30 1720.5,-30 1720.5,-10 1700.5,-10"/>
<text text-anchor="start" x="1724.2258" y="-15.4" font-family="sans-serif" font-size="14.00" fill="#000000"> &#160;Exports</text>
<g id="clust1" class="cluster">
<title>cluster_NgxDhis2ChartModule</title>
<polygon fill="none" stroke="#000000" stroke-dasharray="1,5" points="8,-70 8,-268 3077,-268 3077,-70 8,-70"/>
</g>
<g id="clust2" class="cluster">
<title>cluster_NgxDhis2ChartModule_declarations</title>
<polygon fill="none" stroke="#000000" points="38,-78 38,-130 3047,-130 3047,-78 38,-78"/>
</g>
<g id="clust17" class="cluster">
<title>cluster_NgxDhis2ChartModule_exports</title>
<polygon fill="none" stroke="#000000" points="16,-208 16,-260 3069,-260 3069,-208 16,-208"/>
</g>
<!-- AddDashboardComponent -->
<g id="node1" class="node">
<title>AddDashboardComponent</title>
<polygon fill="#ffffb3" stroke="#000000" points="3039.08,-122 2872.92,-122 2872.92,-86 3039.08,-86 3039.08,-122"/>
<text text-anchor="middle" x="2956" y="-99.8" font-family="Times,serif" font-size="14.00" fill="#000000">AddDashboardComponent</text>
</g>
<!-- NgxDhis2ChartModule -->
<g id="node14" class="node">
<title>NgxDhis2ChartModule</title>
<polygon fill="#8dd3c7" stroke="#000000" points="1504.2007,-187 1501.2007,-191 1480.2007,-191 1477.2007,-187 1355.7993,-187 1355.7993,-151 1504.2007,-151 1504.2007,-187"/>
<text text-anchor="middle" x="1430" y="-164.8" font-family="Times,serif" font-size="14.00" fill="#000000">NgxDhis2ChartModule</text>
</g>
<!-- AddDashboardComponent&#45;&gt;NgxDhis2ChartModule -->
<g id="edge1" class="edge">
<title>AddDashboardComponent&#45;&gt;NgxDhis2ChartModule</title>
<path fill="none" stroke="#000000" d="M2882.4397,-122.1686C2882.4397,-141.0898 2882.4397,-168 2882.4397,-168 2882.4397,-168 1514.2748,-168 1514.2748,-168"/>
<polygon fill="#000000" stroke="#000000" points="1514.2749,-164.5001 1504.2748,-168 1514.2748,-171.5001 1514.2749,-164.5001"/>
</g>
<!-- CurrentDashboardBookmarkComponent -->
<g id="node2" class="node">
<title>CurrentDashboardBookmarkComponent</title>
<polygon fill="#ffffb3" stroke="#000000" points="2854.8389,-122 2611.1611,-122 2611.1611,-86 2854.8389,-86 2854.8389,-122"/>
<text text-anchor="middle" x="2733" y="-99.8" font-family="Times,serif" font-size="14.00" fill="#000000">CurrentDashboardBookmarkComponent</text>
</g>
<!-- CurrentDashboardBookmarkComponent&#45;&gt;NgxDhis2ChartModule -->
<g id="edge2" class="edge">
<title>CurrentDashboardBookmarkComponent&#45;&gt;NgxDhis2ChartModule</title>
<path fill="none" stroke="#000000" d="M2618.7056,-122.302C2618.7056,-140.2699 2618.7056,-165 2618.7056,-165 2618.7056,-165 1514.3589,-165 1514.3589,-165"/>
<polygon fill="#000000" stroke="#000000" points="1514.3589,-161.5001 1504.3589,-165 1514.3588,-168.5001 1514.3589,-161.5001"/>
</g>
<!-- CurrentDashboardDescriptionComponent -->
<g id="node3" class="node">
<title>CurrentDashboardDescriptionComponent</title>
<polygon fill="#ffffb3" stroke="#000000" points="2593.0492,-122 2342.9508,-122 2342.9508,-86 2593.0492,-86 2593.0492,-122"/>
<text text-anchor="middle" x="2468" y="-99.8" font-family="Times,serif" font-size="14.00" fill="#000000">CurrentDashboardDescriptionComponent</text>
</g>
<!-- CurrentDashboardDescriptionComponent&#45;&gt;NgxDhis2ChartModule -->
<g id="edge3" class="edge">
<title>CurrentDashboardDescriptionComponent&#45;&gt;NgxDhis2ChartModule</title>
<path fill="none" stroke="#000000" d="M2349.1004,-122.0225C2349.1004,-139.3734 2349.1004,-163 2349.1004,-163 2349.1004,-163 1514.4353,-163 1514.4353,-163"/>
<polygon fill="#000000" stroke="#000000" points="1514.4353,-159.5001 1504.4353,-163 1514.4353,-166.5001 1514.4353,-159.5001"/>
</g>
<!-- CurrentDashboardGlobalFilterComponent -->
<g id="node4" class="node">
<title>CurrentDashboardGlobalFilterComponent</title>
<polygon fill="#ffffb3" stroke="#000000" points="2324.6685,-122 2071.3315,-122 2071.3315,-86 2324.6685,-86 2324.6685,-122"/>
<text text-anchor="middle" x="2198" y="-99.8" font-family="Times,serif" font-size="14.00" fill="#000000">CurrentDashboardGlobalFilterComponent</text>
</g>
<!-- CurrentDashboardGlobalFilterComponent&#45;&gt;NgxDhis2ChartModule -->
<g id="edge4" class="edge">
<title>CurrentDashboardGlobalFilterComponent&#45;&gt;NgxDhis2ChartModule</title>
<path fill="none" stroke="#000000" d="M2076.0408,-122.027C2076.0408,-138.3976 2076.0408,-160 2076.0408,-160 2076.0408,-160 1514.1091,-160 1514.1091,-160"/>
<polygon fill="#000000" stroke="#000000" points="1514.1091,-156.5001 1504.1091,-160 1514.1091,-163.5001 1514.1091,-156.5001"/>
</g>
<!-- CurrentDashboardHeaderComponent -->
<g id="node5" class="node">
<title>CurrentDashboardHeaderComponent</title>
<polygon fill="#ffffb3" stroke="#000000" points="2053.6474,-122 1828.3526,-122 1828.3526,-86 2053.6474,-86 2053.6474,-122"/>
<text text-anchor="middle" x="1941" y="-99.8" font-family="Times,serif" font-size="14.00" fill="#000000">CurrentDashboardHeaderComponent</text>
</g>
<!-- CurrentDashboardHeaderComponent&#45;&gt;NgxDhis2ChartModule -->
<g id="edge5" class="edge">
<title>CurrentDashboardHeaderComponent&#45;&gt;NgxDhis2ChartModule</title>
<path fill="none" stroke="#000000" d="M1980.2746,-122.2396C1980.2746,-137.5706 1980.2746,-157 1980.2746,-157 1980.2746,-157 1514.2125,-157 1514.2125,-157"/>
<polygon fill="#000000" stroke="#000000" points="1514.2125,-153.5001 1504.2125,-157 1514.2124,-160.5001 1514.2125,-153.5001"/>
</g>
<!-- CurrentDashboardItemSearchComponent -->
<g id="node6" class="node">
<title>CurrentDashboardItemSearchComponent</title>
<polygon fill="#ffffb3" stroke="#000000" points="1810.4803,-122 1561.5197,-122 1561.5197,-86 1810.4803,-86 1810.4803,-122"/>
<text text-anchor="middle" x="1686" y="-99.8" font-family="Times,serif" font-size="14.00" fill="#000000">CurrentDashboardItemSearchComponent</text>
</g>
<!-- CurrentDashboardItemSearchComponent&#45;&gt;NgxDhis2ChartModule -->
<g id="edge6" class="edge">
<title>CurrentDashboardItemSearchComponent&#45;&gt;NgxDhis2ChartModule</title>
<path fill="none" stroke="#000000" d="M1728.1633,-122.0511C1728.1633,-136.373 1728.1633,-154 1728.1633,-154 1728.1633,-154 1514.4701,-154 1514.4701,-154"/>
<polygon fill="#000000" stroke="#000000" points="1514.4701,-150.5001 1504.4701,-154 1514.47,-157.5001 1514.4701,-150.5001"/>
</g>
<!-- CurrentDashboardSharingComponent -->
<g id="node7" class="node">
<title>CurrentDashboardSharingComponent</title>
<polygon fill="#ffffb3" stroke="#000000" points="1544.285,-122 1315.715,-122 1315.715,-86 1544.285,-86 1544.285,-122"/>
<text text-anchor="middle" x="1430" y="-99.8" font-family="Times,serif" font-size="14.00" fill="#000000">CurrentDashboardSharingComponent</text>
</g>
<!-- CurrentDashboardSharingComponent&#45;&gt;NgxDhis2ChartModule -->
<g id="edge7" class="edge">
<title>CurrentDashboardSharingComponent&#45;&gt;NgxDhis2ChartModule</title>
<path fill="none" stroke="#000000" d="M1430,-122.1061C1430,-122.1061 1430,-140.991 1430,-140.991"/>
<polygon fill="#000000" stroke="#000000" points="1426.5001,-140.9909 1430,-150.991 1433.5001,-140.991 1426.5001,-140.9909"/>
</g>
<!-- CurrentDashboardTitleComponent -->
<g id="node8" class="node">
<title>CurrentDashboardTitleComponent</title>
<polygon fill="#ffffb3" stroke="#000000" points="1297.6755,-122 1086.3245,-122 1086.3245,-86 1297.6755,-86 1297.6755,-122"/>
<text text-anchor="middle" x="1192" y="-99.8" font-family="Times,serif" font-size="14.00" fill="#000000">CurrentDashboardTitleComponent</text>
</g>
<!-- CurrentDashboardTitleComponent&#45;&gt;NgxDhis2ChartModule -->
<g id="edge8" class="edge">
<title>CurrentDashboardTitleComponent&#45;&gt;NgxDhis2ChartModule</title>
<path fill="none" stroke="#000000" d="M1226.3626,-122.0511C1226.3626,-136.373 1226.3626,-154 1226.3626,-154 1226.3626,-154 1345.6178,-154 1345.6178,-154"/>
<polygon fill="#000000" stroke="#000000" points="1345.6178,-157.5001 1355.6178,-154 1345.6178,-150.5001 1345.6178,-157.5001"/>
</g>
<!-- DashboardMenuComponent -->
<g id="node9" class="node">
<title>DashboardMenuComponent</title>
<polygon fill="#ffffb3" stroke="#000000" points="1068.133,-122 893.867,-122 893.867,-86 1068.133,-86 1068.133,-122"/>
<text text-anchor="middle" x="981" y="-99.8" font-family="Times,serif" font-size="14.00" fill="#000000">DashboardMenuComponent</text>
</g>
<!-- DashboardMenuComponent&#45;&gt;NgxDhis2ChartModule -->
<g id="edge9" class="edge">
<title>DashboardMenuComponent&#45;&gt;NgxDhis2ChartModule</title>
<path fill="none" stroke="#000000" d="M1007.2721,-122.2396C1007.2721,-137.5706 1007.2721,-157 1007.2721,-157 1007.2721,-157 1345.8827,-157 1345.8827,-157"/>
<polygon fill="#000000" stroke="#000000" points="1345.8827,-160.5001 1355.8827,-157 1345.8826,-153.5001 1345.8827,-160.5001"/>
</g>
<!-- DashboardMenuItemComponent -->
<g id="node10" class="node">
<title>DashboardMenuItemComponent</title>
<polygon fill="#ffffb3" stroke="#000000" points="876.2892,-122 675.7108,-122 675.7108,-86 876.2892,-86 876.2892,-122"/>
<text text-anchor="middle" x="776" y="-99.8" font-family="Times,serif" font-size="14.00" fill="#000000">DashboardMenuItemComponent</text>
</g>
<!-- DashboardMenuItemComponent&#45;&gt;NgxDhis2ChartModule -->
<g id="edge10" class="edge">
<title>DashboardMenuItemComponent&#45;&gt;NgxDhis2ChartModule</title>
<path fill="none" stroke="#000000" d="M872.0195,-122.027C872.0195,-138.3976 872.0195,-160 872.0195,-160 872.0195,-160 1345.6161,-160 1345.6161,-160"/>
<polygon fill="#000000" stroke="#000000" points="1345.6161,-163.5001 1355.6161,-160 1345.6161,-156.5001 1345.6161,-163.5001"/>
</g>
<!-- DashboardProgressComponent -->
<g id="node11" class="node">
<title>DashboardProgressComponent</title>
<polygon fill="#ffffb3" stroke="#000000" points="658.1811,-122 467.8189,-122 467.8189,-86 658.1811,-86 658.1811,-122"/>
<text text-anchor="middle" x="563" y="-99.8" font-family="Times,serif" font-size="14.00" fill="#000000">DashboardProgressComponent</text>
</g>
<!-- DashboardProgressComponent&#45;&gt;NgxDhis2ChartModule -->
<g id="edge11" class="edge">
<title>DashboardProgressComponent&#45;&gt;NgxDhis2ChartModule</title>
<path fill="none" stroke="#000000" d="M651.9655,-122.0225C651.9655,-139.3734 651.9655,-163 651.9655,-163 651.9655,-163 1345.7512,-163 1345.7512,-163"/>
<polygon fill="#000000" stroke="#000000" points="1345.7513,-166.5001 1355.7512,-163 1345.7512,-159.5001 1345.7513,-166.5001"/>
</g>
<!-- DefaultDashboardListComponent -->
<g id="node12" class="node">
<title>DefaultDashboardListComponent</title>
<polygon fill="#ffffb3" stroke="#000000" points="449.7296,-122 244.2704,-122 244.2704,-86 449.7296,-86 449.7296,-122"/>
<text text-anchor="middle" x="347" y="-99.8" font-family="Times,serif" font-size="14.00" fill="#000000">DefaultDashboardListComponent</text>
</g>
<!-- DefaultDashboardListComponent&#45;&gt;NgxDhis2ChartModule -->
<g id="edge12" class="edge">
<title>DefaultDashboardListComponent&#45;&gt;NgxDhis2ChartModule</title>
<path fill="none" stroke="#000000" d="M442.2397,-122.302C442.2397,-140.2699 442.2397,-165 442.2397,-165 442.2397,-165 1345.7574,-165 1345.7574,-165"/>
<polygon fill="#000000" stroke="#000000" points="1345.7575,-168.5001 1355.7574,-165 1345.7574,-161.5001 1345.7575,-168.5001"/>
</g>
<!-- InterventionFormComponent -->
<g id="node13" class="node">
<title>InterventionFormComponent</title>
<polygon fill="#ffffb3" stroke="#000000" points="226.0884,-122 45.9116,-122 45.9116,-86 226.0884,-86 226.0884,-122"/>
<text text-anchor="middle" x="136" y="-99.8" font-family="Times,serif" font-size="14.00" fill="#000000">InterventionFormComponent</text>
</g>
<!-- InterventionFormComponent&#45;&gt;NgxDhis2ChartModule -->
<g id="edge13" class="edge">
<title>InterventionFormComponent&#45;&gt;NgxDhis2ChartModule</title>
<path fill="none" stroke="#000000" d="M216.5898,-122.1686C216.5898,-141.0898 216.5898,-168 216.5898,-168 216.5898,-168 1345.4675,-168 1345.4675,-168"/>
<polygon fill="#000000" stroke="#000000" points="1345.4675,-171.5001 1355.4675,-168 1345.4675,-164.5001 1345.4675,-171.5001"/>
</g>
<!-- AddDashboardComponent  -->
<g id="node15" class="node">
<title>AddDashboardComponent </title>
<polygon fill="#fb8072" stroke="#000000" points="3060.5805,-252 2891.4195,-252 2891.4195,-216 3060.5805,-216 3060.5805,-252"/>
<text text-anchor="middle" x="2976" y="-229.8" font-family="Times,serif" font-size="14.00" fill="#000000">AddDashboardComponent </text>
</g>
<!-- NgxDhis2ChartModule&#45;&gt;AddDashboardComponent  -->
<g id="edge14" class="edge">
<title>NgxDhis2ChartModule&#45;&gt;AddDashboardComponent </title>
<path fill="none" stroke="#000000" stroke-dasharray="5,2" d="M1504.3015,-171C1811.3392,-171 2965.125,-171 2965.125,-171 2965.125,-171 2965.125,-205.7778 2965.125,-205.7778"/>
<polygon fill="#000000" stroke="#000000" points="2961.6251,-205.7778 2965.125,-215.7778 2968.6251,-205.7778 2961.6251,-205.7778"/>
</g>
<!-- CurrentDashboardBookmarkComponent  -->
<g id="node16" class="node">
<title>CurrentDashboardBookmarkComponent </title>
<polygon fill="#fb8072" stroke="#000000" points="2873.839,-252 2626.161,-252 2626.161,-216 2873.839,-216 2873.839,-252"/>
<text text-anchor="middle" x="2750" y="-229.8" font-family="Times,serif" font-size="14.00" fill="#000000">CurrentDashboardBookmarkComponent </text>
</g>
<!-- NgxDhis2ChartModule&#45;&gt;CurrentDashboardBookmarkComponent  -->
<g id="edge15" class="edge">
<title>NgxDhis2ChartModule&#45;&gt;CurrentDashboardBookmarkComponent </title>
<path fill="none" stroke="#000000" stroke-dasharray="5,2" d="M1504.2201,-174C1781.4745,-174 2740.625,-174 2740.625,-174 2740.625,-174 2740.625,-205.998 2740.625,-205.998"/>
<polygon fill="#000000" stroke="#000000" points="2737.1251,-205.998 2740.625,-215.998 2744.1251,-205.9981 2737.1251,-205.998"/>
</g>
<!-- CurrentDashboardDescriptionComponent  -->
<g id="node17" class="node">
<title>CurrentDashboardDescriptionComponent </title>
<polygon fill="#fb8072" stroke="#000000" points="2608.5496,-252 2355.4504,-252 2355.4504,-216 2608.5496,-216 2608.5496,-252"/>
<text text-anchor="middle" x="2482" y="-229.8" font-family="Times,serif" font-size="14.00" fill="#000000">CurrentDashboardDescriptionComponent </text>
</g>
<!-- NgxDhis2ChartModule&#45;&gt;CurrentDashboardDescriptionComponent  -->
<g id="edge16" class="edge">
<title>NgxDhis2ChartModule&#45;&gt;CurrentDashboardDescriptionComponent </title>
<path fill="none" stroke="#000000" stroke-dasharray="5,2" d="M1504.2539,-176C1742.7936,-176 2474.125,-176 2474.125,-176 2474.125,-176 2474.125,-205.9664 2474.125,-205.9664"/>
<polygon fill="#000000" stroke="#000000" points="2470.6251,-205.9663 2474.125,-215.9664 2477.6251,-205.9664 2470.6251,-205.9663"/>
</g>
<!-- CurrentDashboardGlobalFilterComponent  -->
<g id="node18" class="node">
<title>CurrentDashboardGlobalFilterComponent </title>
<polygon fill="#fb8072" stroke="#000000" points="2337.1686,-252 2080.8314,-252 2080.8314,-216 2337.1686,-216 2337.1686,-252"/>
<text text-anchor="middle" x="2209" y="-229.8" font-family="Times,serif" font-size="14.00" fill="#000000">CurrentDashboardGlobalFilterComponent </text>
</g>
<!-- NgxDhis2ChartModule&#45;&gt;CurrentDashboardGlobalFilterComponent  -->
<g id="edge17" class="edge">
<title>NgxDhis2ChartModule&#45;&gt;CurrentDashboardGlobalFilterComponent </title>
<path fill="none" stroke="#000000" stroke-dasharray="5,2" d="M1504.4332,-179C1698.0743,-179 2202.625,-179 2202.625,-179 2202.625,-179 2202.625,-205.9909 2202.625,-205.9909"/>
<polygon fill="#000000" stroke="#000000" points="2199.1251,-205.9909 2202.625,-215.9909 2206.1251,-205.991 2199.1251,-205.9909"/>
</g>
<!-- CurrentDashboardHeaderComponent  -->
<g id="node19" class="node">
<title>CurrentDashboardHeaderComponent </title>
<polygon fill="#fb8072" stroke="#000000" points="2062.1477,-252 1833.8523,-252 1833.8523,-216 2062.1477,-216 2062.1477,-252"/>
<text text-anchor="middle" x="1948" y="-229.8" font-family="Times,serif" font-size="14.00" fill="#000000">CurrentDashboardHeaderComponent </text>
</g>
<!-- NgxDhis2ChartModule&#45;&gt;CurrentDashboardHeaderComponent  -->
<g id="edge18" class="edge">
<title>NgxDhis2ChartModule&#45;&gt;CurrentDashboardHeaderComponent </title>
<path fill="none" stroke="#000000" stroke-dasharray="5,2" d="M1504.2656,-182C1638.3273,-182 1906.9754,-182 1906.9754,-182 1906.9754,-182 1906.9754,-205.8129 1906.9754,-205.8129"/>
<polygon fill="#000000" stroke="#000000" points="1903.4755,-205.8129 1906.9754,-215.8129 1910.4755,-205.813 1903.4755,-205.8129"/>
</g>
<!-- CurrentDashboardItemSearchComponent  -->
<g id="node20" class="node">
<title>CurrentDashboardItemSearchComponent </title>
<polygon fill="#fb8072" stroke="#000000" points="1815.9798,-252 1564.0202,-252 1564.0202,-216 1815.9798,-216 1815.9798,-252"/>
<text text-anchor="middle" x="1690" y="-229.8" font-family="Times,serif" font-size="14.00" fill="#000000">CurrentDashboardItemSearchComponent </text>
</g>
<!-- NgxDhis2ChartModule&#45;&gt;CurrentDashboardItemSearchComponent  -->
<g id="edge19" class="edge">
<title>NgxDhis2ChartModule&#45;&gt;CurrentDashboardItemSearchComponent </title>
<path fill="none" stroke="#000000" stroke-dasharray="5,2" d="M1504.3648,-185C1566.871,-185 1646.0867,-185 1646.0867,-185 1646.0867,-185 1646.0867,-205.7542 1646.0867,-205.7542"/>
<polygon fill="#000000" stroke="#000000" points="1642.5868,-205.7542 1646.0867,-215.7542 1649.5868,-205.7542 1642.5868,-205.7542"/>
</g>
<!-- CurrentDashboardSharingComponent  -->
<g id="node21" class="node">
<title>CurrentDashboardSharingComponent </title>
<polygon fill="#fb8072" stroke="#000000" points="1545.7849,-252 1314.2151,-252 1314.2151,-216 1545.7849,-216 1545.7849,-252"/>
<text text-anchor="middle" x="1430" y="-229.8" font-family="Times,serif" font-size="14.00" fill="#000000">CurrentDashboardSharingComponent </text>
</g>
<!-- NgxDhis2ChartModule&#45;&gt;CurrentDashboardSharingComponent  -->
<g id="edge20" class="edge">
<title>NgxDhis2ChartModule&#45;&gt;CurrentDashboardSharingComponent </title>
<path fill="none" stroke="#000000" stroke-dasharray="5,2" d="M1430,-187.1061C1430,-187.1061 1430,-205.991 1430,-205.991"/>
<polygon fill="#000000" stroke="#000000" points="1426.5001,-205.9909 1430,-215.991 1433.5001,-205.991 1426.5001,-205.9909"/>
</g>
<!-- CurrentDashboardTitleComponent  -->
<g id="node22" class="node">
<title>CurrentDashboardTitleComponent </title>
<polygon fill="#fb8072" stroke="#000000" points="1296.1756,-252 1081.8244,-252 1081.8244,-216 1296.1756,-216 1296.1756,-252"/>
<text text-anchor="middle" x="1189" y="-229.8" font-family="Times,serif" font-size="14.00" fill="#000000">CurrentDashboardTitleComponent </text>
</g>
<!-- NgxDhis2ChartModule&#45;&gt;CurrentDashboardTitleComponent  -->
<g id="edge21" class="edge">
<title>NgxDhis2ChartModule&#45;&gt;CurrentDashboardTitleComponent </title>
<path fill="none" stroke="#000000" stroke-dasharray="5,2" d="M1355.5956,-185C1274.5735,-185 1156.3874,-185 1156.3874,-185 1156.3874,-185 1156.3874,-205.7542 1156.3874,-205.7542"/>
<polygon fill="#000000" stroke="#000000" points="1152.8875,-205.7542 1156.3874,-215.7542 1159.8875,-205.7542 1152.8875,-205.7542"/>
</g>
<!-- DashboardMenuComponent  -->
<g id="node23" class="node">
<title>DashboardMenuComponent </title>
<polygon fill="#fb8072" stroke="#000000" points="1064.1326,-252 885.8674,-252 885.8674,-216 1064.1326,-216 1064.1326,-252"/>
<text text-anchor="middle" x="975" y="-229.8" font-family="Times,serif" font-size="14.00" fill="#000000">DashboardMenuComponent </text>
</g>
<!-- NgxDhis2ChartModule&#45;&gt;DashboardMenuComponent  -->
<g id="edge22" class="edge">
<title>NgxDhis2ChartModule&#45;&gt;DashboardMenuComponent </title>
<path fill="none" stroke="#000000" stroke-dasharray="5,2" d="M1355.8634,-182C1221.2637,-182 950.4779,-182 950.4779,-182 950.4779,-182 950.4779,-205.8129 950.4779,-205.8129"/>
<polygon fill="#000000" stroke="#000000" points="946.978,-205.8129 950.4779,-215.8129 953.978,-205.813 946.978,-205.8129"/>
</g>
<!-- DashboardMenuItemComponent  -->
<g id="node24" class="node">
<title>DashboardMenuItemComponent </title>
<polygon fill="#fb8072" stroke="#000000" points="867.7891,-252 664.2109,-252 664.2109,-216 867.7891,-216 867.7891,-252"/>
<text text-anchor="middle" x="766" y="-229.8" font-family="Times,serif" font-size="14.00" fill="#000000">DashboardMenuItemComponent </text>
</g>
<!-- NgxDhis2ChartModule&#45;&gt;DashboardMenuItemComponent  -->
<g id="edge23" class="edge">
<title>NgxDhis2ChartModule&#45;&gt;DashboardMenuItemComponent </title>
<path fill="none" stroke="#000000" stroke-dasharray="5,2" d="M1355.784,-179C1183.6676,-179 771.875,-179 771.875,-179 771.875,-179 771.875,-205.9909 771.875,-205.9909"/>
<polygon fill="#000000" stroke="#000000" points="768.3751,-205.9909 771.875,-215.9909 775.3751,-205.991 768.3751,-205.9909"/>
</g>
<!-- DashboardProgressComponent  -->
<g id="node25" class="node">
<title>DashboardProgressComponent </title>
<polygon fill="#fb8072" stroke="#000000" points="645.6813,-252 452.3187,-252 452.3187,-216 645.6813,-216 645.6813,-252"/>
<text text-anchor="middle" x="549" y="-229.8" font-family="Times,serif" font-size="14.00" fill="#000000">DashboardProgressComponent </text>
</g>
<!-- NgxDhis2ChartModule&#45;&gt;DashboardProgressComponent  -->
<g id="edge24" class="edge">
<title>NgxDhis2ChartModule&#45;&gt;DashboardProgressComponent </title>
<path fill="none" stroke="#000000" stroke-dasharray="5,2" d="M1355.5579,-176C1144.4118,-176 556.875,-176 556.875,-176 556.875,-176 556.875,-205.9664 556.875,-205.9664"/>
<polygon fill="#000000" stroke="#000000" points="553.3751,-205.9663 556.875,-215.9664 560.3751,-205.9664 553.3751,-205.9663"/>
</g>
<!-- DefaultDashboardListComponent  -->
<g id="node26" class="node">
<title>DefaultDashboardListComponent </title>
<polygon fill="#fb8072" stroke="#000000" points="434.7295,-252 225.2705,-252 225.2705,-216 434.7295,-216 434.7295,-252"/>
<text text-anchor="middle" x="330" y="-229.8" font-family="Times,serif" font-size="14.00" fill="#000000">DefaultDashboardListComponent </text>
</g>
<!-- NgxDhis2ChartModule&#45;&gt;DefaultDashboardListComponent  -->
<g id="edge25" class="edge">
<title>NgxDhis2ChartModule&#45;&gt;DefaultDashboardListComponent </title>
<path fill="none" stroke="#000000" stroke-dasharray="5,2" d="M1355.8944,-174C1110.4238,-174 339.375,-174 339.375,-174 339.375,-174 339.375,-205.998 339.375,-205.998"/>
<polygon fill="#000000" stroke="#000000" points="335.8751,-205.998 339.375,-215.998 342.8751,-205.9981 335.8751,-205.998"/>
</g>
<!-- InterventionFormComponent  -->
<g id="node27" class="node">
<title>InterventionFormComponent </title>
<polygon fill="#fb8072" stroke="#000000" points="207.5889,-252 24.4111,-252 24.4111,-216 207.5889,-216 207.5889,-252"/>
<text text-anchor="middle" x="116" y="-229.8" font-family="Times,serif" font-size="14.00" fill="#000000">InterventionFormComponent </text>
</g>
<!-- NgxDhis2ChartModule&#45;&gt;InterventionFormComponent  -->
<g id="edge26" class="edge">
<title>NgxDhis2ChartModule&#45;&gt;InterventionFormComponent </title>
<path fill="none" stroke="#000000" stroke-dasharray="5,2" d="M1355.7319,-171C1079.4484,-171 126.875,-171 126.875,-171 126.875,-171 126.875,-205.7778 126.875,-205.7778"/>
<polygon fill="#000000" stroke="#000000" points="123.3751,-205.7778 126.875,-215.7778 130.3751,-205.7778 123.3751,-205.7778"/>
</g>
</g>
</svg>
