<?xml version="1.0" encoding="UTF-8" standalone="no"?>
<!DOCTYPE svg PUBLIC "-//W3C//DTD SVG 1.1//EN"
 "http://www.w3.org/Graphics/SVG/1.1/DTD/svg11.dtd">
<!-- Generated by graphviz version 2.40.1 (20161225.0304)
 -->
<!-- Title: dependencies Pages: 1 -->
<svg width="4179pt" height="284pt"
 viewBox="0.00 0.00 4179.00 284.00" xmlns="http://www.w3.org/2000/svg" xmlns:xlink="http://www.w3.org/1999/xlink">
<g id="graph0" class="graph" transform="scale(1 1) rotate(0) translate(4 280)">
<title>dependencies</title>
<polygon fill="#ffffff" stroke="transparent" points="-4,4 -4,-280 4175,-280 4175,4 -4,4"/>
<text text-anchor="start" x="2064.5091" y="-42.4" font-family="sans-serif" font-weight="bold" font-size="14.00" fill="#000000">Legend</text>
<polygon fill="#ffffb3" stroke="transparent" points="1851.5,-10 1851.5,-30 1871.5,-30 1871.5,-10 1851.5,-10"/>
<text text-anchor="start" x="1875.129" y="-15.4" font-family="sans-serif" font-size="14.00" fill="#000000"> &#160;Declarations</text>
<polygon fill="#8dd3c7" stroke="transparent" points="1964.5,-10 1964.5,-30 1984.5,-30 1984.5,-10 1964.5,-10"/>
<text text-anchor="start" x="1988.2251" y="-15.4" font-family="sans-serif" font-size="14.00" fill="#000000"> &#160;Module</text>
<polygon fill="#80b1d3" stroke="transparent" points="2050.5,-10 2050.5,-30 2070.5,-30 2070.5,-10 2050.5,-10"/>
<text text-anchor="start" x="2074.2812" y="-15.4" font-family="sans-serif" font-size="14.00" fill="#000000"> &#160;Bootstrap</text>
<polygon fill="#fdb462" stroke="transparent" points="2147.5,-10 2147.5,-30 2167.5,-30 2167.5,-10 2147.5,-10"/>
<text text-anchor="start" x="2171.1732" y="-15.4" font-family="sans-serif" font-size="14.00" fill="#000000"> &#160;Providers</text>
<polygon fill="#fb8072" stroke="transparent" points="2243.5,-10 2243.5,-30 2263.5,-30 2263.5,-10 2243.5,-10"/>
<text text-anchor="start" x="2267.2258" y="-15.4" font-family="sans-serif" font-size="14.00" fill="#000000"> &#160;Exports</text>
<g id="clust1" class="cluster">
<title>cluster_NgxDhis2OrgUnitFilterModule</title>
<polygon fill="none" stroke="#000000" stroke-dasharray="1,5" points="8,-70 8,-268 4163,-268 4163,-70 8,-70"/>
</g>
<g id="clust2" class="cluster">
<title>cluster_NgxDhis2OrgUnitFilterModule_declarations</title>
<polygon fill="none" stroke="#000000" points="16,-78 16,-130 4155,-130 4155,-78 16,-78"/>
</g>
<g id="clust23" class="cluster">
<title>cluster_NgxDhis2OrgUnitFilterModule_exports</title>
<polygon fill="none" stroke="#000000" points="1455,-208 1455,-260 2302,-260 2302,-208 1455,-208"/>
</g>
<!-- AddDashboardComponent -->
<g id="node1" class="node">
<title>AddDashboardComponent</title>
<polygon fill="#ffffb3" stroke="#000000" points="4147.08,-122 3980.92,-122 3980.92,-86 4147.08,-86 4147.08,-122"/>
<text text-anchor="middle" x="4064" y="-99.8" font-family="Times,serif" font-size="14.00" fill="#000000">AddDashboardComponent</text>
</g>
<!-- NgxDhis2OrgUnitFilterModule -->
<g id="node20" class="node">
<title>NgxDhis2OrgUnitFilterModule</title>
<polygon fill="#8dd3c7" stroke="#000000" points="1942.0828,-187 1939.0828,-191 1918.0828,-191 1915.0828,-187 1747.9172,-187 1747.9172,-151 1942.0828,-151 1942.0828,-187"/>
<text text-anchor="middle" x="1845" y="-164.8" font-family="Times,serif" font-size="14.00" fill="#000000">NgxDhis2OrgUnitFilterModule</text>
</g>
<!-- AddDashboardComponent&#45;&gt;NgxDhis2OrgUnitFilterModule -->
<g id="edge1" class="edge">
<title>AddDashboardComponent&#45;&gt;NgxDhis2OrgUnitFilterModule</title>
<path fill="none" stroke="#000000" d="M4064,-122.2479C4064,-145.0179 4064,-181 4064,-181 4064,-181 1952.1327,-181 1952.1327,-181"/>
<polygon fill="#000000" stroke="#000000" points="1952.1327,-177.5001 1942.1327,-181 1952.1327,-184.5001 1952.1327,-177.5001"/>
</g>
<!-- CurrentDashboardBookmarkComponent -->
<g id="node2" class="node">
<title>CurrentDashboardBookmarkComponent</title>
<polygon fill="#ffffb3" stroke="#000000" points="3962.8389,-122 3719.1611,-122 3719.1611,-86 3962.8389,-86 3962.8389,-122"/>
<text text-anchor="middle" x="3841" y="-99.8" font-family="Times,serif" font-size="14.00" fill="#000000">CurrentDashboardBookmarkComponent</text>
</g>
<!-- CurrentDashboardBookmarkComponent&#45;&gt;NgxDhis2OrgUnitFilterModule -->
<g id="edge2" class="edge">
<title>CurrentDashboardBookmarkComponent&#45;&gt;NgxDhis2OrgUnitFilterModule</title>
<path fill="none" stroke="#000000" d="M3841,-122.2921C3841,-144.2057 3841,-178 3841,-178 3841,-178 1952.2838,-178 1952.2838,-178"/>
<polygon fill="#000000" stroke="#000000" points="1952.2839,-174.5001 1942.2838,-178 1952.2838,-181.5001 1952.2839,-174.5001"/>
</g>
<!-- CurrentDashboardComponent -->
<g id="node3" class="node">
<title>CurrentDashboardComponent</title>
<polygon fill="#ffffb3" stroke="#000000" points="3701.2366,-122 3516.7634,-122 3516.7634,-86 3701.2366,-86 3701.2366,-122"/>
<text text-anchor="middle" x="3609" y="-99.8" font-family="Times,serif" font-size="14.00" fill="#000000">CurrentDashboardComponent</text>
</g>
<!-- CurrentDashboardComponent&#45;&gt;NgxDhis2OrgUnitFilterModule -->
<g id="edge3" class="edge">
<title>CurrentDashboardComponent&#45;&gt;NgxDhis2OrgUnitFilterModule</title>
<path fill="none" stroke="#000000" d="M3609,-122.0267C3609,-142.7672 3609,-174 3609,-174 3609,-174 1952.353,-174 1952.353,-174"/>
<polygon fill="#000000" stroke="#000000" points="1952.353,-170.5001 1942.353,-174 1952.3529,-177.5001 1952.353,-170.5001"/>
</g>
<!-- CurrentDashboardDescriptionComponent -->
<g id="node4" class="node">
<title>CurrentDashboardDescriptionComponent</title>
<polygon fill="#ffffb3" stroke="#000000" points="3499.0492,-122 3248.9508,-122 3248.9508,-86 3499.0492,-86 3499.0492,-122"/>
<text text-anchor="middle" x="3374" y="-99.8" font-family="Times,serif" font-size="14.00" fill="#000000">CurrentDashboardDescriptionComponent</text>
</g>
<!-- CurrentDashboardDescriptionComponent&#45;&gt;NgxDhis2OrgUnitFilterModule -->
<g id="edge4" class="edge">
<title>CurrentDashboardDescriptionComponent&#45;&gt;NgxDhis2OrgUnitFilterModule</title>
<path fill="none" stroke="#000000" d="M3374,-122.308C3374,-142.1455 3374,-171 3374,-171 3374,-171 1952.0967,-171 1952.0967,-171"/>
<polygon fill="#000000" stroke="#000000" points="1952.0967,-167.5001 1942.0967,-171 1952.0967,-174.5001 1952.0967,-167.5001"/>
</g>
<!-- CurrentDashboardGlobalFilterComponent -->
<g id="node5" class="node">
<title>CurrentDashboardGlobalFilterComponent</title>
<polygon fill="#ffffb3" stroke="#000000" points="3230.6685,-122 2977.3315,-122 2977.3315,-86 3230.6685,-86 3230.6685,-122"/>
<text text-anchor="middle" x="3104" y="-99.8" font-family="Times,serif" font-size="14.00" fill="#000000">CurrentDashboardGlobalFilterComponent</text>
</g>
<!-- CurrentDashboardGlobalFilterComponent&#45;&gt;NgxDhis2OrgUnitFilterModule -->
<g id="edge5" class="edge">
<title>CurrentDashboardGlobalFilterComponent&#45;&gt;NgxDhis2OrgUnitFilterModule</title>
<path fill="none" stroke="#000000" d="M3104,-122.1686C3104,-141.0898 3104,-168 3104,-168 3104,-168 1952.222,-168 1952.222,-168"/>
<polygon fill="#000000" stroke="#000000" points="1952.222,-164.5001 1942.222,-168 1952.2219,-171.5001 1952.222,-164.5001"/>
</g>
<!-- CurrentDashboardHeaderComponent -->
<g id="node6" class="node">
<title>CurrentDashboardHeaderComponent</title>
<polygon fill="#ffffb3" stroke="#000000" points="2959.6474,-122 2734.3526,-122 2734.3526,-86 2959.6474,-86 2959.6474,-122"/>
<text text-anchor="middle" x="2847" y="-99.8" font-family="Times,serif" font-size="14.00" fill="#000000">CurrentDashboardHeaderComponent</text>
</g>
<!-- CurrentDashboardHeaderComponent&#45;&gt;NgxDhis2OrgUnitFilterModule -->
<g id="edge6" class="edge">
<title>CurrentDashboardHeaderComponent&#45;&gt;NgxDhis2OrgUnitFilterModule</title>
<path fill="none" stroke="#000000" d="M2847,-122.302C2847,-140.2699 2847,-165 2847,-165 2847,-165 1952.4429,-165 1952.4429,-165"/>
<polygon fill="#000000" stroke="#000000" points="1952.443,-161.5001 1942.4429,-165 1952.4429,-168.5001 1952.443,-161.5001"/>
</g>
<!-- CurrentDashboardItemSearchComponent -->
<g id="node7" class="node">
<title>CurrentDashboardItemSearchComponent</title>
<polygon fill="#ffffb3" stroke="#000000" points="2716.4803,-122 2467.5197,-122 2467.5197,-86 2716.4803,-86 2716.4803,-122"/>
<text text-anchor="middle" x="2592" y="-99.8" font-family="Times,serif" font-size="14.00" fill="#000000">CurrentDashboardItemSearchComponent</text>
</g>
<!-- CurrentDashboardItemSearchComponent&#45;&gt;NgxDhis2OrgUnitFilterModule -->
<g id="edge7" class="edge">
<title>CurrentDashboardItemSearchComponent&#45;&gt;NgxDhis2OrgUnitFilterModule</title>
<path fill="none" stroke="#000000" d="M2592,-122.0352C2592,-138.7344 2592,-161 2592,-161 2592,-161 1952.274,-161 1952.274,-161"/>
<polygon fill="#000000" stroke="#000000" points="1952.274,-157.5001 1942.274,-161 1952.274,-164.5001 1952.274,-157.5001"/>
</g>
<!-- CurrentDashboardSharingComponent -->
<g id="node8" class="node">
<title>CurrentDashboardSharingComponent</title>
<polygon fill="#ffffb3" stroke="#000000" points="2450.285,-122 2221.715,-122 2221.715,-86 2450.285,-86 2450.285,-122"/>
<text text-anchor="middle" x="2336" y="-99.8" font-family="Times,serif" font-size="14.00" fill="#000000">CurrentDashboardSharingComponent</text>
</g>
<!-- CurrentDashboardSharingComponent&#45;&gt;NgxDhis2OrgUnitFilterModule -->
<g id="edge8" class="edge">
<title>CurrentDashboardSharingComponent&#45;&gt;NgxDhis2OrgUnitFilterModule</title>
<path fill="none" stroke="#000000" d="M2257.9879,-122.2819C2257.9879,-137.9478 2257.9879,-158 2257.9879,-158 2257.9879,-158 1952.0882,-158 1952.0882,-158"/>
<polygon fill="#000000" stroke="#000000" points="1952.0883,-154.5001 1942.0882,-158 1952.0882,-161.5001 1952.0883,-154.5001"/>
</g>
<!-- CurrentDashboardTitleComponent -->
<g id="node9" class="node">
<title>CurrentDashboardTitleComponent</title>
<polygon fill="#ffffb3" stroke="#000000" points="2203.6755,-122 1992.3245,-122 1992.3245,-86 2203.6755,-86 2203.6755,-122"/>
<text text-anchor="middle" x="2098" y="-99.8" font-family="Times,serif" font-size="14.00" fill="#000000">CurrentDashboardTitleComponent</text>
</g>
<!-- CurrentDashboardTitleComponent&#45;&gt;NgxDhis2OrgUnitFilterModule -->
<g id="edge9" class="edge">
<title>CurrentDashboardTitleComponent&#45;&gt;NgxDhis2OrgUnitFilterModule</title>
<path fill="none" stroke="#000000" d="M2039.9273,-122.1243C2039.9273,-136.7832 2039.9273,-155 2039.9273,-155 2039.9273,-155 1952.1781,-155 1952.1781,-155"/>
<polygon fill="#000000" stroke="#000000" points="1952.1781,-151.5001 1942.1781,-155 1952.1781,-158.5001 1952.1781,-151.5001"/>
</g>
<!-- CurrentDashboardVisualizationComponent -->
<g id="node10" class="node">
<title>CurrentDashboardVisualizationComponent</title>
<polygon fill="#ffffb3" stroke="#000000" points="1974.8847,-122 1715.1153,-122 1715.1153,-86 1974.8847,-86 1974.8847,-122"/>
<text text-anchor="middle" x="1845" y="-99.8" font-family="Times,serif" font-size="14.00" fill="#000000">CurrentDashboardVisualizationComponent</text>
</g>
<!-- CurrentDashboardVisualizationComponent&#45;&gt;NgxDhis2OrgUnitFilterModule -->
<g id="edge10" class="edge">
<title>CurrentDashboardVisualizationComponent&#45;&gt;NgxDhis2OrgUnitFilterModule</title>
<path fill="none" stroke="#000000" d="M1845,-122.1061C1845,-122.1061 1845,-140.991 1845,-140.991"/>
<polygon fill="#000000" stroke="#000000" points="1841.5001,-140.9909 1845,-150.991 1848.5001,-140.991 1841.5001,-140.9909"/>
</g>
<!-- DashboardComponent -->
<g id="node11" class="node">
<title>DashboardComponent</title>
<polygon fill="#ffffb3" stroke="#000000" points="1696.9734,-122 1555.0266,-122 1555.0266,-86 1696.9734,-86 1696.9734,-122"/>
<text text-anchor="middle" x="1626" y="-99.8" font-family="Times,serif" font-size="14.00" fill="#000000">DashboardComponent</text>
</g>
<!-- DashboardComponent&#45;&gt;NgxDhis2OrgUnitFilterModule -->
<g id="edge11" class="edge">
<title>DashboardComponent&#45;&gt;NgxDhis2OrgUnitFilterModule</title>
<path fill="none" stroke="#000000" d="M1679.125,-122.1243C1679.125,-136.7832 1679.125,-155 1679.125,-155 1679.125,-155 1737.5504,-155 1737.5504,-155"/>
<polygon fill="#000000" stroke="#000000" points="1737.5504,-158.5001 1747.5504,-155 1737.5503,-151.5001 1737.5504,-158.5001"/>
</g>
<!-- DashboardHomeComponent -->
<g id="node12" class="node">
<title>DashboardHomeComponent</title>
<polygon fill="#ffffb3" stroke="#000000" points="1537.1853,-122 1360.8147,-122 1360.8147,-86 1537.1853,-86 1537.1853,-122"/>
<text text-anchor="middle" x="1449" y="-99.8" font-family="Times,serif" font-size="14.00" fill="#000000">DashboardHomeComponent</text>
</g>
<!-- DashboardHomeComponent&#45;&gt;NgxDhis2OrgUnitFilterModule -->
<g id="edge12" class="edge">
<title>DashboardHomeComponent&#45;&gt;NgxDhis2OrgUnitFilterModule</title>
<path fill="none" stroke="#000000" d="M1500.125,-122.2819C1500.125,-137.9478 1500.125,-158 1500.125,-158 1500.125,-158 1737.5555,-158 1737.5555,-158"/>
<polygon fill="#000000" stroke="#000000" points="1737.5556,-161.5001 1747.5555,-158 1737.5555,-154.5001 1737.5556,-161.5001"/>
</g>
<!-- DashboardMenuComponent -->
<g id="node13" class="node">
<title>DashboardMenuComponent</title>
<polygon fill="#ffffb3" stroke="#000000" points="1343.133,-122 1168.867,-122 1168.867,-86 1343.133,-86 1343.133,-122"/>
<text text-anchor="middle" x="1256" y="-99.8" font-family="Times,serif" font-size="14.00" fill="#000000">DashboardMenuComponent</text>
</g>
<!-- DashboardMenuComponent&#45;&gt;NgxDhis2OrgUnitFilterModule -->
<g id="edge13" class="edge">
<title>DashboardMenuComponent&#45;&gt;NgxDhis2OrgUnitFilterModule</title>
<path fill="none" stroke="#000000" d="M1256,-122.0352C1256,-138.7344 1256,-161 1256,-161 1256,-161 1737.7386,-161 1737.7386,-161"/>
<polygon fill="#000000" stroke="#000000" points="1737.7387,-164.5001 1747.7386,-161 1737.7386,-157.5001 1737.7387,-164.5001"/>
</g>
<!-- DashboardMenuItemComponent -->
<g id="node14" class="node">
<title>DashboardMenuItemComponent</title>
<polygon fill="#ffffb3" stroke="#000000" points="1151.2892,-122 950.7108,-122 950.7108,-86 1151.2892,-86 1151.2892,-122"/>
<text text-anchor="middle" x="1051" y="-99.8" font-family="Times,serif" font-size="14.00" fill="#000000">DashboardMenuItemComponent</text>
</g>
<!-- DashboardMenuItemComponent&#45;&gt;NgxDhis2OrgUnitFilterModule -->
<g id="edge14" class="edge">
<title>DashboardMenuItemComponent&#45;&gt;NgxDhis2OrgUnitFilterModule</title>
<path fill="none" stroke="#000000" d="M1051,-122.302C1051,-140.2699 1051,-165 1051,-165 1051,-165 1737.64,-165 1737.64,-165"/>
<polygon fill="#000000" stroke="#000000" points="1737.64,-168.5001 1747.64,-165 1737.64,-161.5001 1737.64,-168.5001"/>
</g>
<!-- DashboardProgressComponent -->
<g id="node15" class="node">
<title>DashboardProgressComponent</title>
<polygon fill="#ffffb3" stroke="#000000" points="933.1811,-122 742.8189,-122 742.8189,-86 933.1811,-86 933.1811,-122"/>
<text text-anchor="middle" x="838" y="-99.8" font-family="Times,serif" font-size="14.00" fill="#000000">DashboardProgressComponent</text>
</g>
<!-- DashboardProgressComponent&#45;&gt;NgxDhis2OrgUnitFilterModule -->
<g id="edge15" class="edge">
<title>DashboardProgressComponent&#45;&gt;NgxDhis2OrgUnitFilterModule</title>
<path fill="none" stroke="#000000" d="M838,-122.1686C838,-141.0898 838,-168 838,-168 838,-168 1737.5296,-168 1737.5296,-168"/>
<polygon fill="#000000" stroke="#000000" points="1737.5297,-171.5001 1747.5296,-168 1737.5296,-164.5001 1737.5297,-171.5001"/>
</g>
<!-- DefaultDashboardListComponent -->
<g id="node16" class="node">
<title>DefaultDashboardListComponent</title>
<polygon fill="#ffffb3" stroke="#000000" points="724.7296,-122 519.2704,-122 519.2704,-86 724.7296,-86 724.7296,-122"/>
<text text-anchor="middle" x="622" y="-99.8" font-family="Times,serif" font-size="14.00" fill="#000000">DefaultDashboardListComponent</text>
</g>
<!-- DefaultDashboardListComponent&#45;&gt;NgxDhis2OrgUnitFilterModule -->
<g id="edge16" class="edge">
<title>DefaultDashboardListComponent&#45;&gt;NgxDhis2OrgUnitFilterModule</title>
<path fill="none" stroke="#000000" d="M622,-122.308C622,-142.1455 622,-171 622,-171 622,-171 1737.7547,-171 1737.7547,-171"/>
<polygon fill="#000000" stroke="#000000" points="1737.7547,-174.5001 1747.7547,-171 1737.7547,-167.5001 1737.7547,-174.5001"/>
</g>
<!-- FilterByNamePipe -->
<g id="node17" class="node">
<title>FilterByNamePipe</title>
<polygon fill="#ffffb3" stroke="#000000" points="501.4804,-122 380.5196,-122 380.5196,-86 501.4804,-86 501.4804,-122"/>
<text text-anchor="middle" x="441" y="-99.8" font-family="Times,serif" font-size="14.00" fill="#000000">FilterByNamePipe</text>
</g>
<!-- FilterByNamePipe&#45;&gt;NgxDhis2OrgUnitFilterModule -->
<g id="edge17" class="edge">
<title>FilterByNamePipe&#45;&gt;NgxDhis2OrgUnitFilterModule</title>
<path fill="none" stroke="#000000" d="M441,-122.0267C441,-142.7672 441,-174 441,-174 441,-174 1737.9434,-174 1737.9434,-174"/>
<polygon fill="#000000" stroke="#000000" points="1737.9435,-177.5001 1747.9434,-174 1737.9434,-170.5001 1737.9435,-177.5001"/>
</g>
<!-- InterventionFormComponent -->
<g id="node18" class="node">
<title>InterventionFormComponent</title>
<polygon fill="#ffffb3" stroke="#000000" points="362.0884,-122 181.9116,-122 181.9116,-86 362.0884,-86 362.0884,-122"/>
<text text-anchor="middle" x="272" y="-99.8" font-family="Times,serif" font-size="14.00" fill="#000000">InterventionFormComponent</text>
</g>
<!-- InterventionFormComponent&#45;&gt;NgxDhis2OrgUnitFilterModule -->
<g id="edge18" class="edge">
<title>InterventionFormComponent&#45;&gt;NgxDhis2OrgUnitFilterModule</title>
<path fill="none" stroke="#000000" d="M272,-122.2921C272,-144.2057 272,-178 272,-178 272,-178 1737.7889,-178 1737.7889,-178"/>
<polygon fill="#000000" stroke="#000000" points="1737.7889,-181.5001 1747.7889,-178 1737.7889,-174.5001 1737.7889,-181.5001"/>
</g>
<!-- SortByBookmarkPipe -->
<g id="node19" class="node">
<title>SortByBookmarkPipe</title>
<polygon fill="#ffffb3" stroke="#000000" points="163.661,-122 24.339,-122 24.339,-86 163.661,-86 163.661,-122"/>
<text text-anchor="middle" x="94" y="-99.8" font-family="Times,serif" font-size="14.00" fill="#000000">SortByBookmarkPipe</text>
</g>
<!-- SortByBookmarkPipe&#45;&gt;NgxDhis2OrgUnitFilterModule -->
<g id="edge19" class="edge">
<title>SortByBookmarkPipe&#45;&gt;NgxDhis2OrgUnitFilterModule</title>
<path fill="none" stroke="#000000" d="M94,-122.2479C94,-145.0179 94,-181 94,-181 94,-181 1737.7365,-181 1737.7365,-181"/>
<polygon fill="#000000" stroke="#000000" points="1737.7365,-184.5001 1747.7365,-181 1737.7364,-177.5001 1737.7365,-184.5001"/>
</g>
<!-- CurrentDashboardComponent  -->
<g id="node21" class="node">
<title>CurrentDashboardComponent </title>
<polygon fill="#fb8072" stroke="#000000" points="2294.2365,-252 2105.7635,-252 2105.7635,-216 2294.2365,-216 2294.2365,-252"/>
<text text-anchor="middle" x="2200" y="-229.8" font-family="Times,serif" font-size="14.00" fill="#000000">CurrentDashboardComponent </text>
</g>
<!-- NgxDhis2OrgUnitFilterModule&#45;&gt;CurrentDashboardComponent  -->
<g id="edge20" class="edge">
<title>NgxDhis2OrgUnitFilterModule&#45;&gt;CurrentDashboardComponent </title>
<path fill="none" stroke="#000000" stroke-dasharray="5,2" d="M1942.1522,-184C2032.9872,-184 2154.7348,-184 2154.7348,-184 2154.7348,-184 2154.7348,-205.9489 2154.7348,-205.9489"/>
<polygon fill="#000000" stroke="#000000" points="2151.2348,-205.9488 2154.7348,-215.9489 2158.2348,-205.9489 2151.2348,-205.9488"/>
</g>
<!-- CurrentDashboardVisualizationComponent  -->
<g id="node22" class="node">
<title>CurrentDashboardVisualizationComponent </title>
<polygon fill="#fb8072" stroke="#000000" points="2087.3844,-252 1824.6156,-252 1824.6156,-216 2087.3844,-216 2087.3844,-252"/>
<text text-anchor="middle" x="1956" y="-229.8" font-family="Times,serif" font-size="14.00" fill="#000000">CurrentDashboardVisualizationComponent </text>
</g>
<!-- NgxDhis2OrgUnitFilterModule&#45;&gt;CurrentDashboardVisualizationComponent  -->
<g id="edge21" class="edge">
<title>NgxDhis2OrgUnitFilterModule&#45;&gt;CurrentDashboardVisualizationComponent </title>
<path fill="none" stroke="#000000" stroke-dasharray="5,2" d="M1883.2996,-187.1061C1883.2996,-187.1061 1883.2996,-205.991 1883.2996,-205.991"/>
<polygon fill="#000000" stroke="#000000" points="1879.7997,-205.9909 1883.2996,-215.991 1886.7997,-205.991 1879.7997,-205.9909"/>
</g>
<!-- DashboardComponent  -->
<g id="node23" class="node">
<title>DashboardComponent </title>
<polygon fill="#fb8072" stroke="#000000" points="1806.9742,-252 1661.0258,-252 1661.0258,-216 1806.9742,-216 1806.9742,-252"/>
<text text-anchor="middle" x="1734" y="-229.8" font-family="Times,serif" font-size="14.00" fill="#000000">DashboardComponent </text>
</g>
<!-- NgxDhis2OrgUnitFilterModule&#45;&gt;DashboardComponent  -->
<g id="edge22" class="edge">
<title>NgxDhis2OrgUnitFilterModule&#45;&gt;DashboardComponent </title>
<path fill="none" stroke="#000000" stroke-dasharray="5,2" d="M1777.3477,-187.1061C1777.3477,-187.1061 1777.3477,-205.991 1777.3477,-205.991"/>
<polygon fill="#000000" stroke="#000000" points="1773.8477,-205.9909 1777.3477,-215.991 1780.8477,-205.991 1773.8477,-205.9909"/>
</g>
<!-- DashboardHomeComponent  -->
<g id="node24" class="node">
<title>DashboardHomeComponent </title>
<polygon fill="#fb8072" stroke="#000000" points="1642.6855,-252 1463.3145,-252 1463.3145,-216 1642.6855,-216 1642.6855,-252"/>
<text text-anchor="middle" x="1553" y="-229.8" font-family="Times,serif" font-size="14.00" fill="#000000">DashboardHomeComponent </text>
</g>
<!-- NgxDhis2OrgUnitFilterModule&#45;&gt;DashboardHomeComponent  -->
<g id="edge23" class="edge">
<title>NgxDhis2OrgUnitFilterModule&#45;&gt;DashboardHomeComponent </title>
<path fill="none" stroke="#000000" stroke-dasharray="5,2" d="M1747.7458,-184C1678.9644,-184 1598.928,-184 1598.928,-184 1598.928,-184 1598.928,-205.9489 1598.928,-205.9489"/>
<polygon fill="#000000" stroke="#000000" points="1595.428,-205.9488 1598.928,-215.9489 1602.428,-205.9489 1595.428,-205.9488"/>
</g>
</g>
</svg>
