<?xml version="1.0" encoding="UTF-8" standalone="no"?>
<!DOCTYPE svg PUBLIC "-//W3C//DTD SVG 1.1//EN"
 "http://www.w3.org/Graphics/SVG/1.1/DTD/svg11.dtd">
<!-- Generated by graphviz version 2.40.1 (20161225.0304)
 -->
<!-- Title: dependencies Pages: 1 -->
<svg width="4845pt" height="284pt"
 viewBox="0.00 0.00 4845.00 284.00" xmlns="http://www.w3.org/2000/svg" xmlns:xlink="http://www.w3.org/1999/xlink">
<g id="graph0" class="graph" transform="scale(1 1) rotate(0) translate(4 280)">
<title>dependencies</title>
<polygon fill="#ffffff" stroke="transparent" points="-4,4 -4,-280 4841,-280 4841,4 -4,4"/>
<text text-anchor="start" x="2397.5091" y="-42.4" font-family="sans-serif" font-weight="bold" font-size="14.00" fill="#000000">Legend</text>
<polygon fill="#ffffb3" stroke="transparent" points="2184.5,-10 2184.5,-30 2204.5,-30 2204.5,-10 2184.5,-10"/>
<text text-anchor="start" x="2208.129" y="-15.4" font-family="sans-serif" font-size="14.00" fill="#000000"> &#160;Declarations</text>
<polygon fill="#8dd3c7" stroke="transparent" points="2297.5,-10 2297.5,-30 2317.5,-30 2317.5,-10 2297.5,-10"/>
<text text-anchor="start" x="2321.2251" y="-15.4" font-family="sans-serif" font-size="14.00" fill="#000000"> &#160;Module</text>
<polygon fill="#80b1d3" stroke="transparent" points="2383.5,-10 2383.5,-30 2403.5,-30 2403.5,-10 2383.5,-10"/>
<text text-anchor="start" x="2407.2812" y="-15.4" font-family="sans-serif" font-size="14.00" fill="#000000"> &#160;Bootstrap</text>
<polygon fill="#fdb462" stroke="transparent" points="2480.5,-10 2480.5,-30 2500.5,-30 2500.5,-10 2480.5,-10"/>
<text text-anchor="start" x="2504.1732" y="-15.4" font-family="sans-serif" font-size="14.00" fill="#000000"> &#160;Providers</text>
<polygon fill="#fb8072" stroke="transparent" points="2576.5,-10 2576.5,-30 2596.5,-30 2596.5,-10 2576.5,-10"/>
<text text-anchor="start" x="2600.2258" y="-15.4" font-family="sans-serif" font-size="14.00" fill="#000000"> &#160;Exports</text>
<g id="clust1" class="cluster">
<title>cluster_NgxDhis2VisualizationModule</title>
<polygon fill="none" stroke="#000000" stroke-dasharray="1,5" points="8,-70 8,-268 4829,-268 4829,-70 8,-70"/>
</g>
<g id="clust2" class="cluster">
<title>cluster_NgxDhis2VisualizationModule_declarations</title>
<polygon fill="none" stroke="#000000" points="682,-78 682,-130 4821,-130 4821,-78 682,-78"/>
</g>
<g id="clust22" class="cluster">
<title>cluster_NgxDhis2VisualizationModule_imports</title>
<polygon fill="none" stroke="#000000" points="16,-78 16,-130 674,-130 674,-78 16,-78"/>
</g>
<g id="clust23" class="cluster">
<title>cluster_NgxDhis2VisualizationModule_exports</title>
<polygon fill="none" stroke="#000000" points="1725,-208 1725,-260 2572,-260 2572,-208 1725,-208"/>
</g>
<!-- AddDashboardComponent -->
<g id="node1" class="node">
<title>AddDashboardComponent</title>
<polygon fill="#ffffb3" stroke="#000000" points="4813.08,-122 4646.92,-122 4646.92,-86 4813.08,-86 4813.08,-122"/>
<text text-anchor="middle" x="4730" y="-99.8" font-family="Times,serif" font-size="14.00" fill="#000000">AddDashboardComponent</text>
</g>
<!-- NgxDhis2VisualizationModule -->
<g id="node20" class="node">
<title>NgxDhis2VisualizationModule</title>
<polygon fill="#8dd3c7" stroke="#000000" points="2210.7464,-187 2207.7464,-191 2186.7464,-191 2183.7464,-187 2019.2536,-187 2019.2536,-151 2210.7464,-151 2210.7464,-187"/>
<text text-anchor="middle" x="2115" y="-164.8" font-family="Times,serif" font-size="14.00" fill="#000000">NgxDhis2VisualizationModule</text>
</g>
<!-- AddDashboardComponent&#45;&gt;NgxDhis2VisualizationModule -->
<g id="edge1" class="edge">
<title>AddDashboardComponent&#45;&gt;NgxDhis2VisualizationModule</title>
<path fill="none" stroke="#000000" d="M4730,-122.2479C4730,-145.0179 4730,-181 4730,-181 4730,-181 2220.7804,-181 2220.7804,-181"/>
<polygon fill="#000000" stroke="#000000" points="2220.7804,-177.5001 2210.7804,-181 2220.7803,-184.5001 2220.7804,-177.5001"/>
</g>
<!-- CurrentDashboardBookmarkComponent -->
<g id="node2" class="node">
<title>CurrentDashboardBookmarkComponent</title>
<polygon fill="#ffffb3" stroke="#000000" points="4628.8389,-122 4385.1611,-122 4385.1611,-86 4628.8389,-86 4628.8389,-122"/>
<text text-anchor="middle" x="4507" y="-99.8" font-family="Times,serif" font-size="14.00" fill="#000000">CurrentDashboardBookmarkComponent</text>
</g>
<!-- CurrentDashboardBookmarkComponent&#45;&gt;NgxDhis2VisualizationModule -->
<g id="edge2" class="edge">
<title>CurrentDashboardBookmarkComponent&#45;&gt;NgxDhis2VisualizationModule</title>
<path fill="none" stroke="#000000" d="M4507,-122.2921C4507,-144.2057 4507,-178 4507,-178 4507,-178 2220.9873,-178 2220.9873,-178"/>
<polygon fill="#000000" stroke="#000000" points="2220.9873,-174.5001 2210.9873,-178 2220.9872,-181.5001 2220.9873,-174.5001"/>
</g>
<!-- CurrentDashboardComponent -->
<g id="node3" class="node">
<title>CurrentDashboardComponent</title>
<polygon fill="#ffffb3" stroke="#000000" points="4367.2366,-122 4182.7634,-122 4182.7634,-86 4367.2366,-86 4367.2366,-122"/>
<text text-anchor="middle" x="4275" y="-99.8" font-family="Times,serif" font-size="14.00" fill="#000000">CurrentDashboardComponent</text>
</g>
<!-- CurrentDashboardComponent&#45;&gt;NgxDhis2VisualizationModule -->
<g id="edge3" class="edge">
<title>CurrentDashboardComponent&#45;&gt;NgxDhis2VisualizationModule</title>
<path fill="none" stroke="#000000" d="M4275,-122.2843C4275,-143.3211 4275,-175 4275,-175 4275,-175 2220.9505,-175 2220.9505,-175"/>
<polygon fill="#000000" stroke="#000000" points="2220.9506,-171.5001 2210.9505,-175 2220.9505,-178.5001 2220.9506,-171.5001"/>
</g>
<!-- CurrentDashboardDescriptionComponent -->
<g id="node4" class="node">
<title>CurrentDashboardDescriptionComponent</title>
<polygon fill="#ffffb3" stroke="#000000" points="4165.0492,-122 3914.9508,-122 3914.9508,-86 4165.0492,-86 4165.0492,-122"/>
<text text-anchor="middle" x="4040" y="-99.8" font-family="Times,serif" font-size="14.00" fill="#000000">CurrentDashboardDescriptionComponent</text>
</g>
<!-- CurrentDashboardDescriptionComponent&#45;&gt;NgxDhis2VisualizationModule -->
<g id="edge4" class="edge">
<title>CurrentDashboardDescriptionComponent&#45;&gt;NgxDhis2VisualizationModule</title>
<path fill="none" stroke="#000000" d="M4040,-122.2228C4040,-142.3652 4040,-172 4040,-172 4040,-172 2220.7901,-172 2220.7901,-172"/>
<polygon fill="#000000" stroke="#000000" points="2220.7901,-168.5001 2210.7901,-172 2220.7901,-175.5001 2220.7901,-168.5001"/>
</g>
<!-- CurrentDashboardGlobalFilterComponent -->
<g id="node5" class="node">
<title>CurrentDashboardGlobalFilterComponent</title>
<polygon fill="#ffffb3" stroke="#000000" points="3896.6685,-122 3643.3315,-122 3643.3315,-86 3896.6685,-86 3896.6685,-122"/>
<text text-anchor="middle" x="3770" y="-99.8" font-family="Times,serif" font-size="14.00" fill="#000000">CurrentDashboardGlobalFilterComponent</text>
</g>
<!-- CurrentDashboardGlobalFilterComponent&#45;&gt;NgxDhis2VisualizationModule -->
<g id="edge5" class="edge">
<title>CurrentDashboardGlobalFilterComponent&#45;&gt;NgxDhis2VisualizationModule</title>
<path fill="none" stroke="#000000" d="M3770,-122.1061C3770,-141.3391 3770,-169 3770,-169 3770,-169 2220.8304,-169 2220.8304,-169"/>
<polygon fill="#000000" stroke="#000000" points="2220.8304,-165.5001 2210.8304,-169 2220.8304,-172.5001 2220.8304,-165.5001"/>
</g>
<!-- CurrentDashboardHeaderComponent -->
<g id="node6" class="node">
<title>CurrentDashboardHeaderComponent</title>
<polygon fill="#ffffb3" stroke="#000000" points="3625.6474,-122 3400.3526,-122 3400.3526,-86 3625.6474,-86 3625.6474,-122"/>
<text text-anchor="middle" x="3513" y="-99.8" font-family="Times,serif" font-size="14.00" fill="#000000">CurrentDashboardHeaderComponent</text>
</g>
<!-- CurrentDashboardHeaderComponent&#45;&gt;NgxDhis2VisualizationModule -->
<g id="edge6" class="edge">
<title>CurrentDashboardHeaderComponent&#45;&gt;NgxDhis2VisualizationModule</title>
<path fill="none" stroke="#000000" d="M3513,-122.2667C3513,-140.5552 3513,-166 3513,-166 3513,-166 2220.8149,-166 2220.8149,-166"/>
<polygon fill="#000000" stroke="#000000" points="2220.815,-162.5001 2210.8149,-166 2220.8149,-169.5001 2220.815,-162.5001"/>
</g>
<!-- CurrentDashboardItemSearchComponent -->
<g id="node7" class="node">
<title>CurrentDashboardItemSearchComponent</title>
<polygon fill="#ffffb3" stroke="#000000" points="3382.4803,-122 3133.5197,-122 3133.5197,-86 3382.4803,-86 3382.4803,-122"/>
<text text-anchor="middle" x="3258" y="-99.8" font-family="Times,serif" font-size="14.00" fill="#000000">CurrentDashboardItemSearchComponent</text>
</g>
<!-- CurrentDashboardItemSearchComponent&#45;&gt;NgxDhis2VisualizationModule -->
<g id="edge7" class="edge">
<title>CurrentDashboardItemSearchComponent&#45;&gt;NgxDhis2VisualizationModule</title>
<path fill="none" stroke="#000000" d="M3258,-122.0225C3258,-139.3734 3258,-163 3258,-163 3258,-163 2220.9755,-163 2220.9755,-163"/>
<polygon fill="#000000" stroke="#000000" points="2220.9755,-159.5001 2210.9755,-163 2220.9755,-166.5001 2220.9755,-159.5001"/>
</g>
<!-- CurrentDashboardSharingComponent -->
<g id="node8" class="node">
<title>CurrentDashboardSharingComponent</title>
<polygon fill="#ffffb3" stroke="#000000" points="3116.285,-122 2887.715,-122 2887.715,-86 3116.285,-86 3116.285,-122"/>
<text text-anchor="middle" x="3002" y="-99.8" font-family="Times,serif" font-size="14.00" fill="#000000">CurrentDashboardSharingComponent</text>
</g>
<!-- CurrentDashboardSharingComponent&#45;&gt;NgxDhis2VisualizationModule -->
<g id="edge8" class="edge">
<title>CurrentDashboardSharingComponent&#45;&gt;NgxDhis2VisualizationModule</title>
<path fill="none" stroke="#000000" d="M3002,-122.027C3002,-138.3976 3002,-160 3002,-160 3002,-160 2220.7673,-160 2220.7673,-160"/>
<polygon fill="#000000" stroke="#000000" points="2220.7673,-156.5001 2210.7673,-160 2220.7673,-163.5001 2220.7673,-156.5001"/>
</g>
<!-- CurrentDashboardTitleComponent -->
<g id="node9" class="node">
<title>CurrentDashboardTitleComponent</title>
<polygon fill="#ffffb3" stroke="#000000" points="2869.6755,-122 2658.3245,-122 2658.3245,-86 2869.6755,-86 2869.6755,-122"/>
<text text-anchor="middle" x="2764" y="-99.8" font-family="Times,serif" font-size="14.00" fill="#000000">CurrentDashboardTitleComponent</text>
</g>
<!-- CurrentDashboardTitleComponent&#45;&gt;NgxDhis2VisualizationModule -->
<g id="edge9" class="edge">
<title>CurrentDashboardTitleComponent&#45;&gt;NgxDhis2VisualizationModule</title>
<path fill="none" stroke="#000000" d="M2764,-122.2396C2764,-137.5706 2764,-157 2764,-157 2764,-157 2220.7622,-157 2220.7622,-157"/>
<polygon fill="#000000" stroke="#000000" points="2220.7622,-153.5001 2210.7622,-157 2220.7622,-160.5001 2220.7622,-153.5001"/>
</g>
<!-- CurrentDashboardVisualizationComponent -->
<g id="node10" class="node">
<title>CurrentDashboardVisualizationComponent</title>
<polygon fill="#ffffb3" stroke="#000000" points="2640.8847,-122 2381.1153,-122 2381.1153,-86 2640.8847,-86 2640.8847,-122"/>
<text text-anchor="middle" x="2511" y="-99.8" font-family="Times,serif" font-size="14.00" fill="#000000">CurrentDashboardVisualizationComponent</text>
</g>
<!-- CurrentDashboardVisualizationComponent&#45;&gt;NgxDhis2VisualizationModule -->
<g id="edge10" class="edge">
<title>CurrentDashboardVisualizationComponent&#45;&gt;NgxDhis2VisualizationModule</title>
<path fill="none" stroke="#000000" d="M2442.2446,-122.0511C2442.2446,-136.373 2442.2446,-154 2442.2446,-154 2442.2446,-154 2220.973,-154 2220.973,-154"/>
<polygon fill="#000000" stroke="#000000" points="2220.9731,-150.5001 2210.973,-154 2220.973,-157.5001 2220.9731,-150.5001"/>
</g>
<!-- DashboardComponent -->
<g id="node11" class="node">
<title>DashboardComponent</title>
<polygon fill="#ffffb3" stroke="#000000" points="2362.9734,-122 2221.0266,-122 2221.0266,-86 2362.9734,-86 2362.9734,-122"/>
<text text-anchor="middle" x="2292" y="-99.8" font-family="Times,serif" font-size="14.00" fill="#000000">DashboardComponent</text>
</g>
<!-- DashboardComponent&#45;&gt;NgxDhis2VisualizationModule -->
<g id="edge11" class="edge">
<title>DashboardComponent&#45;&gt;NgxDhis2VisualizationModule</title>
<path fill="none" stroke="#000000" d="M2221.0217,-104C2212.6337,-104 2206.9829,-104 2206.9829,-104 2206.9829,-104 2206.9829,-140.8939 2206.9829,-140.8939"/>
<polygon fill="#000000" stroke="#000000" points="2203.4829,-140.8938 2206.9829,-150.8939 2210.4829,-140.8939 2203.4829,-140.8938"/>
</g>
<!-- DashboardHomeComponent -->
<g id="node12" class="node">
<title>DashboardHomeComponent</title>
<polygon fill="#ffffb3" stroke="#000000" points="2203.1853,-122 2026.8147,-122 2026.8147,-86 2203.1853,-86 2203.1853,-122"/>
<text text-anchor="middle" x="2115" y="-99.8" font-family="Times,serif" font-size="14.00" fill="#000000">DashboardHomeComponent</text>
</g>
<!-- DashboardHomeComponent&#45;&gt;NgxDhis2VisualizationModule -->
<g id="edge12" class="edge">
<title>DashboardHomeComponent&#45;&gt;NgxDhis2VisualizationModule</title>
<path fill="none" stroke="#000000" d="M2115,-122.1061C2115,-122.1061 2115,-140.991 2115,-140.991"/>
<polygon fill="#000000" stroke="#000000" points="2111.5001,-140.9909 2115,-150.991 2118.5001,-140.991 2111.5001,-140.9909"/>
</g>
<!-- DashboardMenuComponent -->
<g id="node13" class="node">
<title>DashboardMenuComponent</title>
<polygon fill="#ffffb3" stroke="#000000" points="2009.133,-122 1834.867,-122 1834.867,-86 2009.133,-86 2009.133,-122"/>
<text text-anchor="middle" x="1922" y="-99.8" font-family="Times,serif" font-size="14.00" fill="#000000">DashboardMenuComponent</text>
</g>
<!-- DashboardMenuComponent&#45;&gt;NgxDhis2VisualizationModule -->
<g id="edge13" class="edge">
<title>DashboardMenuComponent&#45;&gt;NgxDhis2VisualizationModule</title>
<path fill="none" stroke="#000000" d="M2009.3935,-104C2017.6515,-104 2023.0172,-104 2023.0172,-104 2023.0172,-104 2023.0172,-140.8939 2023.0172,-140.8939"/>
<polygon fill="#000000" stroke="#000000" points="2019.5172,-140.8938 2023.0172,-150.8939 2026.5172,-140.8939 2019.5172,-140.8938"/>
</g>
<!-- DashboardMenuItemComponent -->
<g id="node14" class="node">
<title>DashboardMenuItemComponent</title>
<polygon fill="#ffffb3" stroke="#000000" points="1817.2892,-122 1616.7108,-122 1616.7108,-86 1817.2892,-86 1817.2892,-122"/>
<text text-anchor="middle" x="1717" y="-99.8" font-family="Times,serif" font-size="14.00" fill="#000000">DashboardMenuItemComponent</text>
</g>
<!-- DashboardMenuItemComponent&#45;&gt;NgxDhis2VisualizationModule -->
<g id="edge14" class="edge">
<title>DashboardMenuItemComponent&#45;&gt;NgxDhis2VisualizationModule</title>
<path fill="none" stroke="#000000" d="M1775.151,-122.0511C1775.151,-136.373 1775.151,-154 1775.151,-154 1775.151,-154 2008.9756,-154 2008.9756,-154"/>
<polygon fill="#000000" stroke="#000000" points="2008.9756,-157.5001 2018.9756,-154 2008.9756,-150.5001 2008.9756,-157.5001"/>
</g>
<!-- DashboardProgressComponent -->
<g id="node15" class="node">
<title>DashboardProgressComponent</title>
<polygon fill="#ffffb3" stroke="#000000" points="1599.1811,-122 1408.8189,-122 1408.8189,-86 1599.1811,-86 1599.1811,-122"/>
<text text-anchor="middle" x="1504" y="-99.8" font-family="Times,serif" font-size="14.00" fill="#000000">DashboardProgressComponent</text>
</g>
<!-- DashboardProgressComponent&#45;&gt;NgxDhis2VisualizationModule -->
<g id="edge15" class="edge">
<title>DashboardProgressComponent&#45;&gt;NgxDhis2VisualizationModule</title>
<path fill="none" stroke="#000000" d="M1504,-122.2396C1504,-137.5706 1504,-157 1504,-157 1504,-157 2009.1954,-157 2009.1954,-157"/>
<polygon fill="#000000" stroke="#000000" points="2009.1954,-160.5001 2019.1954,-157 2009.1954,-153.5001 2009.1954,-160.5001"/>
</g>
<!-- DefaultDashboardListComponent -->
<g id="node16" class="node">
<title>DefaultDashboardListComponent</title>
<polygon fill="#ffffb3" stroke="#000000" points="1390.7296,-122 1185.2704,-122 1185.2704,-86 1390.7296,-86 1390.7296,-122"/>
<text text-anchor="middle" x="1288" y="-99.8" font-family="Times,serif" font-size="14.00" fill="#000000">DefaultDashboardListComponent</text>
</g>
<!-- DefaultDashboardListComponent&#45;&gt;NgxDhis2VisualizationModule -->
<g id="edge16" class="edge">
<title>DefaultDashboardListComponent&#45;&gt;NgxDhis2VisualizationModule</title>
<path fill="none" stroke="#000000" d="M1288,-122.027C1288,-138.3976 1288,-160 1288,-160 1288,-160 2008.9197,-160 2008.9197,-160"/>
<polygon fill="#000000" stroke="#000000" points="2008.9197,-163.5001 2018.9197,-160 2008.9197,-156.5001 2008.9197,-163.5001"/>
</g>
<!-- FilterByNamePipe -->
<g id="node17" class="node">
<title>FilterByNamePipe</title>
<polygon fill="#ffffb3" stroke="#000000" points="1167.4804,-122 1046.5196,-122 1046.5196,-86 1167.4804,-86 1167.4804,-122"/>
<text text-anchor="middle" x="1107" y="-99.8" font-family="Times,serif" font-size="14.00" fill="#000000">FilterByNamePipe</text>
</g>
<!-- FilterByNamePipe&#45;&gt;NgxDhis2VisualizationModule -->
<g id="edge17" class="edge">
<title>FilterByNamePipe&#45;&gt;NgxDhis2VisualizationModule</title>
<path fill="none" stroke="#000000" d="M1107,-122.0225C1107,-139.3734 1107,-163 1107,-163 1107,-163 2008.8053,-163 2008.8053,-163"/>
<polygon fill="#000000" stroke="#000000" points="2008.8054,-166.5001 2018.8053,-163 2008.8053,-159.5001 2008.8054,-166.5001"/>
</g>
<!-- InterventionFormComponent -->
<g id="node18" class="node">
<title>InterventionFormComponent</title>
<polygon fill="#ffffb3" stroke="#000000" points="1028.0884,-122 847.9116,-122 847.9116,-86 1028.0884,-86 1028.0884,-122"/>
<text text-anchor="middle" x="938" y="-99.8" font-family="Times,serif" font-size="14.00" fill="#000000">InterventionFormComponent</text>
</g>
<!-- InterventionFormComponent&#45;&gt;NgxDhis2VisualizationModule -->
<g id="edge18" class="edge">
<title>InterventionFormComponent&#45;&gt;NgxDhis2VisualizationModule</title>
<path fill="none" stroke="#000000" d="M938,-122.2667C938,-140.5552 938,-166 938,-166 938,-166 2009.1802,-166 2009.1802,-166"/>
<polygon fill="#000000" stroke="#000000" points="2009.1802,-169.5001 2019.1802,-166 2009.1802,-162.5001 2009.1802,-169.5001"/>
</g>
<!-- SortByBookmarkPipe -->
<g id="node19" class="node">
<title>SortByBookmarkPipe</title>
<polygon fill="#ffffb3" stroke="#000000" points="829.661,-122 690.339,-122 690.339,-86 829.661,-86 829.661,-122"/>
<text text-anchor="middle" x="760" y="-99.8" font-family="Times,serif" font-size="14.00" fill="#000000">SortByBookmarkPipe</text>
</g>
<!-- SortByBookmarkPipe&#45;&gt;NgxDhis2VisualizationModule -->
<g id="edge19" class="edge">
<title>SortByBookmarkPipe&#45;&gt;NgxDhis2VisualizationModule</title>
<path fill="none" stroke="#000000" d="M760,-122.1061C760,-141.3391 760,-169 760,-169 760,-169 2009.1792,-169 2009.1792,-169"/>
<polygon fill="#000000" stroke="#000000" points="2009.1792,-172.5001 2019.1792,-169 2009.1791,-165.5001 2009.1792,-172.5001"/>
</g>
<!-- CurrentDashboardComponent  -->
<g id="node25" class="node">
<title>CurrentDashboardComponent </title>
<polygon fill="#fb8072" stroke="#000000" points="2564.2365,-252 2375.7635,-252 2375.7635,-216 2564.2365,-216 2564.2365,-252"/>
<text text-anchor="middle" x="2470" y="-229.8" font-family="Times,serif" font-size="14.00" fill="#000000">CurrentDashboardComponent </text>
</g>
<!-- NgxDhis2VisualizationModule&#45;&gt;CurrentDashboardComponent  -->
<g id="edge24" class="edge">
<title>NgxDhis2VisualizationModule&#45;&gt;CurrentDashboardComponent </title>
<path fill="none" stroke="#000000" stroke-dasharray="5,2" d="M2210.955,-184C2325.9066,-184 2503.1814,-184 2503.1814,-184 2503.1814,-184 2503.1814,-205.9489 2503.1814,-205.9489"/>
<polygon fill="#000000" stroke="#000000" points="2499.6815,-205.9488 2503.1814,-215.9489 2506.6815,-205.9489 2499.6815,-205.9488"/>
</g>
<!-- CurrentDashboardVisualizationComponent  -->
<g id="node26" class="node">
<title>CurrentDashboardVisualizationComponent </title>
<polygon fill="#fb8072" stroke="#000000" points="2357.3844,-252 2094.6156,-252 2094.6156,-216 2357.3844,-216 2357.3844,-252"/>
<text text-anchor="middle" x="2226" y="-229.8" font-family="Times,serif" font-size="14.00" fill="#000000">CurrentDashboardVisualizationComponent </text>
</g>
<!-- NgxDhis2VisualizationModule&#45;&gt;CurrentDashboardVisualizationComponent  -->
<g id="edge25" class="edge">
<title>NgxDhis2VisualizationModule&#45;&gt;CurrentDashboardVisualizationComponent </title>
<path fill="none" stroke="#000000" stroke-dasharray="5,2" d="M2152.7154,-187.1061C2152.7154,-187.1061 2152.7154,-205.991 2152.7154,-205.991"/>
<polygon fill="#000000" stroke="#000000" points="2149.2155,-205.9909 2152.7154,-215.991 2156.2155,-205.991 2149.2155,-205.9909"/>
</g>
<!-- DashboardComponent  -->
<g id="node27" class="node">
<title>DashboardComponent </title>
<polygon fill="#fb8072" stroke="#000000" points="2076.9742,-252 1931.0258,-252 1931.0258,-216 2076.9742,-216 2076.9742,-252"/>
<text text-anchor="middle" x="2004" y="-229.8" font-family="Times,serif" font-size="14.00" fill="#000000">DashboardComponent </text>
</g>
<!-- NgxDhis2VisualizationModule&#45;&gt;DashboardComponent  -->
<g id="edge26" class="edge">
<title>NgxDhis2VisualizationModule&#45;&gt;DashboardComponent </title>
<path fill="none" stroke="#000000" stroke-dasharray="5,2" d="M2047.9318,-187.1061C2047.9318,-187.1061 2047.9318,-205.991 2047.9318,-205.991"/>
<polygon fill="#000000" stroke="#000000" points="2044.4319,-205.9909 2047.9318,-215.991 2051.4319,-205.991 2044.4319,-205.9909"/>
</g>
<!-- DashboardHomeComponent  -->
<g id="node28" class="node">
<title>DashboardHomeComponent </title>
<polygon fill="#fb8072" stroke="#000000" points="1912.6855,-252 1733.3145,-252 1733.3145,-216 1912.6855,-216 1912.6855,-252"/>
<text text-anchor="middle" x="1823" y="-229.8" font-family="Times,serif" font-size="14.00" fill="#000000">DashboardHomeComponent </text>
</g>
<!-- NgxDhis2VisualizationModule&#45;&gt;DashboardHomeComponent  -->
<g id="edge27" class="edge">
<title>NgxDhis2VisualizationModule&#45;&gt;DashboardHomeComponent </title>
<path fill="none" stroke="#000000" stroke-dasharray="5,2" d="M2018.9637,-184C1951.6905,-184 1873.7632,-184 1873.7632,-184 1873.7632,-184 1873.7632,-205.9489 1873.7632,-205.9489"/>
<polygon fill="#000000" stroke="#000000" points="1870.2632,-205.9488 1873.7632,-215.9489 1877.2632,-205.9489 1870.2632,-205.9488"/>
</g>
<!-- MapModule -->
<g id="node21" class="node">
<title>MapModule</title>
<polygon fill="#8dd3c7" stroke="#000000" points="665.7093,-122 662.7093,-126 641.7093,-126 638.7093,-122 580.2907,-122 580.2907,-86 665.7093,-86 665.7093,-122"/>
<text text-anchor="middle" x="623" y="-99.8" font-family="Times,serif" font-size="14.00" fill="#000000">MapModule</text>
</g>
<!-- MapModule&#45;&gt;NgxDhis2VisualizationModule -->
<g id="edge20" class="edge">
<title>MapModule&#45;&gt;NgxDhis2VisualizationModule</title>
<path fill="none" stroke="#000000" d="M623,-122.2228C623,-142.3652 623,-172 623,-172 623,-172 2009.1136,-172 2009.1136,-172"/>
<polygon fill="#000000" stroke="#000000" points="2009.1137,-175.5001 2019.1136,-172 2009.1136,-168.5001 2009.1137,-175.5001"/>
</g>
<!-- NgxDhis2ChartModule -->
<g id="node22" class="node">
<title>NgxDhis2ChartModule</title>
<polygon fill="#8dd3c7" stroke="#000000" points="562.2007,-122 559.2007,-126 538.2007,-126 535.2007,-122 413.7993,-122 413.7993,-86 562.2007,-86 562.2007,-122"/>
<text text-anchor="middle" x="488" y="-99.8" font-family="Times,serif" font-size="14.00" fill="#000000">NgxDhis2ChartModule</text>
</g>
<!-- NgxDhis2ChartModule&#45;&gt;NgxDhis2VisualizationModule -->
<g id="edge21" class="edge">
<title>NgxDhis2ChartModule&#45;&gt;NgxDhis2VisualizationModule</title>
<path fill="none" stroke="#000000" d="M488,-122.2843C488,-143.3211 488,-175 488,-175 488,-175 2008.9981,-175 2008.9981,-175"/>
<polygon fill="#000000" stroke="#000000" points="2008.9981,-178.5001 2018.9981,-175 2008.9981,-171.5001 2008.9981,-178.5001"/>
</g>
<!-- NgxDhis2SelectionFiltersModule -->
<g id="node23" class="node">
<title>NgxDhis2SelectionFiltersModule</title>
<polygon fill="#8dd3c7" stroke="#000000" points="395.4706,-122 392.4706,-126 371.4706,-126 368.4706,-122 190.5294,-122 190.5294,-86 395.4706,-86 395.4706,-122"/>
<text text-anchor="middle" x="293" y="-99.8" font-family="Times,serif" font-size="14.00" fill="#000000">NgxDhis2SelectionFiltersModule</text>
</g>
<!-- NgxDhis2SelectionFiltersModule&#45;&gt;NgxDhis2VisualizationModule -->
<g id="edge22" class="edge">
<title>NgxDhis2SelectionFiltersModule&#45;&gt;NgxDhis2VisualizationModule</title>
<path fill="none" stroke="#000000" d="M293,-122.2921C293,-144.2057 293,-178 293,-178 293,-178 2008.9682,-178 2008.9682,-178"/>
<polygon fill="#000000" stroke="#000000" points="2008.9682,-181.5001 2018.9682,-178 2008.9681,-174.5001 2008.9682,-181.5001"/>
</g>
<!-- NgxDhis2TableModule -->
<g id="node24" class="node">
<title>NgxDhis2TableModule</title>
<polygon fill="#8dd3c7" stroke="#000000" points="172.4706,-122 169.4706,-126 148.4706,-126 145.4706,-122 23.5294,-122 23.5294,-86 172.4706,-86 172.4706,-122"/>
<text text-anchor="middle" x="98" y="-99.8" font-family="Times,serif" font-size="14.00" fill="#000000">NgxDhis2TableModule</text>
</g>
<!-- NgxDhis2TableModule&#45;&gt;NgxDhis2VisualizationModule -->
<g id="edge23" class="edge">
<title>NgxDhis2TableModule&#45;&gt;NgxDhis2VisualizationModule</title>
<path fill="none" stroke="#000000" d="M98,-122.2479C98,-145.0179 98,-181 98,-181 98,-181 2009.0728,-181 2009.0728,-181"/>
<polygon fill="#000000" stroke="#000000" points="2009.0729,-184.5001 2019.0728,-181 2009.0728,-177.5001 2009.0729,-184.5001"/>
</g>
</g>
</svg>
